<svg width="512" height="512" viewBox="0 0 512 512" fill="none" xmlns="http://www.w3.org/2000/svg">
<circle cx="256" cy="256" r="256" fill="url(#paint0_linear_258_60)" fill-opacity="0.2"/>
<path d="M104.092 237.644V282.874H108.908C109.326 282.874 109.659 283.007 109.906 283.273C110.172 283.539 110.305 283.862 110.305 284.242V286.237H99.8169V234.309H110.305V236.304C110.305 236.684 110.172 237.007 109.906 237.273C109.659 237.52 109.326 237.644 108.908 237.644H104.092ZM119.614 271.046C120.545 272.3 121.562 273.183 122.664 273.696C123.766 274.209 125.001 274.466 126.369 274.466C129.067 274.466 131.138 273.506 132.582 271.587C134.026 269.668 134.748 266.932 134.748 263.379C134.748 261.498 134.577 259.883 134.235 258.534C133.912 257.185 133.437 256.083 132.81 255.228C132.183 254.354 131.413 253.718 130.501 253.319C129.589 252.92 128.554 252.72 127.395 252.72C125.742 252.72 124.288 253.1 123.034 253.86C121.799 254.62 120.659 255.694 119.614 257.081V271.046ZM119.358 253.604C120.574 252.103 121.98 250.896 123.576 249.984C125.172 249.072 126.996 248.616 129.048 248.616C130.72 248.616 132.23 248.939 133.579 249.585C134.928 250.212 136.078 251.153 137.028 252.407C137.978 253.642 138.709 255.181 139.222 257.024C139.735 258.867 139.992 260.985 139.992 263.379C139.992 265.507 139.707 267.493 139.137 269.336C138.567 271.16 137.74 272.746 136.657 274.095C135.593 275.425 134.282 276.48 132.724 277.259C131.185 278.019 129.447 278.399 127.509 278.399C125.742 278.399 124.222 278.104 122.949 277.515C121.695 276.907 120.583 276.071 119.614 275.007V287.776H114.513V249.129H117.562C118.284 249.129 118.731 249.481 118.902 250.184L119.358 253.604ZM151.708 236.019V278H146.635V236.019H151.708ZM175.581 265.004C173.244 265.08 171.249 265.27 169.596 265.574C167.962 265.859 166.623 266.239 165.578 266.714C164.552 267.189 163.801 267.749 163.326 268.395C162.87 269.041 162.642 269.763 162.642 270.561C162.642 271.321 162.766 271.977 163.013 272.528C163.26 273.079 163.592 273.535 164.01 273.896C164.447 274.238 164.951 274.494 165.521 274.665C166.11 274.817 166.737 274.893 167.402 274.893C168.295 274.893 169.112 274.808 169.853 274.637C170.594 274.447 171.287 274.181 171.933 273.839C172.598 273.497 173.225 273.088 173.814 272.613C174.422 272.138 175.011 271.597 175.581 270.989V265.004ZM159.194 253.205C160.79 251.666 162.509 250.516 164.352 249.756C166.195 248.996 168.238 248.616 170.48 248.616C172.095 248.616 173.529 248.882 174.783 249.414C176.037 249.946 177.092 250.687 177.947 251.637C178.802 252.587 179.448 253.737 179.885 255.086C180.322 256.435 180.54 257.917 180.54 259.532V278H178.289C177.795 278 177.415 277.924 177.149 277.772C176.883 277.601 176.674 277.278 176.522 276.803L175.952 274.067C175.192 274.77 174.451 275.397 173.729 275.948C173.007 276.48 172.247 276.936 171.449 277.316C170.651 277.677 169.796 277.952 168.884 278.143C167.991 278.352 166.993 278.456 165.891 278.456C164.77 278.456 163.716 278.304 162.728 278C161.74 277.677 160.875 277.202 160.134 276.575C159.412 275.948 158.833 275.159 158.396 274.209C157.978 273.24 157.769 272.1 157.769 270.789C157.769 269.649 158.082 268.557 158.709 267.512C159.336 266.448 160.353 265.507 161.759 264.69C163.165 263.873 164.998 263.208 167.259 262.695C169.52 262.164 172.294 261.859 175.581 261.783V259.532C175.581 257.29 175.097 255.599 174.128 254.459C173.159 253.3 171.743 252.72 169.881 252.72C168.627 252.72 167.573 252.882 166.718 253.205C165.882 253.509 165.15 253.86 164.523 254.259C163.915 254.639 163.383 254.991 162.927 255.314C162.49 255.618 162.053 255.77 161.616 255.77C161.274 255.77 160.98 255.684 160.733 255.513C160.486 255.323 160.277 255.095 160.106 254.829L159.194 253.205ZM208.36 254.259C208.208 254.468 208.056 254.63 207.904 254.744C207.752 254.858 207.543 254.915 207.277 254.915C206.992 254.915 206.679 254.801 206.337 254.573C205.995 254.326 205.567 254.06 205.054 253.775C204.56 253.49 203.943 253.233 203.202 253.005C202.48 252.758 201.587 252.635 200.523 252.635C199.098 252.635 197.844 252.891 196.761 253.404C195.678 253.898 194.766 254.62 194.025 255.57C193.303 256.52 192.752 257.67 192.372 259.019C192.011 260.368 191.83 261.878 191.83 263.55C191.83 265.298 192.03 266.856 192.429 268.224C192.828 269.573 193.388 270.713 194.11 271.644C194.851 272.556 195.735 273.259 196.761 273.753C197.806 274.228 198.974 274.466 200.266 274.466C201.501 274.466 202.518 274.323 203.316 274.038C204.114 273.734 204.769 273.402 205.282 273.041C205.814 272.68 206.251 272.357 206.593 272.072C206.954 271.768 207.306 271.616 207.648 271.616C208.066 271.616 208.389 271.777 208.617 272.1L210.042 273.953C209.415 274.732 208.702 275.397 207.904 275.948C207.106 276.499 206.242 276.964 205.311 277.344C204.399 277.705 203.439 277.971 202.432 278.143C201.425 278.314 200.399 278.399 199.354 278.399C197.549 278.399 195.868 278.066 194.31 277.401C192.771 276.736 191.431 275.777 190.291 274.523C189.151 273.25 188.258 271.692 187.612 269.849C186.966 268.006 186.643 265.906 186.643 263.55C186.643 261.403 186.938 259.418 187.527 257.594C188.135 255.77 189.009 254.202 190.149 252.891C191.308 251.561 192.723 250.526 194.395 249.785C196.086 249.044 198.024 248.673 200.209 248.673C202.242 248.673 204.028 249.006 205.567 249.671C207.125 250.317 208.503 251.238 209.7 252.435L208.36 254.259ZM234.309 260.415C234.309 259.237 234.138 258.164 233.796 257.195C233.473 256.207 232.989 255.361 232.343 254.658C231.716 253.936 230.946 253.385 230.034 253.005C229.122 252.606 228.087 252.407 226.928 252.407C224.496 252.407 222.567 253.119 221.142 254.544C219.736 255.95 218.862 257.907 218.52 260.415H234.309ZM238.413 273.953C237.786 274.713 237.036 275.378 236.162 275.948C235.288 276.499 234.347 276.955 233.34 277.316C232.352 277.677 231.326 277.943 230.262 278.114C229.198 278.304 228.144 278.399 227.099 278.399C225.104 278.399 223.261 278.066 221.57 277.401C219.898 276.717 218.444 275.729 217.209 274.438C215.993 273.126 215.043 271.511 214.359 269.592C213.675 267.673 213.333 265.469 213.333 262.98C213.333 260.966 213.637 259.085 214.245 257.337C214.872 255.589 215.765 254.079 216.924 252.806C218.083 251.514 219.499 250.507 221.171 249.785C222.843 249.044 224.724 248.673 226.814 248.673C228.543 248.673 230.139 248.968 231.602 249.557C233.084 250.127 234.357 250.963 235.421 252.065C236.504 253.148 237.349 254.497 237.957 256.112C238.565 257.708 238.869 259.532 238.869 261.584C238.869 262.382 238.784 262.914 238.613 263.18C238.442 263.446 238.119 263.579 237.644 263.579H218.349C218.406 265.403 218.653 266.989 219.09 268.338C219.546 269.687 220.173 270.818 220.971 271.73C221.769 272.623 222.719 273.297 223.821 273.753C224.923 274.19 226.158 274.409 227.526 274.409C228.799 274.409 229.892 274.266 230.804 273.981C231.735 273.677 232.533 273.354 233.198 273.012C233.863 272.67 234.414 272.357 234.851 272.072C235.307 271.768 235.696 271.616 236.019 271.616C236.437 271.616 236.76 271.777 236.988 272.1L238.413 273.953ZM250.202 252.977C251.437 251.666 252.805 250.621 254.306 249.842C255.807 249.063 257.536 248.673 259.493 248.673C261.07 248.673 262.457 248.939 263.654 249.471C264.87 249.984 265.877 250.725 266.675 251.694C267.492 252.644 268.11 253.794 268.528 255.143C268.946 256.492 269.155 257.983 269.155 259.617V278H264.053V259.617C264.053 257.432 263.55 255.741 262.543 254.544C261.555 253.328 260.044 252.72 258.011 252.72C256.51 252.72 255.104 253.081 253.793 253.803C252.501 254.525 251.304 255.504 250.202 256.739V278H245.101V236.019H250.202V252.977ZM289.054 248.673C291.163 248.673 293.063 249.025 294.754 249.728C296.445 250.431 297.889 251.428 299.086 252.72C300.283 254.012 301.195 255.58 301.822 257.423C302.468 259.247 302.791 261.289 302.791 263.55C302.791 265.83 302.468 267.882 301.822 269.706C301.195 271.53 300.283 273.088 299.086 274.38C297.889 275.672 296.445 276.67 294.754 277.373C293.063 278.057 291.163 278.399 289.054 278.399C286.926 278.399 285.007 278.057 283.297 277.373C281.606 276.67 280.162 275.672 278.965 274.38C277.768 273.088 276.847 271.53 276.201 269.706C275.574 267.882 275.26 265.83 275.26 263.55C275.26 261.289 275.574 259.247 276.201 257.423C276.847 255.58 277.768 254.012 278.965 252.72C280.162 251.428 281.606 250.431 283.297 249.728C285.007 249.025 286.926 248.673 289.054 248.673ZM289.054 274.438C291.904 274.438 294.032 273.487 295.438 271.587C296.844 269.668 297.547 266.999 297.547 263.579C297.547 260.14 296.844 257.461 295.438 255.542C294.032 253.623 291.904 252.663 289.054 252.663C287.61 252.663 286.347 252.91 285.264 253.404C284.2 253.898 283.307 254.611 282.585 255.542C281.882 256.473 281.35 257.622 280.989 258.99C280.647 260.339 280.476 261.869 280.476 263.579C280.476 266.999 281.179 269.668 282.585 271.587C284.01 273.487 286.166 274.438 289.054 274.438ZM314.47 236.019V278H309.397V236.019H314.47ZM341.506 255.998C340.556 254.725 339.53 253.841 338.428 253.347C337.326 252.834 336.091 252.578 334.723 252.578C332.044 252.578 329.983 253.537 328.539 255.456C327.095 257.375 326.373 260.111 326.373 263.664C326.373 265.545 326.534 267.16 326.857 268.509C327.18 269.839 327.655 270.941 328.282 271.815C328.909 272.67 329.679 273.297 330.591 273.696C331.503 274.095 332.538 274.295 333.697 274.295C335.369 274.295 336.823 273.915 338.058 273.155C339.312 272.395 340.461 271.321 341.506 269.934V255.998ZM346.579 236.019V278H343.558C342.836 278 342.38 277.648 342.19 276.945L341.734 273.44C340.499 274.922 339.093 276.119 337.516 277.031C335.939 277.943 334.115 278.399 332.044 278.399C330.391 278.399 328.89 278.085 327.541 277.458C326.192 276.812 325.043 275.872 324.093 274.637C323.143 273.402 322.411 271.863 321.898 270.02C321.385 268.177 321.129 266.058 321.129 263.664C321.129 261.536 321.414 259.56 321.984 257.736C322.554 255.893 323.371 254.297 324.435 252.948C325.499 251.599 326.8 250.545 328.339 249.785C329.897 249.006 331.645 248.616 333.583 248.616C335.35 248.616 336.861 248.92 338.115 249.528C339.388 250.117 340.518 250.944 341.506 252.008V236.019H346.579ZM373.915 260.415C373.915 259.237 373.744 258.164 373.402 257.195C373.079 256.207 372.594 255.361 371.948 254.658C371.321 253.936 370.552 253.385 369.64 253.005C368.728 252.606 367.692 252.407 366.533 252.407C364.101 252.407 362.173 253.119 360.748 254.544C359.342 255.95 358.468 257.907 358.126 260.415H373.915ZM378.019 273.953C377.392 274.713 376.641 275.378 375.767 275.948C374.893 276.499 373.953 276.955 372.946 277.316C371.958 277.677 370.932 277.943 369.868 278.114C368.804 278.304 367.749 278.399 366.704 278.399C364.709 278.399 362.866 278.066 361.175 277.401C359.503 276.717 358.05 275.729 356.815 274.438C355.599 273.126 354.649 271.511 353.965 269.592C353.281 267.673 352.939 265.469 352.939 262.98C352.939 260.966 353.243 259.085 353.851 257.337C354.478 255.589 355.371 254.079 356.53 252.806C357.689 251.514 359.104 250.507 360.776 249.785C362.448 249.044 364.329 248.673 366.419 248.673C368.148 248.673 369.744 248.968 371.207 249.557C372.689 250.127 373.962 250.963 375.026 252.065C376.109 253.148 376.955 254.497 377.563 256.112C378.171 257.708 378.475 259.532 378.475 261.584C378.475 262.382 378.389 262.914 378.218 263.18C378.047 263.446 377.724 263.579 377.249 263.579H357.955C358.012 265.403 358.259 266.989 358.696 268.338C359.152 269.687 359.779 270.818 360.577 271.73C361.375 272.623 362.325 273.297 363.427 273.753C364.529 274.19 365.764 274.409 367.132 274.409C368.405 274.409 369.497 274.266 370.409 273.981C371.34 273.677 372.138 273.354 372.803 273.012C373.468 272.67 374.019 272.357 374.456 272.072C374.912 271.768 375.302 271.616 375.625 271.616C376.043 271.616 376.366 271.777 376.594 272.1L378.019 273.953ZM389.523 254.915C390.435 252.939 391.556 251.4 392.886 250.298C394.216 249.177 395.84 248.616 397.759 248.616C398.367 248.616 398.947 248.683 399.498 248.816C400.068 248.949 400.571 249.158 401.008 249.443L400.638 253.233C400.524 253.708 400.239 253.946 399.783 253.946C399.517 253.946 399.127 253.889 398.614 253.775C398.101 253.661 397.522 253.604 396.876 253.604C395.964 253.604 395.147 253.737 394.425 254.003C393.722 254.269 393.085 254.668 392.515 255.2C391.964 255.713 391.461 256.359 391.005 257.138C390.568 257.898 390.169 258.772 389.808 259.76V278H384.706V249.129H387.613C388.164 249.129 388.544 249.234 388.753 249.443C388.962 249.652 389.105 250.013 389.181 250.526L389.523 254.915ZM412.202 286.237H401.714V284.242C401.714 283.862 401.838 283.539 402.085 283.273C402.351 283.007 402.693 282.874 403.111 282.874H407.927V237.644H403.111C402.693 237.644 402.351 237.52 402.085 237.273C401.838 237.007 401.714 236.684 401.714 236.304V234.309H412.202V286.237Z" fill="#A05C2A"/>
<defs>
<linearGradient id="paint0_linear_258_60" x1="114" y1="2.92127e-06" x2="382" y2="478.5" gradientUnits="userSpaceOnUse">
<stop stop-color="#FFA238" stop-opacity="0.5"/>
<stop offset="1" stop-color="#FF8838"/>
</linearGradient>
</defs>
</svg>
