<svg width="40" height="40" viewBox="0 0 40 40" fill="none" xmlns="http://www.w3.org/2000/svg">
<path fill-rule="evenodd" clip-rule="evenodd" d="M40 10C40 7.23858 37.7614 5 35 5H5C2.23858 5 0 7.23858 0 10V30C0 32.7614 2.23858 35 5 35H35C37.7614 35 40 32.7614 40 30V10ZM5.21366 10.3822C5.55488 9.94795 6.18353 9.87251 6.6178 10.2137L19.3822 20.2429C19.7448 20.5278 20.2552 20.5278 20.6178 20.2429L33.3822 10.2137C33.8164 9.87251 34.4451 9.94795 34.7863 10.3822C35.1275 10.8165 35.0521 11.4451 34.6178 11.7864L21.2356 22.3009C20.5104 22.8707 19.4896 22.8707 18.7643 22.3009L5.38216 11.7864C4.94789 11.4451 4.87245 10.8165 5.21366 10.3822Z" fill="white"/>
</svg>
