<svg width="40" height="40" viewBox="0 0 40 40" fill="none" xmlns="http://www.w3.org/2000/svg">
<g clip-path="url(#clip0_255_201)">
<path fill-rule="evenodd" clip-rule="evenodd" d="M40 20C40 31.0457 31.0457 40 20 40C8.9543 40 0 31.0457 0 20C0 8.9543 8.9543 0 20 0C31.0457 0 40 8.9543 40 20ZM13.0099 22.6385C11.6957 23.4162 10.55 25.2401 10.0734 26.9983C9.80328 27.9948 10.3081 28.9844 11.1052 29.5996C15.9499 33.3392 22.5251 33.4744 27.5067 29.9367L27.9231 29.6411C28.8213 29.0032 29.3965 27.9226 29.078 26.8373C28.5768 25.1299 27.4611 23.3925 26.1869 22.6385C24.4219 21.594 22.0887 21 19.5984 21C17.1082 21 14.7749 21.594 13.0099 22.6385ZM13.5344 13.3874C13.5344 9.85974 16.4362 7 20.0157 7C23.5953 7 26.4971 9.85974 26.4971 13.3874C26.4971 16.9151 23.5953 19.7748 20.0157 19.7748C16.4362 19.7748 13.5344 16.9151 13.5344 13.3874Z" fill="white"/>
</g>
<defs>
<clipPath id="clip0_255_201">
<rect width="40" height="40" fill="white"/>
</clipPath>
</defs>
</svg>
