<svg width="512" height="256" viewBox="0 0 512 256" fill="none" xmlns="http://www.w3.org/2000/svg">
<path d="M104.092 109.644V154.874H108.908C109.326 154.874 109.659 155.007 109.906 155.273C110.172 155.539 110.305 155.862 110.305 156.242V158.237H99.8169V106.309H110.305V108.304C110.305 108.684 110.172 109.007 109.906 109.273C109.659 109.52 109.326 109.644 108.908 109.644H104.092ZM119.614 143.046C120.545 144.3 121.562 145.183 122.664 145.696C123.766 146.209 125.001 146.466 126.369 146.466C129.067 146.466 131.138 145.506 132.582 143.587C134.026 141.668 134.748 138.932 134.748 135.379C134.748 133.498 134.577 131.883 134.235 130.534C133.912 129.185 133.437 128.083 132.81 127.228C132.183 126.354 131.413 125.718 130.501 125.319C129.589 124.92 128.554 124.72 127.395 124.72C125.742 124.72 124.288 125.1 123.034 125.86C121.799 126.62 120.659 127.694 119.614 129.081V143.046ZM119.358 125.604C120.574 124.103 121.98 122.896 123.576 121.984C125.172 121.072 126.996 120.616 129.048 120.616C130.72 120.616 132.23 120.939 133.579 121.585C134.928 122.212 136.078 123.153 137.028 124.407C137.978 125.642 138.709 127.181 139.222 129.024C139.735 130.867 139.992 132.985 139.992 135.379C139.992 137.507 139.707 139.493 139.137 141.336C138.567 143.16 137.74 144.746 136.657 146.095C135.593 147.425 134.282 148.48 132.724 149.259C131.185 150.019 129.447 150.399 127.509 150.399C125.742 150.399 124.222 150.104 122.949 149.515C121.695 148.907 120.583 148.071 119.614 147.007V159.776H114.513V121.129H117.562C118.284 121.129 118.731 121.481 118.902 122.184L119.358 125.604ZM151.708 108.019V150H146.635V108.019H151.708ZM175.581 137.004C173.244 137.08 171.249 137.27 169.596 137.574C167.962 137.859 166.623 138.239 165.578 138.714C164.552 139.189 163.801 139.749 163.326 140.395C162.87 141.041 162.642 141.763 162.642 142.561C162.642 143.321 162.766 143.977 163.013 144.528C163.26 145.079 163.592 145.535 164.01 145.896C164.447 146.238 164.951 146.494 165.521 146.665C166.11 146.817 166.737 146.893 167.402 146.893C168.295 146.893 169.112 146.808 169.853 146.637C170.594 146.447 171.287 146.181 171.933 145.839C172.598 145.497 173.225 145.088 173.814 144.613C174.422 144.138 175.011 143.597 175.581 142.989V137.004ZM159.194 125.205C160.79 123.666 162.509 122.516 164.352 121.756C166.195 120.996 168.238 120.616 170.48 120.616C172.095 120.616 173.529 120.882 174.783 121.414C176.037 121.946 177.092 122.687 177.947 123.637C178.802 124.587 179.448 125.737 179.885 127.086C180.322 128.435 180.54 129.917 180.54 131.532V150H178.289C177.795 150 177.415 149.924 177.149 149.772C176.883 149.601 176.674 149.278 176.522 148.803L175.952 146.067C175.192 146.77 174.451 147.397 173.729 147.948C173.007 148.48 172.247 148.936 171.449 149.316C170.651 149.677 169.796 149.952 168.884 150.143C167.991 150.352 166.993 150.456 165.891 150.456C164.77 150.456 163.716 150.304 162.728 150C161.74 149.677 160.875 149.202 160.134 148.575C159.412 147.948 158.833 147.159 158.396 146.209C157.978 145.24 157.769 144.1 157.769 142.789C157.769 141.649 158.082 140.557 158.709 139.512C159.336 138.448 160.353 137.507 161.759 136.69C163.165 135.873 164.998 135.208 167.259 134.695C169.52 134.164 172.294 133.859 175.581 133.783V131.532C175.581 129.29 175.097 127.599 174.128 126.459C173.159 125.3 171.743 124.72 169.881 124.72C168.627 124.72 167.573 124.882 166.718 125.205C165.882 125.509 165.15 125.86 164.523 126.259C163.915 126.639 163.383 126.991 162.927 127.314C162.49 127.618 162.053 127.77 161.616 127.77C161.274 127.77 160.98 127.684 160.733 127.513C160.486 127.323 160.277 127.095 160.106 126.829L159.194 125.205ZM208.36 126.259C208.208 126.468 208.056 126.63 207.904 126.744C207.752 126.858 207.543 126.915 207.277 126.915C206.992 126.915 206.679 126.801 206.337 126.573C205.995 126.326 205.567 126.06 205.054 125.775C204.56 125.49 203.943 125.233 203.202 125.005C202.48 124.758 201.587 124.635 200.523 124.635C199.098 124.635 197.844 124.891 196.761 125.404C195.678 125.898 194.766 126.62 194.025 127.57C193.303 128.52 192.752 129.67 192.372 131.019C192.011 132.368 191.83 133.878 191.83 135.55C191.83 137.298 192.03 138.856 192.429 140.224C192.828 141.573 193.388 142.713 194.11 143.644C194.851 144.556 195.735 145.259 196.761 145.753C197.806 146.228 198.974 146.466 200.266 146.466C201.501 146.466 202.518 146.323 203.316 146.038C204.114 145.734 204.769 145.402 205.282 145.041C205.814 144.68 206.251 144.357 206.593 144.072C206.954 143.768 207.306 143.616 207.648 143.616C208.066 143.616 208.389 143.777 208.617 144.1L210.042 145.953C209.415 146.732 208.702 147.397 207.904 147.948C207.106 148.499 206.242 148.964 205.311 149.344C204.399 149.705 203.439 149.971 202.432 150.143C201.425 150.314 200.399 150.399 199.354 150.399C197.549 150.399 195.868 150.066 194.31 149.401C192.771 148.736 191.431 147.777 190.291 146.523C189.151 145.25 188.258 143.692 187.612 141.849C186.966 140.006 186.643 137.906 186.643 135.55C186.643 133.403 186.938 131.418 187.527 129.594C188.135 127.77 189.009 126.202 190.149 124.891C191.308 123.561 192.723 122.526 194.395 121.785C196.086 121.044 198.024 120.673 200.209 120.673C202.242 120.673 204.028 121.006 205.567 121.671C207.125 122.317 208.503 123.238 209.7 124.435L208.36 126.259ZM234.309 132.415C234.309 131.237 234.138 130.164 233.796 129.195C233.473 128.207 232.989 127.361 232.343 126.658C231.716 125.936 230.946 125.385 230.034 125.005C229.122 124.606 228.087 124.407 226.928 124.407C224.496 124.407 222.567 125.119 221.142 126.544C219.736 127.95 218.862 129.907 218.52 132.415H234.309ZM238.413 145.953C237.786 146.713 237.036 147.378 236.162 147.948C235.288 148.499 234.347 148.955 233.34 149.316C232.352 149.677 231.326 149.943 230.262 150.114C229.198 150.304 228.144 150.399 227.099 150.399C225.104 150.399 223.261 150.066 221.57 149.401C219.898 148.717 218.444 147.729 217.209 146.438C215.993 145.126 215.043 143.511 214.359 141.592C213.675 139.673 213.333 137.469 213.333 134.98C213.333 132.966 213.637 131.085 214.245 129.337C214.872 127.589 215.765 126.079 216.924 124.806C218.083 123.514 219.499 122.507 221.171 121.785C222.843 121.044 224.724 120.673 226.814 120.673C228.543 120.673 230.139 120.968 231.602 121.557C233.084 122.127 234.357 122.963 235.421 124.065C236.504 125.148 237.349 126.497 237.957 128.112C238.565 129.708 238.869 131.532 238.869 133.584C238.869 134.382 238.784 134.914 238.613 135.18C238.442 135.446 238.119 135.579 237.644 135.579H218.349C218.406 137.403 218.653 138.989 219.09 140.338C219.546 141.687 220.173 142.818 220.971 143.73C221.769 144.623 222.719 145.297 223.821 145.753C224.923 146.19 226.158 146.409 227.526 146.409C228.799 146.409 229.892 146.266 230.804 145.981C231.735 145.677 232.533 145.354 233.198 145.012C233.863 144.67 234.414 144.357 234.851 144.072C235.307 143.768 235.696 143.616 236.019 143.616C236.437 143.616 236.76 143.777 236.988 144.1L238.413 145.953ZM250.202 124.977C251.437 123.666 252.805 122.621 254.306 121.842C255.807 121.063 257.536 120.673 259.493 120.673C261.07 120.673 262.457 120.939 263.654 121.471C264.87 121.984 265.877 122.725 266.675 123.694C267.492 124.644 268.11 125.794 268.528 127.143C268.946 128.492 269.155 129.983 269.155 131.617V150H264.053V131.617C264.053 129.432 263.55 127.741 262.543 126.544C261.555 125.328 260.044 124.72 258.011 124.72C256.51 124.72 255.104 125.081 253.793 125.803C252.501 126.525 251.304 127.504 250.202 128.739V150H245.101V108.019H250.202V124.977ZM289.054 120.673C291.163 120.673 293.063 121.025 294.754 121.728C296.445 122.431 297.889 123.428 299.086 124.72C300.283 126.012 301.195 127.58 301.822 129.423C302.468 131.247 302.791 133.289 302.791 135.55C302.791 137.83 302.468 139.882 301.822 141.706C301.195 143.53 300.283 145.088 299.086 146.38C297.889 147.672 296.445 148.67 294.754 149.373C293.063 150.057 291.163 150.399 289.054 150.399C286.926 150.399 285.007 150.057 283.297 149.373C281.606 148.67 280.162 147.672 278.965 146.38C277.768 145.088 276.847 143.53 276.201 141.706C275.574 139.882 275.26 137.83 275.26 135.55C275.26 133.289 275.574 131.247 276.201 129.423C276.847 127.58 277.768 126.012 278.965 124.72C280.162 123.428 281.606 122.431 283.297 121.728C285.007 121.025 286.926 120.673 289.054 120.673ZM289.054 146.438C291.904 146.438 294.032 145.487 295.438 143.587C296.844 141.668 297.547 138.999 297.547 135.579C297.547 132.14 296.844 129.461 295.438 127.542C294.032 125.623 291.904 124.663 289.054 124.663C287.61 124.663 286.347 124.91 285.264 125.404C284.2 125.898 283.307 126.611 282.585 127.542C281.882 128.473 281.35 129.622 280.989 130.99C280.647 132.339 280.476 133.869 280.476 135.579C280.476 138.999 281.179 141.668 282.585 143.587C284.01 145.487 286.166 146.438 289.054 146.438ZM314.47 108.019V150H309.397V108.019H314.47ZM341.506 127.998C340.556 126.725 339.53 125.841 338.428 125.347C337.326 124.834 336.091 124.578 334.723 124.578C332.044 124.578 329.983 125.537 328.539 127.456C327.095 129.375 326.373 132.111 326.373 135.664C326.373 137.545 326.534 139.16 326.857 140.509C327.18 141.839 327.655 142.941 328.282 143.815C328.909 144.67 329.679 145.297 330.591 145.696C331.503 146.095 332.538 146.295 333.697 146.295C335.369 146.295 336.823 145.915 338.058 145.155C339.312 144.395 340.461 143.321 341.506 141.934V127.998ZM346.579 108.019V150H343.558C342.836 150 342.38 149.648 342.19 148.945L341.734 145.44C340.499 146.922 339.093 148.119 337.516 149.031C335.939 149.943 334.115 150.399 332.044 150.399C330.391 150.399 328.89 150.085 327.541 149.458C326.192 148.812 325.043 147.872 324.093 146.637C323.143 145.402 322.411 143.863 321.898 142.02C321.385 140.177 321.129 138.058 321.129 135.664C321.129 133.536 321.414 131.56 321.984 129.736C322.554 127.893 323.371 126.297 324.435 124.948C325.499 123.599 326.8 122.545 328.339 121.785C329.897 121.006 331.645 120.616 333.583 120.616C335.35 120.616 336.861 120.92 338.115 121.528C339.388 122.117 340.518 122.944 341.506 124.008V108.019H346.579ZM373.915 132.415C373.915 131.237 373.744 130.164 373.402 129.195C373.079 128.207 372.594 127.361 371.948 126.658C371.321 125.936 370.552 125.385 369.64 125.005C368.728 124.606 367.692 124.407 366.533 124.407C364.101 124.407 362.173 125.119 360.748 126.544C359.342 127.95 358.468 129.907 358.126 132.415H373.915ZM378.019 145.953C377.392 146.713 376.641 147.378 375.767 147.948C374.893 148.499 373.953 148.955 372.946 149.316C371.958 149.677 370.932 149.943 369.868 150.114C368.804 150.304 367.749 150.399 366.704 150.399C364.709 150.399 362.866 150.066 361.175 149.401C359.503 148.717 358.05 147.729 356.815 146.438C355.599 145.126 354.649 143.511 353.965 141.592C353.281 139.673 352.939 137.469 352.939 134.98C352.939 132.966 353.243 131.085 353.851 129.337C354.478 127.589 355.371 126.079 356.53 124.806C357.689 123.514 359.104 122.507 360.776 121.785C362.448 121.044 364.329 120.673 366.419 120.673C368.148 120.673 369.744 120.968 371.207 121.557C372.689 122.127 373.962 122.963 375.026 124.065C376.109 125.148 376.955 126.497 377.563 128.112C378.171 129.708 378.475 131.532 378.475 133.584C378.475 134.382 378.389 134.914 378.218 135.18C378.047 135.446 377.724 135.579 377.249 135.579H357.955C358.012 137.403 358.259 138.989 358.696 140.338C359.152 141.687 359.779 142.818 360.577 143.73C361.375 144.623 362.325 145.297 363.427 145.753C364.529 146.19 365.764 146.409 367.132 146.409C368.405 146.409 369.497 146.266 370.409 145.981C371.34 145.677 372.138 145.354 372.803 145.012C373.468 144.67 374.019 144.357 374.456 144.072C374.912 143.768 375.302 143.616 375.625 143.616C376.043 143.616 376.366 143.777 376.594 144.1L378.019 145.953ZM389.523 126.915C390.435 124.939 391.556 123.4 392.886 122.298C394.216 121.177 395.84 120.616 397.759 120.616C398.367 120.616 398.947 120.683 399.498 120.816C400.068 120.949 400.571 121.158 401.008 121.443L400.638 125.233C400.524 125.708 400.239 125.946 399.783 125.946C399.517 125.946 399.127 125.889 398.614 125.775C398.101 125.661 397.522 125.604 396.876 125.604C395.964 125.604 395.147 125.737 394.425 126.003C393.722 126.269 393.085 126.668 392.515 127.2C391.964 127.713 391.461 128.359 391.005 129.138C390.568 129.898 390.169 130.772 389.808 131.76V150H384.706V121.129H387.613C388.164 121.129 388.544 121.234 388.753 121.443C388.962 121.652 389.105 122.013 389.181 122.526L389.523 126.915ZM412.202 158.237H401.714V156.242C401.714 155.862 401.838 155.539 402.085 155.273C402.351 155.007 402.693 154.874 403.111 154.874H407.927V109.644H403.111C402.693 109.644 402.351 109.52 402.085 109.273C401.838 109.007 401.714 108.684 401.714 108.304V106.309H412.202V158.237Z" fill="#A05C2A"/>
</svg>
