<svg width="512" height="256" viewBox="0 0 512 256" fill="none" xmlns="http://www.w3.org/2000/svg">
<path d="M124.521 87.9629C124.633 87.5547 124.818 87.2393 125.078 87.0166C125.523 86.6084 126.238 86.126 127.221 85.5693C127.555 85.3838 127.741 85.291 127.778 85.291C127.852 85.291 127.991 85.3931 128.195 85.5972C128.288 85.7085 128.437 85.8198 128.641 85.9312C128.715 86.3765 128.761 86.6641 128.78 86.7939C128.873 87.2764 128.919 87.564 128.919 87.6567C128.919 88.0093 128.882 88.4268 128.808 88.9092L128.891 88.9927C129.448 88.8813 129.782 88.7793 129.893 88.6865C130.042 88.6309 130.292 88.3525 130.645 87.8516C131.034 87.8145 131.294 87.731 131.424 87.6011C131.461 87.564 131.6 87.397 131.841 87.1001C132.621 86.6733 133.261 86.4043 133.762 86.293C134.541 86.0889 135.153 85.8755 135.599 85.6528C135.617 85.6343 135.664 85.625 135.738 85.625C136.127 85.625 136.322 85.9868 136.322 86.7104H137.129V85.9312C137.538 85.7085 137.964 85.5879 138.41 85.5693C138.855 85.4766 139.096 85.4302 139.133 85.4302C139.653 85.4302 140.126 85.7271 140.553 86.3208C140.646 86.4507 140.868 87.0537 141.221 88.1299C141.276 88.334 141.416 88.436 141.638 88.436C141.731 88.436 141.972 88.1855 142.362 87.6846C142.566 87.4434 142.956 87.2114 143.531 86.9888C144.774 86.2466 145.498 85.8755 145.702 85.8755C145.72 85.8755 146.026 85.9219 146.62 86.0146L147.511 85.7642L148.986 85.7085L149.849 85.625L150.878 85.9868L151.797 86.2651C152.465 86.6177 152.873 86.8867 153.021 87.0723L153.105 87.7402C152.827 87.7959 152.688 87.9351 152.688 88.1577C152.688 88.269 152.734 88.4175 152.827 88.603H153.411C153.504 88.9556 153.56 89.5122 153.578 90.2729L153.801 91.1079V94.0303V94.4478C153.801 94.6333 153.634 95.0137 153.3 95.5889C153.226 95.7002 153.188 95.8579 153.188 96.062C153.188 96.229 153.309 96.7114 153.55 97.5093C153.587 97.6392 153.606 97.7876 153.606 97.9546C153.606 98.0474 153.578 98.2886 153.522 98.6782C153.522 98.6968 153.522 98.7246 153.522 98.7617C153.522 98.9102 153.587 99.5967 153.717 100.821L153.161 101.267V101.851C153.253 101.833 153.337 101.823 153.411 101.823C153.522 101.823 153.625 101.897 153.717 102.046C153.699 102.528 153.68 102.844 153.662 102.992C153.643 103.233 153.634 103.428 153.634 103.577C153.634 103.948 153.773 104.43 154.051 105.024C153.643 105.376 153.049 105.71 152.27 106.026C151.305 106.712 150.749 107.056 150.6 107.056C150.396 107.056 150.155 107.028 149.876 106.972C149.839 106.545 149.821 106.156 149.821 105.803C149.821 105.525 149.914 104.978 150.099 104.161C150.136 103.994 150.155 103.836 150.155 103.688C150.155 103.614 150.099 103.178 149.988 102.38C149.969 102.306 149.96 102.231 149.96 102.157C149.96 102.083 150.043 101.424 150.21 100.181L150.266 99.0957C150.619 98.4277 150.795 98.001 150.795 97.8154C150.795 97.6855 150.609 97.3794 150.238 96.897C150.201 96.8599 150.183 96.832 150.183 96.8135L151.212 96.229L151.713 95.9229L150.183 94.7261C150.479 94.2622 150.684 93.6685 150.795 92.9448C150.405 92.6108 150.201 92.3975 150.183 92.3047C149.96 90.8203 149.774 89.8833 149.626 89.4937C149.273 89.1226 148.763 88.4639 148.095 87.5176C147.891 87.2393 147.372 87.1001 146.537 87.1001C146.073 87.1001 145.692 87.165 145.396 87.2949L144.366 87.8237L143.893 87.9629L143.392 88.4639C142.872 88.7236 142.501 89.002 142.278 89.2988C141.944 89.7998 141.675 90.1987 141.471 90.4956V92.4438C140.989 92.6294 140.748 92.8428 140.748 93.084C140.748 93.2881 140.961 93.5015 141.388 93.7241C141.443 94.5405 141.48 95.0786 141.499 95.3384C141.573 96.229 141.61 96.9619 141.61 97.5371C141.61 97.7598 141.583 98.0752 141.527 98.4834L140.775 98.3721L140.608 98.5112C140.646 98.6782 140.85 99.0215 141.221 99.541C141.332 99.708 141.388 99.875 141.388 100.042V100.599C141.369 101.062 141.351 101.35 141.332 101.461H141.388C141.685 102.538 141.833 103.669 141.833 104.857C141.833 105.117 141.666 105.367 141.332 105.608C141.221 105.683 140.859 105.915 140.247 106.304C139.115 106.731 138.512 106.944 138.438 106.944C138.419 106.944 138.373 106.935 138.298 106.917C138.15 106.638 138.076 106.388 138.076 106.165V106.137C138.057 105.877 138.076 105.497 138.131 104.996C138.168 104.477 138.187 103.669 138.187 102.575C138.187 101.87 138.233 101.313 138.326 100.905H138.41L138.883 100.432C138.883 100.116 138.836 99.8657 138.744 99.6802L138.382 98.6782L138.076 97.9824L138.104 97.5371C138.141 96.7393 138.178 96.2568 138.215 96.0898C138.79 95.6816 139.078 95.3105 139.078 94.9766C139.078 94.624 138.781 94.4106 138.187 94.3364C138.113 93.9097 138.076 92.8984 138.076 91.3027C137.853 90.2637 137.677 89.6235 137.547 89.3823C137.324 89.0483 136.981 88.8906 136.517 88.9092H136.434L135.654 89.104V88.9648L135.098 88.2969C134.745 88.5566 134.522 88.6958 134.43 88.7144L133.094 89.0205C132.147 89.373 131.619 89.5586 131.507 89.5771C131.322 89.5957 130.997 89.6328 130.533 89.6885C130.088 90.3379 129.717 91.0244 129.42 91.748C129.271 92.1377 129.197 92.3789 129.197 92.4717V93.6963L129.03 94.6704L129.197 95.6724V95.7002C129.142 96.2383 129.104 96.7485 129.086 97.231L128.362 97.6484C128.845 98.2236 129.095 98.5854 129.114 98.7339C129.151 98.9009 129.169 99.4111 129.169 100.265L129.114 101.183C129.114 101.22 129.123 101.322 129.142 101.489C129.197 102.213 129.234 102.872 129.253 103.465C129.271 104.393 129.336 105.145 129.448 105.72C129.04 105.868 128.279 106.276 127.166 106.944C126.98 107.056 126.757 107.111 126.498 107.111C126.312 107.111 126.071 107.074 125.774 107C125.755 106.87 125.746 106.796 125.746 106.777L125.802 105.748L125.774 104.245V102.797L125.718 102.213C125.718 102.12 125.904 101.823 126.275 101.322C126.293 101.304 126.303 101.276 126.303 101.239C126.303 101.09 126.108 100.933 125.718 100.766C125.681 100.469 125.663 100.2 125.663 99.9585C125.663 99.7544 125.904 99.272 126.386 98.5112C126.423 98.4741 126.442 98.2236 126.442 97.7598H125.969C125.802 97.2217 125.718 96.7949 125.718 96.4795C125.718 96.127 125.774 95.3662 125.885 94.1973H126.108L126.247 94.0581C126.229 93.6499 126.21 93.3716 126.191 93.2231C126.173 92.5923 126.034 92.0635 125.774 91.6367C125.718 91.5254 125.653 90.9409 125.579 89.8833C125.542 89.4565 125.412 88.8906 125.189 88.1855C124.948 88.167 124.726 88.0928 124.521 87.9629ZM166.242 97.0083C166.464 96.6558 166.678 96.4146 166.882 96.2847C167.03 96.1919 167.587 96.0435 168.552 95.8394C169.257 95.4868 169.73 95.2734 169.971 95.1992C170.138 95.1621 170.695 95.0972 171.641 95.0044L172.532 94.6982L173.061 94.6426L173.562 94.5869H174.647L176.846 94.3086C177.495 94.2529 177.903 94.1694 178.07 94.0581C178.404 93.8169 178.571 93.4644 178.571 93.0005C178.571 92.9077 178.497 92.6108 178.349 92.1099L179.796 90.3008C179.796 90.2822 179.221 90.0967 178.07 89.7441C177.978 89.707 177.699 89.6885 177.235 89.6885C176.438 88.668 175.964 88.1021 175.816 87.9907C175.63 87.9165 174.925 87.7866 173.701 87.6011H172.81C172.402 87.4897 172.133 87.4341 172.003 87.4341C171.854 87.4341 171.641 87.4526 171.363 87.4897L170.834 86.8218C170.426 86.9702 170.11 87.1743 169.888 87.4341C169.702 87.6382 169.415 87.8145 169.025 87.9629C168.06 88.3711 167.262 88.8257 166.631 89.3267L166.242 89.5771C166 89.9297 165.843 90.1245 165.769 90.1616C165.546 90.2915 165.286 90.3564 164.989 90.3564C164.878 90.3564 164.535 90.2544 163.959 90.0503C163.329 89.9019 162.939 89.7812 162.791 89.6885C162.624 89.5771 162.41 89.3452 162.15 88.9927C162.466 88.7515 162.688 88.5752 162.818 88.4639C163.134 88.1855 163.347 88.0371 163.458 88.0186L164.767 87.7124L165.602 87.2671L167.383 86.7104L168.496 86.2373H169.637L170.89 85.8755L171.418 85.8477L172.393 85.6807C173.302 85.6992 173.877 85.7085 174.118 85.7085C174.378 85.7271 174.879 85.8569 175.621 86.0981L176.289 86.1816C177.013 86.3115 177.523 86.4043 177.82 86.46C178.08 86.4785 178.414 86.6826 178.822 87.0723C178.506 87.3506 178.349 87.5825 178.349 87.7681C178.349 88.0278 178.46 88.1577 178.683 88.1577C178.831 88.1577 179.044 88.0835 179.323 87.9351C179.508 87.8608 179.768 87.7773 180.102 87.6846C180.343 87.9258 180.473 88.2412 180.492 88.6309L181.188 89.1318C181.225 89.3359 181.243 89.4658 181.243 89.5215L181.16 90.6069C181.364 91.4233 181.568 91.9336 181.772 92.1377H181.883C181.939 92.5459 182.013 92.9912 182.106 93.4736C182.162 94.5498 182.199 95.2642 182.217 95.6167C181.791 95.8765 181.577 96.127 181.577 96.3682C181.577 96.6465 181.828 96.897 182.329 97.1196C182.347 97.3608 182.356 97.5649 182.356 97.7319C182.356 97.8989 182.319 98.2236 182.245 98.7061C182.227 98.9102 182.217 99.1143 182.217 99.3184C182.217 99.9307 182.319 100.691 182.523 101.601C182.189 101.935 182.022 102.269 182.022 102.603C182.022 102.881 182.18 103.243 182.496 103.688C182.533 103.762 182.598 103.938 182.69 104.217C182.746 104.347 182.848 104.597 182.997 104.968C182.792 105.209 182.644 105.441 182.551 105.664C182.403 105.794 182.115 105.942 181.688 106.109L180.631 106.583L179.963 106.777C179.276 107.019 178.896 107.139 178.822 107.139C178.636 107.139 178.432 107.037 178.209 106.833L178.627 104.968C178.089 105.098 177.31 105.386 176.289 105.831L175.482 105.998C175 106.109 174.749 106.165 174.73 106.165L173.701 106.054L172.671 106.583L172.114 106.638L169.86 107.111L168.691 107.028C168.116 107.232 167.726 107.334 167.522 107.334C167.262 107.334 166.539 107.213 165.351 106.972L164.182 106.861L163.319 106.499C162.67 106.258 162.188 106.017 161.872 105.775C161.594 105.571 161.371 105.219 161.204 104.718L160.564 104.495C160.49 104.31 160.406 103.976 160.313 103.493L160.035 102.296V102.269C160.017 102.102 160.137 101.833 160.397 101.461C160.601 101.183 160.861 100.71 161.176 100.042C162.085 99.1514 162.688 98.5762 162.985 98.3164C163.245 98.1123 163.83 97.8247 164.739 97.4536C165.258 97.1196 165.583 96.9526 165.713 96.9526C165.861 96.9526 166.038 96.9712 166.242 97.0083ZM164.516 102.909C164.368 103.15 164.229 103.4 164.099 103.66C163.895 103.994 163.802 104.217 163.82 104.328L164.099 104.857L164.878 104.189C165.509 104.634 165.945 104.875 166.186 104.913C166.873 105.098 167.244 105.2 167.299 105.219C167.411 105.293 167.568 105.488 167.772 105.803C168.199 105.859 168.487 105.896 168.635 105.915C168.784 105.933 168.904 105.942 168.997 105.942C169.201 105.942 169.452 105.812 169.749 105.553C170.008 105.738 170.231 105.831 170.417 105.831C170.454 105.831 170.658 105.71 171.029 105.469L171.808 105.636C171.808 105.636 172.309 105.46 173.311 105.107L174.035 104.773L174.647 104.885L175.705 104.439L176.929 103.966C177.245 103.484 177.439 103.206 177.514 103.131C177.681 102.964 178.005 102.816 178.488 102.686L178.655 101.795C178.989 101.61 179.193 101.35 179.267 101.016C179.007 100.831 178.822 100.636 178.71 100.432C178.729 100.116 178.738 99.8843 178.738 99.7358V99.2905C178.72 98.7896 178.701 98.3628 178.683 98.0103C178.664 97.8989 178.655 97.7969 178.655 97.7041C178.655 97.4814 178.729 97.1567 178.877 96.73C178.71 96.7114 178.497 96.6001 178.237 96.396L177.041 96.4238L175.955 96.3682L175.12 96.396H174.591C174.517 96.396 174.239 96.2476 173.756 95.9507L173.144 96.1455C172.402 96.1455 171.854 96.2012 171.502 96.3125C171.279 96.4053 171.094 96.4517 170.945 96.4517C170.908 96.4517 170.695 96.396 170.305 96.2847C170.287 96.2847 170.268 96.2847 170.25 96.2847C170.157 96.2847 169.86 96.4517 169.359 96.7856C169.285 96.8413 168.802 97.0269 167.912 97.3423C166.724 97.8618 165.871 98.3535 165.351 98.8174C165.295 98.873 165.091 99.1514 164.739 99.6523C164.627 99.8193 164.303 99.9771 163.765 100.125C163.69 100.255 163.653 100.357 163.653 100.432C163.653 100.487 163.728 100.599 163.876 100.766L164.071 102.269C164.108 102.398 164.256 102.612 164.516 102.909ZM189.788 62.4131C190.196 62.2275 191.086 61.6616 192.459 60.7153C193.127 60.5112 193.656 60.2979 194.046 60.0752C194.231 60.1309 194.324 60.2422 194.324 60.4092C194.324 60.4648 194.204 60.9194 193.962 61.7729C193.944 61.8101 193.935 61.875 193.935 61.9678V62.1626V62.3574L194.046 66.0312C194.083 66.1797 193.628 66.458 192.682 66.8662C192.144 67.1074 191.875 67.4229 191.875 67.8125C191.875 68.3506 192.626 69.1484 194.129 70.2061L193.267 70.4565L193.322 72.9058C193.489 72.9985 193.601 73.0449 193.656 73.0449C194.009 73.1377 194.185 73.249 194.185 73.3789C194.185 73.5273 194.148 73.8242 194.074 74.2695C194.055 74.3809 194.046 74.4736 194.046 74.5479C194.046 74.6406 194.111 75.1509 194.241 76.0786V83.8159C194.241 84.0942 194.167 84.5117 194.018 85.0684C193.981 85.1982 193.962 85.3652 193.962 85.5693C193.962 86.1445 194.185 86.6919 194.63 87.2114C194.63 87.3784 194.612 87.564 194.575 87.7681C194.519 88.0464 194.491 88.2876 194.491 88.4917V88.5195C194.491 89.4473 194.528 89.9946 194.603 90.1616C194.695 90.3657 194.742 90.4678 194.742 90.4678L193.016 92.6665L194.63 93.6963C194.463 94.7168 194.38 95.2456 194.38 95.2827C194.38 95.561 194.51 95.9414 194.77 96.4238C194.955 96.3496 195.391 96.0249 196.078 95.4497L197.775 94.2529L200.392 91.5254L201.421 90.5234L202.089 89.8276L203.787 88.1021C204.752 86.9146 205.364 86.2002 205.624 85.959C206.478 85.2168 207.201 84.7158 207.795 84.4561C208.055 84.7344 208.417 84.9756 208.88 85.1797C208.917 85.4209 208.936 85.6064 208.936 85.7363C208.936 86.3115 208.704 86.8218 208.24 87.2671C207.98 87.5269 207.572 87.6938 207.016 87.7681C206.626 88.3062 206.311 88.5845 206.069 88.603C205.568 88.6587 205.225 88.7515 205.04 88.8813C205.114 89.1968 205.151 89.4658 205.151 89.6885C205.151 90.041 204.761 90.4678 203.982 90.9688C203.629 91.1914 203.379 91.377 203.23 91.5254C202.952 91.7852 202.767 91.9429 202.674 91.9985C202.637 92.0542 202.405 92.0913 201.978 92.1099C201.904 92.4624 201.811 92.7222 201.7 92.8892C201.644 92.9448 201.282 93.1768 200.614 93.585C199.464 94.5498 198.796 95.1157 198.61 95.2827C198.406 95.4683 198.258 95.7188 198.165 96.0342C198.963 96.9062 199.603 97.4907 200.085 97.7876C201.458 98.6597 202.154 99.1514 202.173 99.2627C202.266 99.5967 202.433 99.8657 202.674 100.07C202.655 100.163 202.646 100.246 202.646 100.32C202.646 100.469 202.748 100.636 202.952 100.821C203.546 101.322 203.861 101.582 203.898 101.601C204.27 101.489 204.557 101.369 204.761 101.239C206.394 101.981 207.526 102.436 208.157 102.603L208.073 103.271C208.426 103.567 208.704 103.716 208.908 103.716C208.982 103.716 209.242 103.632 209.688 103.465L210.467 103.799C210.801 103.911 211.023 104.05 211.135 104.217C211.413 104.161 211.654 104.133 211.858 104.133C211.914 104.133 211.979 104.143 212.053 104.161C212.369 104.235 212.536 104.272 212.554 104.272C212.554 104.272 212.851 104.17 213.445 103.966L213.584 104.105C213.603 104.161 213.612 104.198 213.612 104.217C213.612 104.272 213.463 104.699 213.167 105.497C212.944 106.091 212.48 106.564 211.775 106.917C211.571 106.991 211.125 107.046 210.439 107.083C209.882 107.306 209.567 107.417 209.493 107.417C209.363 107.417 208.964 107.288 208.296 107.028C207.164 106.731 206.45 106.508 206.153 106.36C205.578 106.082 205.207 105.896 205.04 105.803C205.095 105.562 205.123 105.358 205.123 105.191C205.123 105.061 205.086 104.95 205.012 104.857C204.845 104.634 204.65 104.523 204.427 104.523C204.409 104.523 204.381 104.523 204.344 104.523C203.694 104.634 203.36 104.69 203.342 104.69C203.212 104.69 203.008 104.56 202.729 104.3C202.34 103.966 201.83 103.586 201.199 103.159L199.724 101.907L198.805 101.601C198.211 100.988 197.302 100.19 196.078 99.207C195.335 98.7061 194.918 98.4556 194.825 98.4556C194.584 98.4556 194.463 98.604 194.463 98.9009C194.463 99.0493 194.5 99.2534 194.575 99.5132C194.649 99.8472 194.686 100.756 194.686 102.241L194.992 104.801C194.992 104.801 194.974 104.95 194.937 105.247C194.918 105.414 194.899 105.664 194.881 105.998C194.621 106.202 194.473 106.313 194.436 106.332C194.398 106.351 193.99 106.453 193.211 106.638C192.469 106.824 191.782 107.074 191.151 107.39L190.873 106.61V106.583C191.133 105.228 191.309 103.929 191.402 102.686L191.541 98.7061L192.125 98.7896L192.459 97.9824C191.958 97.6299 191.708 97.3237 191.708 97.064C191.708 96.6929 191.931 96.1362 192.376 95.394L191.569 94.9487C192.571 94.5776 193.072 94.2251 193.072 93.8911C193.072 93.7056 192.896 93.5015 192.543 93.2788C191.856 92.8521 191.495 92.5737 191.458 92.4438C191.458 92.4438 191.467 92.3604 191.485 92.1934C191.522 92.0635 191.541 91.8779 191.541 91.6367V91.6089C191.541 91.5532 191.513 91.2471 191.458 90.6904C191.42 90.4307 191.402 90.0967 191.402 89.6885C191.402 89.4844 191.411 89.1689 191.43 88.7422L192.209 88.1299V87.9351L191.458 87.4062L191.207 82.7583L190.957 80.9492C191.532 80.4482 191.819 80.04 191.819 79.7246C191.819 79.4648 191.541 79.1494 190.984 78.7783C191.059 78.5371 191.096 78.4072 191.096 78.3887C190.743 76.1807 190.567 75.0024 190.567 74.854C190.567 74.687 190.678 73.9727 190.901 72.7109L190.817 72.2378C190.799 71.9966 190.604 71.7739 190.233 71.5698C190.251 71.4214 190.261 71.3008 190.261 71.208C190.261 71.1152 190.187 70.8833 190.038 70.5122L190.094 69.5659C189.927 68.1372 189.843 67.3765 189.843 67.2837C189.843 67.1353 189.853 66.9312 189.871 66.6714C189.89 66.2261 189.899 65.7529 189.899 65.252C189.899 64.8438 189.843 64.5562 189.732 64.3892C189.713 64.3521 189.704 64.3335 189.704 64.3335L189.955 63.3315C189.955 63.3315 189.945 63.313 189.927 63.2759C189.834 63.1089 189.788 62.8213 189.788 62.4131ZM233.428 86.293L234.319 85.7363C234.597 86.0703 234.792 86.2837 234.903 86.3765C234.94 86.4136 235.135 86.5063 235.488 86.6548C235.673 86.7476 236.471 87.5269 237.881 88.9927C238.327 89.4565 238.633 89.8926 238.8 90.3008C238.948 90.6533 239.106 91.0801 239.273 91.5811C239.384 91.8408 239.514 92.1748 239.663 92.583L239.468 92.7778C239.264 92.7407 238.985 92.6572 238.633 92.5273L237.575 92.917L236.629 92.75L235.794 92.9727C234.644 92.1562 234.041 91.748 233.985 91.748C233.874 91.748 233.438 92.1284 232.677 92.8892C231.489 92.6665 230.858 92.5552 230.784 92.5552C230.487 92.5552 230.135 92.583 229.727 92.6387L229.587 92.5273C229.291 92.5645 228.483 92.583 227.166 92.583L226.136 92.6943L224.856 92.8057L223.548 93.0283L222.379 93.0005C221.303 93.3345 220.57 93.5293 220.18 93.585C220.087 94.2158 219.995 94.6519 219.902 94.8931C219.791 95.1714 219.568 95.4775 219.234 95.8115C219.828 96.2197 220.143 96.5073 220.18 96.6743C220.366 97.8618 220.542 98.6597 220.709 99.0679L221.21 99.3462L221.071 100.376L221.934 100.599C222.119 101.359 222.36 101.87 222.657 102.129C222.936 102.371 223.399 102.538 224.049 102.63C224.142 103.206 224.29 103.549 224.494 103.66C224.643 103.771 224.977 103.846 225.496 103.883L225.969 104.606C226.173 104.569 226.35 104.551 226.498 104.551C226.609 104.551 227.166 104.783 228.168 105.247C228.391 105.358 228.632 105.414 228.892 105.414C229.133 105.414 229.606 105.302 230.311 105.08L232.092 104.885L233.456 104.495C234.105 104.458 234.542 104.402 234.764 104.328C235.08 104.198 235.655 103.874 236.49 103.354C237.306 102.853 237.779 102.51 237.909 102.324C238.243 101.935 238.559 101.489 238.855 100.988C239.004 100.766 239.264 100.654 239.635 100.654C239.802 100.654 240.043 100.775 240.358 101.016C240.229 101.684 240.108 102.12 239.997 102.324C239.217 103.642 238.726 104.514 238.521 104.94C238.28 104.829 238.076 104.773 237.909 104.773C237.798 104.773 237.492 104.959 236.991 105.33C236.657 105.553 236.239 105.683 235.738 105.72C234.588 106.035 233.79 106.221 233.345 106.276C232.584 106.351 232.102 106.416 231.897 106.471C231.322 106.657 231.025 106.75 231.007 106.75L229.365 106.499L228.391 106.666L227.917 106.694C227.472 106.75 227.129 106.777 226.888 106.777C226.646 106.777 225.969 106.712 224.856 106.583C224.503 106.545 224.327 106.527 224.327 106.527L223.743 106.165C222.351 105.738 221.581 105.488 221.433 105.414C221.34 105.358 221.024 105.08 220.486 104.579C220.449 104.542 220.125 104.337 219.512 103.966C218.993 103.651 218.714 103.41 218.677 103.243L218.176 102.352C218.102 102.204 217.787 101.851 217.23 101.294C217.416 100.998 217.508 100.775 217.508 100.626C217.508 100.571 217.267 100.051 216.785 99.0679C216.655 98.8081 216.59 98.0195 216.59 96.7021C216.59 96.2939 216.72 95.626 216.979 94.6982C217.202 93.9746 217.36 93.5571 217.453 93.4458L218.399 92.3325L219.011 91.0244C219.642 90.4307 220.366 89.7627 221.182 89.0205L223.214 87.7681L225.273 86.3486L226.025 86.2095L228.14 85.5415L229.504 85.4302C230.599 85.022 231.202 84.8179 231.313 84.8179C232.352 84.8179 233.057 85.3096 233.428 86.293ZM230.2 90.4678L230.673 91.0522C231.044 90.978 231.294 90.9316 231.424 90.9131C231.925 90.8389 232.426 90.709 232.927 90.5234L234.514 90.6626C234.532 90.6626 234.579 90.5698 234.653 90.3843C234.671 90.2729 234.681 90.1802 234.681 90.106C234.681 89.939 234.569 89.7349 234.347 89.4937C234.31 89.4565 234.217 89.3452 234.068 89.1597C233.623 88.5659 233.345 88.2876 233.233 88.3247L232.315 87.8794C232.204 87.8237 232.027 87.6104 231.786 87.2393C231.248 87.165 230.33 87.1279 229.031 87.1279L228.474 87.1001L227.528 87.6567C227.491 87.6938 226.98 87.8237 225.997 88.0464C225.218 88.3247 224.531 88.5938 223.938 88.8535C223.808 88.9463 223.446 89.2617 222.852 89.7998C222.741 89.8926 222.527 90.0596 222.212 90.3008V90.4678L222.268 90.5234L224.299 91.3306L224.912 91.9429L225.997 90.6348C226.09 90.5605 226.192 90.5234 226.303 90.5234C226.359 90.5234 226.813 90.644 227.667 90.8853C227.686 90.8853 227.704 90.8853 227.723 90.8853C227.964 90.8853 228.493 90.7925 229.309 90.6069C229.495 90.5513 229.792 90.5049 230.2 90.4678ZM263.654 94.9766L262.819 95.4497C262.93 95.9321 263.004 96.2476 263.042 96.396C263.079 96.5815 263.097 96.7021 263.097 96.7578C263.097 96.8691 263.051 97.1104 262.958 97.4814C262.865 97.9082 262.819 98.6318 262.819 99.6523C262.819 99.8008 262.939 100.125 263.181 100.626L263.097 101.545L263.181 102.63C263.236 103.595 263.57 104.272 264.183 104.662C264.424 104.811 265.361 105.126 266.994 105.608C267.643 105.794 268.135 105.887 268.469 105.887C269.434 105.887 270.046 105.757 270.306 105.497L271.447 104.412C271.521 104.319 271.753 104.189 272.143 104.022C272.458 104.282 272.736 104.412 272.978 104.412C273.089 104.412 273.209 104.402 273.339 104.384C273.525 103.994 273.683 103.734 273.812 103.604C273.85 103.567 274.109 103.41 274.592 103.131C274.666 103.057 275.009 102.556 275.622 101.628C276.178 101.165 276.466 100.914 276.484 100.877C276.559 100.766 276.707 100.395 276.93 99.7637C277.097 99.2812 277.189 98.8916 277.208 98.5947C277.208 98.5947 277.208 98.5762 277.208 98.5391C277.171 98.1494 277.152 97.8804 277.152 97.7319V97.6763C277.152 97.5649 277.227 97.2402 277.375 96.7021L276.93 96.4517L276.763 96.062V92.0264C276.763 91.5996 276.67 90.8574 276.484 89.7998C276.484 89.7627 276.484 89.7163 276.484 89.6606C276.484 89.4194 276.67 89.1226 277.041 88.77C276.985 88.5474 276.911 88.4175 276.818 88.3804L276.457 88.2412C276.401 88.2041 276.373 87.9443 276.373 87.4619C276.373 87.4062 276.392 87.2856 276.429 87.1001C276.503 86.7661 276.559 86.4321 276.596 86.0981C276.911 86.2095 277.125 86.2651 277.236 86.2651C277.421 86.2651 277.969 86.0703 278.878 85.6807C279.119 85.5693 279.49 85.4487 279.991 85.3188C280.307 86.2466 280.455 86.8496 280.437 87.1279L280.242 90.2729V92.1099C280.093 93.52 279.973 94.3921 279.88 94.7261L279.323 94.5312C279.138 94.9395 279.045 95.2363 279.045 95.4219C279.045 95.5332 279.054 95.6724 279.073 95.8394L279.963 95.7559C280.019 96.0898 280.047 96.3403 280.047 96.5073L280.019 97.231V97.5093V98.3999V98.8174C280.019 99.4854 279.936 100.172 279.769 100.877C280.028 101.155 280.186 101.35 280.242 101.461C280.279 101.61 280.316 102.074 280.353 102.853C280.372 103.335 280.483 103.725 280.687 104.022C280.817 104.189 281.077 104.365 281.466 104.551C281.355 104.829 281.207 105.042 281.021 105.191C280.928 105.247 280.427 105.46 279.518 105.831C278.665 106.332 278.154 106.583 277.987 106.583C277.802 106.583 277.625 106.48 277.458 106.276C277.217 105.961 277.097 105.553 277.097 105.052C277.097 104.829 277.106 104.551 277.125 104.217C276.772 104.143 276.466 104.105 276.206 104.105C276.076 104.105 275.946 104.133 275.816 104.189C275.779 104.208 275.538 104.43 275.093 104.857L274.536 105.107L273.618 105.636L272.755 105.942C271.586 106.518 270.343 106.833 269.025 106.889C268.376 107.074 267.986 107.167 267.856 107.167C267.745 107.167 267.383 107.046 266.771 106.805C266.715 106.787 266.66 106.777 266.604 106.777C266.437 106.777 266.103 106.907 265.602 107.167L264.795 106.193C264.758 106.174 264.739 106.165 264.739 106.165C264.702 106.165 264.312 106.286 263.57 106.527C263.44 106.564 263.311 106.583 263.181 106.583C262.921 106.583 262.355 106.341 261.483 105.859C261.093 105.636 260.759 105.293 260.481 104.829C260.091 104.124 259.896 103.484 259.896 102.909C259.896 102.723 260.026 102.463 260.286 102.129L259.674 101.851V98.6782C260.045 98.3071 260.23 98.001 260.23 97.7598C260.23 97.6855 260.091 97.3794 259.813 96.8413V94.9209L259.729 93.5571C259.748 93.3345 259.906 93.0747 260.203 92.7778V92.3882L259.507 92.6108C259.618 91.5532 259.674 90.7832 259.674 90.3008C259.674 90.0039 259.665 89.7256 259.646 89.4658L259.59 88.8535C259.572 88.334 259.535 88.0186 259.479 87.9072C259.275 87.3877 259.173 87.1279 259.173 87.1279C259.21 86.9424 259.488 86.7661 260.008 86.5991C260.342 86.4878 260.973 86.2651 261.9 85.9312L262.151 85.8477C262.503 85.6064 262.735 85.4858 262.847 85.4858C263.051 85.4858 263.218 85.5508 263.348 85.6807C263.422 85.7734 263.561 86.1353 263.765 86.7661C263.765 86.8032 263.691 87.0166 263.542 87.4062C263.394 87.833 263.32 88.5566 263.32 89.5771C263.32 89.7627 263.375 90.1802 263.487 90.8296C263.171 91.9058 263.014 92.5552 263.014 92.7778C263.014 93.3345 263.227 94.0674 263.654 94.9766ZM302.591 96.3403L301.867 96.8691C301.144 96.665 300.568 96.563 300.142 96.563C299.641 96.563 299.038 96.6001 298.333 96.6743C298.128 96.2476 297.85 95.9229 297.498 95.7002L296.969 96.396C296.579 96.4517 296.115 96.5537 295.577 96.7021C295.354 96.7578 295.16 96.7856 294.993 96.7856C294.956 96.7856 294.9 96.7764 294.826 96.7578C294.121 96.6094 293.768 96.5352 293.768 96.5352C293.75 96.5352 293.722 96.563 293.685 96.6187L293.156 96.062C292.859 96.1919 292.608 96.2568 292.404 96.2568C292.33 96.2568 292.098 96.1641 291.708 95.9785C291.616 95.9414 291.449 95.8765 291.208 95.7837C289.779 95.2827 289.064 94.4663 289.064 93.3345C289.064 92.3511 289.445 91.377 290.206 90.4121C290.41 90.1338 290.929 89.6421 291.764 88.937L292.321 88.4082L293.629 87.6289C294.965 86.8125 295.948 86.2744 296.579 86.0146C298.026 85.4209 299.186 85.124 300.058 85.124C300.207 85.124 301.042 85.3188 302.563 85.7085L304.01 85.458C304.919 85.5137 305.448 85.5786 305.597 85.6528C305.968 85.8384 306.153 86.0239 306.153 86.2095C306.153 86.395 306.061 86.5806 305.875 86.7661C305.819 86.8032 305.365 87.0815 304.511 87.6011C303.621 88.1392 303.12 88.4082 303.008 88.4082C301.802 88.4082 300.921 88.3247 300.364 88.1577C300.179 87.7681 299.984 87.4526 299.78 87.2114H299.613L299.084 87.7681C298.769 87.7866 298.537 87.7959 298.388 87.7959C298.221 87.7959 298.063 87.7866 297.915 87.7681C297.711 87.7495 297.562 87.7402 297.47 87.7402C297.433 87.7402 297.191 87.7959 296.746 87.9072C296.598 87.7959 296.319 87.7402 295.911 87.7402C295.54 88.0186 294.928 88.3896 294.074 88.8535C293.629 89.0947 293.239 89.4565 292.905 89.939C292.59 90.4214 292.432 90.876 292.432 91.3027C292.432 91.5068 292.608 91.7666 292.961 92.082C293.017 92.1377 293.341 92.2861 293.935 92.5273C294.288 92.6943 294.649 92.8984 295.021 93.1396C295.002 93.2881 294.993 93.4087 294.993 93.5015C294.993 93.8911 295.15 94.0859 295.466 94.0859C295.763 94.0859 296.097 93.8447 296.468 93.3623C296.895 93.418 297.256 93.4458 297.553 93.4458C297.665 93.4458 298.193 93.3623 299.14 93.1953L300.03 93.2788C300.847 93.1675 301.292 93.1118 301.366 93.1118C301.496 93.1118 301.969 93.2417 302.786 93.5015L303.788 93.3901L304.79 94.0859C305.866 94.5869 306.599 95.0601 306.988 95.5054C307.285 95.8765 307.452 96.1733 307.489 96.396L307.684 97.3145C307.944 98.4277 308.074 99.0679 308.074 99.2349C308.074 99.3462 308.037 99.6709 307.962 100.209C307.87 101.396 307.526 101.99 306.933 101.99C306.747 101.99 306.534 101.962 306.292 101.907C306.07 102.834 305.884 103.363 305.736 103.493C304.901 104.458 304.363 105.107 304.122 105.441C303.175 105.571 302.396 105.859 301.784 106.304C301.505 106.527 301.338 106.647 301.283 106.666C301.227 106.685 300.995 106.712 300.587 106.75L298.333 107.362C297.59 107.232 297.182 107.167 297.108 107.167C296.997 107.167 296.44 107.315 295.438 107.612L294.77 107.529C293.879 107.473 293.211 107.399 292.766 107.306C291.801 107.065 291.291 106.889 291.235 106.777L290.345 106.193C289.25 105.525 288.573 105.042 288.313 104.746C287.756 104.096 287.478 103.465 287.478 102.853C287.478 102.723 287.682 102.5 288.09 102.185L288.842 101.489C289.547 100.97 289.955 100.71 290.066 100.71C290.141 100.71 290.206 100.738 290.261 100.793C290.688 101.202 290.901 101.647 290.901 102.129L290.79 103.02V103.048C290.771 103.215 290.818 103.345 290.929 103.438C291.003 103.512 291.337 103.716 291.931 104.05C292.061 104.124 292.228 104.245 292.432 104.412C292.896 104.82 293.137 105.024 293.156 105.024L294.186 105.441L295.132 105.942H296.189L296.857 106.082C297.544 105.877 298.156 105.766 298.694 105.748C299.214 105.729 299.594 105.655 299.835 105.525L300.921 104.996C301.515 104.792 301.858 104.653 301.951 104.579C302.303 104.3 302.767 103.688 303.342 102.742C303.936 101.758 304.233 100.636 304.233 99.374C304.233 99.0957 304.149 98.8359 303.982 98.5947C303.259 97.5 302.795 96.7485 302.591 96.3403ZM331.341 97.0083C331.564 96.6558 331.777 96.4146 331.981 96.2847C332.13 96.1919 332.687 96.0435 333.651 95.8394C334.356 95.4868 334.83 95.2734 335.071 95.1992C335.238 95.1621 335.794 95.0972 336.741 95.0044L337.631 94.6982L338.16 94.6426L338.661 94.5869H339.747L341.945 94.3086C342.595 94.2529 343.003 94.1694 343.17 94.0581C343.504 93.8169 343.671 93.4644 343.671 93.0005C343.671 92.9077 343.597 92.6108 343.448 92.1099L344.896 90.3008C344.896 90.2822 344.32 90.0967 343.17 89.7441C343.077 89.707 342.799 89.6885 342.335 89.6885C341.537 88.668 341.064 88.1021 340.916 87.9907C340.73 87.9165 340.025 87.7866 338.8 87.6011H337.91C337.501 87.4897 337.232 87.4341 337.103 87.4341C336.954 87.4341 336.741 87.4526 336.462 87.4897L335.934 86.8218C335.525 86.9702 335.21 87.1743 334.987 87.4341C334.802 87.6382 334.514 87.8145 334.125 87.9629C333.16 88.3711 332.362 88.8257 331.731 89.3267L331.341 89.5771C331.1 89.9297 330.942 90.1245 330.868 90.1616C330.646 90.2915 330.386 90.3564 330.089 90.3564C329.978 90.3564 329.634 90.2544 329.059 90.0503C328.428 89.9019 328.039 89.7812 327.89 89.6885C327.723 89.5771 327.51 89.3452 327.25 88.9927C327.565 88.7515 327.788 88.5752 327.918 88.4639C328.233 88.1855 328.447 88.0371 328.558 88.0186L329.866 87.7124L330.701 87.2671L332.482 86.7104L333.596 86.2373H334.737L335.989 85.8755L336.518 85.8477L337.492 85.6807C338.401 85.6992 338.977 85.7085 339.218 85.7085C339.478 85.7271 339.979 85.8569 340.721 86.0981L341.389 86.1816C342.112 86.3115 342.623 86.4043 342.919 86.46C343.179 86.4785 343.513 86.6826 343.921 87.0723C343.606 87.3506 343.448 87.5825 343.448 87.7681C343.448 88.0278 343.56 88.1577 343.782 88.1577C343.931 88.1577 344.144 88.0835 344.422 87.9351C344.608 87.8608 344.868 87.7773 345.202 87.6846C345.443 87.9258 345.573 88.2412 345.591 88.6309L346.287 89.1318C346.324 89.3359 346.343 89.4658 346.343 89.5215L346.259 90.6069C346.463 91.4233 346.667 91.9336 346.872 92.1377H346.983C347.039 92.5459 347.113 92.9912 347.206 93.4736C347.261 94.5498 347.298 95.2642 347.317 95.6167C346.89 95.8765 346.677 96.127 346.677 96.3682C346.677 96.6465 346.927 96.897 347.428 97.1196C347.447 97.3608 347.456 97.5649 347.456 97.7319C347.456 97.8989 347.419 98.2236 347.345 98.7061C347.326 98.9102 347.317 99.1143 347.317 99.3184C347.317 99.9307 347.419 100.691 347.623 101.601C347.289 101.935 347.122 102.269 347.122 102.603C347.122 102.881 347.28 103.243 347.595 103.688C347.632 103.762 347.697 103.938 347.79 104.217C347.846 104.347 347.948 104.597 348.096 104.968C347.892 105.209 347.744 105.441 347.651 105.664C347.502 105.794 347.215 105.942 346.788 106.109L345.73 106.583L345.062 106.777C344.376 107.019 343.996 107.139 343.921 107.139C343.736 107.139 343.532 107.037 343.309 106.833L343.727 104.968C343.188 105.098 342.409 105.386 341.389 105.831L340.582 105.998C340.099 106.109 339.849 106.165 339.83 106.165L338.8 106.054L337.771 106.583L337.214 106.638L334.959 107.111L333.791 107.028C333.215 107.232 332.826 107.334 332.622 107.334C332.362 107.334 331.638 107.213 330.451 106.972L329.282 106.861L328.419 106.499C327.77 106.258 327.287 106.017 326.972 105.775C326.693 105.571 326.471 105.219 326.304 104.718L325.664 104.495C325.589 104.31 325.506 103.976 325.413 103.493L325.135 102.296V102.269C325.116 102.102 325.237 101.833 325.497 101.461C325.701 101.183 325.96 100.71 326.276 100.042C327.185 99.1514 327.788 98.5762 328.085 98.3164C328.345 98.1123 328.929 97.8247 329.838 97.4536C330.358 97.1196 330.683 96.9526 330.812 96.9526C330.961 96.9526 331.137 96.9712 331.341 97.0083ZM329.616 102.909C329.467 103.15 329.328 103.4 329.198 103.66C328.994 103.994 328.901 104.217 328.92 104.328L329.198 104.857L329.978 104.189C330.608 104.634 331.044 104.875 331.286 104.913C331.972 105.098 332.343 105.2 332.399 105.219C332.51 105.293 332.668 105.488 332.872 105.803C333.299 105.859 333.586 105.896 333.735 105.915C333.883 105.933 334.004 105.942 334.097 105.942C334.301 105.942 334.551 105.812 334.848 105.553C335.108 105.738 335.331 105.831 335.516 105.831C335.553 105.831 335.757 105.71 336.128 105.469L336.908 105.636C336.908 105.636 337.409 105.46 338.411 105.107L339.134 104.773L339.747 104.885L340.804 104.439L342.029 103.966C342.344 103.484 342.539 103.206 342.613 103.131C342.78 102.964 343.105 102.816 343.587 102.686L343.754 101.795C344.088 101.61 344.292 101.35 344.367 101.016C344.107 100.831 343.921 100.636 343.81 100.432C343.829 100.116 343.838 99.8843 343.838 99.7358V99.2905C343.819 98.7896 343.801 98.3628 343.782 98.0103C343.764 97.8989 343.754 97.7969 343.754 97.7041C343.754 97.4814 343.829 97.1567 343.977 96.73C343.81 96.7114 343.597 96.6001 343.337 96.396L342.14 96.4238L341.055 96.3682L340.22 96.396H339.691C339.617 96.396 339.338 96.2476 338.856 95.9507L338.244 96.1455C337.501 96.1455 336.954 96.2012 336.602 96.3125C336.379 96.4053 336.193 96.4517 336.045 96.4517C336.008 96.4517 335.794 96.396 335.405 96.2847C335.386 96.2847 335.368 96.2847 335.349 96.2847C335.256 96.2847 334.959 96.4517 334.458 96.7856C334.384 96.8413 333.902 97.0269 333.011 97.3423C331.824 97.8618 330.97 98.3535 330.451 98.8174C330.395 98.873 330.191 99.1514 329.838 99.6523C329.727 99.8193 329.402 99.9771 328.864 100.125C328.79 100.255 328.753 100.357 328.753 100.432C328.753 100.487 328.827 100.599 328.976 100.766L329.17 102.269C329.208 102.398 329.356 102.612 329.616 102.909ZM355.277 87.8516C355.388 87.5176 355.564 87.2114 355.806 86.9331C355.991 86.729 356.474 86.4414 357.253 86.0703C358.051 85.5693 358.505 85.3188 358.617 85.3188C358.951 85.3188 359.201 85.4395 359.368 85.6807L359.479 86.1538L359.702 87.0166C359.646 87.2207 359.619 87.3784 359.619 87.4897C359.619 87.6567 359.721 87.8516 359.925 88.0742C360.296 87.9629 360.797 87.731 361.428 87.3784L362.597 86.9888L363.766 86.2095L364.517 85.9033C364.925 85.6992 365.148 85.5972 365.185 85.5972C365.185 85.5972 365.389 85.6343 365.797 85.7085C365.834 85.7085 365.862 85.7085 365.881 85.7085C365.974 85.7085 366.604 85.5137 367.773 85.124C367.903 85.0869 368.182 85.0684 368.608 85.0684C368.924 85.0684 369.146 85.1147 369.276 85.2075C369.295 85.2261 369.49 85.4116 369.861 85.7642C370.083 85.8198 370.213 85.8477 370.25 85.8477C370.288 85.8477 370.557 85.7178 371.058 85.458C371.095 85.4395 371.141 85.4302 371.197 85.4302C371.438 85.4302 371.716 85.5693 372.032 85.8477C372.329 86.1074 372.542 86.5063 372.672 87.0444C372.394 87.3228 371.837 87.7588 371.002 88.3525C370.594 88.8721 370.297 89.1318 370.111 89.1318C369.814 89.1318 369.425 88.835 368.942 88.2412C368.608 88.2783 368.33 88.2969 368.107 88.2969C367.866 88.2969 367.467 88.1855 366.911 87.9629C366.465 87.7959 366.011 87.6846 365.547 87.6289C365.361 88 365.055 88.2041 364.628 88.2412C364.109 88.2783 363.784 88.3154 363.654 88.3525C362.912 88.5752 362.541 88.6865 362.541 88.6865C362.467 88.6865 362.318 88.6216 362.096 88.4917C361.725 88.8257 361.075 89.3267 360.147 89.9946C359.554 90.4214 359.266 91.1729 359.285 92.249V92.3325C359.285 92.5552 359.285 92.8521 359.285 93.2231C359.303 93.5571 359.312 93.8354 359.312 94.0581C359.312 94.2622 359.099 94.5684 358.672 94.9766C358.988 95.3105 359.146 95.5981 359.146 95.8394C359.146 95.9692 359.127 96.127 359.09 96.3125L359.507 96.4238L359.591 97.2588L359.73 102.241L359.619 102.547L358.895 102.937C357.856 103.141 357.336 103.28 357.336 103.354C357.336 103.428 357.921 103.549 359.09 103.716L359.563 103.604C359.749 104.217 359.841 104.634 359.841 104.857C359.841 105.284 359.628 105.618 359.201 105.859C359.034 105.952 358.561 106.044 357.782 106.137C357.633 106.174 357.234 106.406 356.585 106.833C356.474 106.907 356.344 106.944 356.195 106.944C355.75 106.944 355.527 106.75 355.527 106.36C355.527 106.249 355.667 105.72 355.945 104.773C355.982 104.662 356 104.551 356 104.439C356 104.402 355.954 103.985 355.861 103.187C355.861 103.131 355.898 102.974 355.973 102.714L356.641 102.519C356.659 102.352 356.668 102.204 356.668 102.074C356.668 101.833 356.529 101.545 356.251 101.211C356.251 100.951 356.251 100.719 356.251 100.515C356.251 100.348 356.195 99.9121 356.084 99.207C356.14 98.5947 356.167 98.0752 356.167 97.6484C356.854 97.4072 357.197 97.1104 357.197 96.7578C357.197 96.6465 357.169 96.498 357.114 96.3125C356.891 96.3682 356.706 96.396 356.557 96.396C356.427 96.396 356.27 96.3218 356.084 96.1733C356.084 95.8022 356.084 95.394 356.084 94.9487V94.3643V93.6128V93.3901C356.084 93.2417 356.075 93.0747 356.056 92.8892C356.056 92.7036 356.056 92.5552 356.056 92.4438C356.056 92.147 356.177 91.748 356.418 91.2471C356.177 91.043 356.038 90.8667 356 90.7183C355.982 90.6626 355.945 90.0596 355.889 88.9092C355.871 88.6865 355.667 88.334 355.277 87.8516ZM373.507 87.2393C373.655 86.5156 373.906 86.1538 374.258 86.1538H374.286L375.65 86.2373H375.706C376.745 86.0889 377.338 86.0054 377.487 85.9868C377.487 85.6528 377.487 85.4302 377.487 85.3188C377.487 83.5747 377.45 82.146 377.375 81.0327C377.338 80.5503 377.227 80.1143 377.042 79.7246L376.763 79.1401C376.689 78.9917 376.652 78.834 376.652 78.667C376.652 78.3887 376.875 78.0547 377.32 77.665C378.006 77.0342 378.878 76.6167 379.936 76.4126C380.177 75.9116 380.437 75.6611 380.715 75.6611C380.827 75.6611 380.919 75.7075 380.994 75.8003C381.253 76.0786 381.383 76.4404 381.383 76.8857C381.383 76.9043 381.3 78.3701 381.133 81.2832C380.91 82.0439 380.771 82.4893 380.715 82.6191C380.641 82.8789 380.428 83.1479 380.075 83.4263C380.075 83.7974 380.131 84.1592 380.242 84.5117H380.882L380.715 85.9312C381.179 85.9683 382.144 86.1909 383.61 86.5991C383.703 86.6177 384.018 86.627 384.556 86.627C384.89 86.627 385.438 86.5156 386.198 86.293L388.035 86.126C388.981 85.7549 389.538 85.5693 389.705 85.5693C389.946 85.5693 390.243 85.5972 390.596 85.6528C390.559 86.1724 390.503 86.5435 390.429 86.7661C390.354 87.0444 389.77 87.5176 388.675 88.1855C388.416 88.334 388.23 88.4731 388.119 88.603C387.84 88.937 387.692 89.104 387.673 89.104C387.581 89.1782 387.358 89.2153 387.005 89.2153C386.727 89.2153 386.523 89.1782 386.393 89.104L385.252 88.4917L384.556 88.3247L383.721 87.7124L382.302 88.7979L381.077 88.6309C380.984 88.6309 380.799 88.7236 380.521 88.9092C380.669 89.7998 380.743 90.5513 380.743 91.1636C380.743 91.4604 380.734 91.8965 380.715 92.4717C380.029 92.583 379.686 92.8613 379.686 93.3066C379.686 93.4736 379.723 93.6777 379.797 93.9189C380.205 93.9561 380.548 94.0117 380.827 94.0859L380.771 97.5649C380.493 97.4907 380.261 97.4536 380.075 97.4536C379.741 97.4536 379.574 97.5928 379.574 97.8711C379.574 98.0938 379.658 98.3628 379.825 98.6782C380.084 98.5112 380.307 98.4277 380.493 98.4277C380.771 98.4277 380.91 98.604 380.91 98.9565L380.827 100.07V100.125C380.864 100.886 380.892 101.434 380.91 101.768C380.947 102.12 381.059 102.473 381.244 102.825L381.578 103.41C381.615 103.484 381.634 103.595 381.634 103.744C381.634 103.911 381.615 104.124 381.578 104.384C382.153 104.718 382.793 104.885 383.499 104.885C384.092 104.885 384.686 104.736 385.28 104.439C385.762 104.18 386.022 104.031 386.059 103.994L387.59 102.603C388.351 101.972 388.814 101.656 388.981 101.656C389.148 101.656 389.38 101.74 389.677 101.907C389.622 102.259 389.584 102.5 389.566 102.63C389.436 103.595 389.306 104.161 389.176 104.328C389.046 104.477 388.48 104.708 387.479 105.024C386.718 105.414 385.567 105.868 384.027 106.388L383.081 106.694C382.45 107.046 382.088 107.223 381.996 107.223C381.829 107.223 381.643 107.056 381.439 106.722L380.938 106.583L380.632 107.278C380.372 107.315 380.149 107.334 379.964 107.334C379.481 107.334 378.906 107.019 378.238 106.388C377.941 106.091 377.7 105.785 377.515 105.469C377.496 105.451 377.422 105.209 377.292 104.746C377.088 104.133 376.986 103.781 376.986 103.688C376.986 103.521 377.004 103.252 377.042 102.881C377.079 102.584 377.097 101.962 377.097 101.016C377.116 100.404 377.283 99.9399 377.598 99.6245C377.487 99.272 377.431 98.8452 377.431 98.3442C377.338 97.4907 377.283 95.8672 377.264 93.4736C377.709 93.1953 377.932 92.9263 377.932 92.6665C377.932 92.5181 377.914 92.3418 377.876 92.1377L377.069 91.9429L377.014 91.6924V91.6646C377.014 91.5718 377.042 91.377 377.097 91.0801C377.208 90.5977 377.264 89.7627 377.264 88.5752C376.503 88.4082 375.947 88.3247 375.594 88.3247C375.483 88.3247 375 88.3804 374.147 88.4917L373.562 88.5474C373.043 88.7144 372.765 88.7979 372.728 88.7979C372.468 88.7979 372.338 88.6772 372.338 88.436C372.338 88.0649 372.728 87.666 373.507 87.2393ZM176.428 160.963C176.54 160.555 176.725 160.239 176.985 160.017C177.43 159.608 178.145 159.126 179.128 158.569C179.462 158.384 179.647 158.291 179.685 158.291C179.759 158.291 179.898 158.393 180.102 158.597C180.195 158.708 180.343 158.82 180.547 158.931C180.622 159.376 180.668 159.664 180.687 159.794C180.779 160.276 180.826 160.564 180.826 160.657C180.826 161.009 180.789 161.427 180.714 161.909L180.798 161.993C181.354 161.881 181.688 161.779 181.8 161.687C181.948 161.631 182.199 161.353 182.551 160.852C182.941 160.814 183.201 160.731 183.331 160.601C183.368 160.564 183.507 160.397 183.748 160.1C184.527 159.673 185.167 159.404 185.668 159.293C186.448 159.089 187.06 158.875 187.505 158.653C187.524 158.634 187.57 158.625 187.645 158.625C188.034 158.625 188.229 158.987 188.229 159.71H189.036V158.931C189.444 158.708 189.871 158.588 190.316 158.569C190.762 158.477 191.003 158.43 191.04 158.43C191.56 158.43 192.033 158.727 192.459 159.321C192.552 159.451 192.775 160.054 193.127 161.13C193.183 161.334 193.322 161.436 193.545 161.436C193.638 161.436 193.879 161.186 194.269 160.685C194.473 160.443 194.862 160.211 195.438 159.989C196.681 159.247 197.404 158.875 197.608 158.875C197.627 158.875 197.933 158.922 198.527 159.015L199.417 158.764L200.893 158.708L201.755 158.625L202.785 158.987L203.704 159.265C204.372 159.618 204.78 159.887 204.928 160.072L205.012 160.74C204.733 160.796 204.594 160.935 204.594 161.158C204.594 161.269 204.641 161.417 204.733 161.603H205.318C205.411 161.956 205.466 162.512 205.485 163.273L205.708 164.108V167.03V167.448C205.708 167.633 205.541 168.014 205.207 168.589C205.132 168.7 205.095 168.858 205.095 169.062C205.095 169.229 205.216 169.711 205.457 170.509C205.494 170.639 205.513 170.788 205.513 170.955C205.513 171.047 205.485 171.289 205.429 171.678C205.429 171.697 205.429 171.725 205.429 171.762C205.429 171.91 205.494 172.597 205.624 173.821L205.067 174.267V174.851C205.16 174.833 205.244 174.823 205.318 174.823C205.429 174.823 205.531 174.897 205.624 175.046C205.605 175.528 205.587 175.844 205.568 175.992C205.55 176.233 205.541 176.428 205.541 176.577C205.541 176.948 205.68 177.43 205.958 178.024C205.55 178.376 204.956 178.71 204.177 179.026C203.212 179.712 202.655 180.056 202.507 180.056C202.303 180.056 202.062 180.028 201.783 179.972C201.746 179.545 201.728 179.156 201.728 178.803C201.728 178.525 201.82 177.978 202.006 177.161C202.043 176.994 202.062 176.836 202.062 176.688C202.062 176.614 202.006 176.178 201.895 175.38C201.876 175.306 201.867 175.231 201.867 175.157C201.867 175.083 201.95 174.424 202.117 173.181L202.173 172.096C202.525 171.428 202.702 171.001 202.702 170.815C202.702 170.686 202.516 170.379 202.145 169.897C202.108 169.86 202.089 169.832 202.089 169.813L203.119 169.229L203.62 168.923L202.089 167.726C202.386 167.262 202.59 166.668 202.702 165.945C202.312 165.611 202.108 165.397 202.089 165.305C201.867 163.82 201.681 162.883 201.533 162.494C201.18 162.123 200.67 161.464 200.002 160.518C199.798 160.239 199.278 160.1 198.443 160.1C197.979 160.1 197.599 160.165 197.302 160.295L196.272 160.824L195.799 160.963L195.298 161.464C194.779 161.724 194.408 162.002 194.185 162.299C193.851 162.8 193.582 163.199 193.378 163.496V165.444C192.896 165.629 192.654 165.843 192.654 166.084C192.654 166.288 192.868 166.501 193.294 166.724C193.35 167.541 193.387 168.079 193.406 168.338C193.48 169.229 193.517 169.962 193.517 170.537C193.517 170.76 193.489 171.075 193.434 171.483L192.682 171.372L192.515 171.511C192.552 171.678 192.756 172.021 193.127 172.541C193.239 172.708 193.294 172.875 193.294 173.042V173.599C193.276 174.062 193.257 174.35 193.239 174.461H193.294C193.591 175.538 193.74 176.669 193.74 177.857C193.74 178.117 193.573 178.367 193.239 178.608C193.127 178.683 192.766 178.915 192.153 179.304C191.021 179.731 190.418 179.944 190.344 179.944C190.326 179.944 190.279 179.935 190.205 179.917C190.057 179.638 189.982 179.388 189.982 179.165V179.137C189.964 178.877 189.982 178.497 190.038 177.996C190.075 177.477 190.094 176.669 190.094 175.575C190.094 174.87 190.14 174.313 190.233 173.905H190.316L190.79 173.432C190.79 173.116 190.743 172.866 190.65 172.68L190.289 171.678L189.982 170.982L190.01 170.537C190.047 169.739 190.084 169.257 190.122 169.09C190.697 168.682 190.984 168.311 190.984 167.977C190.984 167.624 190.688 167.411 190.094 167.336C190.02 166.91 189.982 165.898 189.982 164.303C189.76 163.264 189.583 162.624 189.454 162.382C189.231 162.048 188.888 161.891 188.424 161.909H188.34L187.561 162.104V161.965L187.004 161.297C186.652 161.557 186.429 161.696 186.336 161.714L185 162.021C184.054 162.373 183.525 162.559 183.414 162.577C183.229 162.596 182.904 162.633 182.44 162.688C181.995 163.338 181.624 164.024 181.327 164.748C181.178 165.138 181.104 165.379 181.104 165.472V166.696L180.937 167.67L181.104 168.672V168.7C181.048 169.238 181.011 169.749 180.993 170.231L180.269 170.648C180.751 171.224 181.002 171.585 181.021 171.734C181.058 171.901 181.076 172.411 181.076 173.265L181.021 174.183C181.021 174.22 181.03 174.322 181.048 174.489C181.104 175.213 181.141 175.872 181.16 176.465C181.178 177.393 181.243 178.145 181.354 178.72C180.946 178.868 180.186 179.276 179.072 179.944C178.887 180.056 178.664 180.111 178.404 180.111C178.219 180.111 177.978 180.074 177.681 180C177.662 179.87 177.653 179.796 177.653 179.777L177.708 178.748L177.681 177.245V175.797L177.625 175.213C177.625 175.12 177.811 174.823 178.182 174.322C178.2 174.304 178.209 174.276 178.209 174.239C178.209 174.09 178.015 173.933 177.625 173.766C177.588 173.469 177.569 173.2 177.569 172.958C177.569 172.754 177.811 172.272 178.293 171.511C178.33 171.474 178.349 171.224 178.349 170.76H177.875C177.708 170.222 177.625 169.795 177.625 169.479C177.625 169.127 177.681 168.366 177.792 167.197H178.015L178.154 167.058C178.135 166.65 178.117 166.372 178.098 166.223C178.08 165.592 177.94 165.063 177.681 164.637C177.625 164.525 177.56 163.941 177.486 162.883C177.449 162.457 177.319 161.891 177.096 161.186C176.855 161.167 176.632 161.093 176.428 160.963ZM218.148 170.008C218.371 169.656 218.584 169.415 218.789 169.285C218.937 169.192 219.494 169.043 220.458 168.839C221.164 168.487 221.637 168.273 221.878 168.199C222.045 168.162 222.602 168.097 223.548 168.004L224.438 167.698L224.967 167.643L225.468 167.587H226.554L228.752 167.309C229.402 167.253 229.81 167.169 229.977 167.058C230.311 166.817 230.478 166.464 230.478 166C230.478 165.908 230.404 165.611 230.255 165.11L231.703 163.301C231.703 163.282 231.127 163.097 229.977 162.744C229.884 162.707 229.606 162.688 229.142 162.688C228.344 161.668 227.871 161.102 227.723 160.991C227.537 160.917 226.832 160.787 225.607 160.601H224.717C224.309 160.49 224.04 160.434 223.91 160.434C223.761 160.434 223.548 160.453 223.27 160.49L222.741 159.822C222.333 159.97 222.017 160.174 221.794 160.434C221.609 160.638 221.321 160.814 220.932 160.963C219.967 161.371 219.169 161.826 218.538 162.327L218.148 162.577C217.907 162.93 217.75 163.125 217.675 163.162C217.453 163.292 217.193 163.356 216.896 163.356C216.785 163.356 216.441 163.254 215.866 163.05C215.235 162.902 214.846 162.781 214.697 162.688C214.53 162.577 214.317 162.345 214.057 161.993C214.373 161.751 214.595 161.575 214.725 161.464C215.041 161.186 215.254 161.037 215.365 161.019L216.673 160.712L217.508 160.267L219.29 159.71L220.403 159.237H221.544L222.796 158.875L223.325 158.848L224.299 158.681C225.208 158.699 225.784 158.708 226.025 158.708C226.285 158.727 226.786 158.857 227.528 159.098L228.196 159.182C228.919 159.312 229.43 159.404 229.727 159.46C229.986 159.479 230.32 159.683 230.729 160.072C230.413 160.351 230.255 160.583 230.255 160.768C230.255 161.028 230.367 161.158 230.589 161.158C230.738 161.158 230.951 161.083 231.229 160.935C231.415 160.861 231.675 160.777 232.009 160.685C232.25 160.926 232.38 161.241 232.398 161.631L233.094 162.132C233.131 162.336 233.15 162.466 233.15 162.521L233.066 163.607C233.271 164.423 233.475 164.934 233.679 165.138H233.79C233.846 165.546 233.92 165.991 234.013 166.474C234.068 167.55 234.105 168.264 234.124 168.617C233.697 168.876 233.484 169.127 233.484 169.368C233.484 169.646 233.734 169.897 234.235 170.12C234.254 170.361 234.263 170.565 234.263 170.732C234.263 170.899 234.226 171.224 234.152 171.706C234.133 171.91 234.124 172.114 234.124 172.318C234.124 172.931 234.226 173.691 234.43 174.601C234.096 174.935 233.929 175.269 233.929 175.603C233.929 175.881 234.087 176.243 234.402 176.688C234.439 176.762 234.504 176.938 234.597 177.217C234.653 177.347 234.755 177.597 234.903 177.968C234.699 178.209 234.551 178.441 234.458 178.664C234.31 178.794 234.022 178.942 233.595 179.109L232.538 179.583L231.87 179.777C231.183 180.019 230.803 180.139 230.729 180.139C230.543 180.139 230.339 180.037 230.116 179.833L230.534 177.968C229.996 178.098 229.216 178.386 228.196 178.831L227.389 178.998C226.906 179.109 226.656 179.165 226.637 179.165L225.607 179.054L224.578 179.583L224.021 179.638L221.767 180.111L220.598 180.028C220.022 180.232 219.633 180.334 219.429 180.334C219.169 180.334 218.445 180.213 217.258 179.972L216.089 179.861L215.226 179.499C214.577 179.258 214.094 179.017 213.779 178.775C213.5 178.571 213.278 178.219 213.111 177.718L212.471 177.495C212.396 177.31 212.313 176.976 212.22 176.493L211.942 175.296V175.269C211.923 175.102 212.044 174.833 212.304 174.461C212.508 174.183 212.768 173.71 213.083 173.042C213.992 172.151 214.595 171.576 214.892 171.316C215.152 171.112 215.736 170.825 216.646 170.454C217.165 170.12 217.49 169.953 217.62 169.953C217.768 169.953 217.944 169.971 218.148 170.008ZM216.423 175.909C216.274 176.15 216.135 176.4 216.005 176.66C215.801 176.994 215.708 177.217 215.727 177.328L216.005 177.857L216.785 177.189C217.416 177.634 217.852 177.875 218.093 177.913C218.779 178.098 219.15 178.2 219.206 178.219C219.317 178.293 219.475 178.488 219.679 178.803C220.106 178.859 220.394 178.896 220.542 178.915C220.69 178.933 220.811 178.942 220.904 178.942C221.108 178.942 221.358 178.812 221.655 178.553C221.915 178.738 222.138 178.831 222.323 178.831C222.36 178.831 222.564 178.71 222.936 178.469L223.715 178.636C223.715 178.636 224.216 178.46 225.218 178.107L225.941 177.773L226.554 177.885L227.611 177.439L228.836 176.966C229.151 176.484 229.346 176.206 229.42 176.131C229.587 175.964 229.912 175.816 230.395 175.686L230.562 174.795C230.896 174.61 231.1 174.35 231.174 174.016C230.914 173.831 230.729 173.636 230.617 173.432C230.636 173.116 230.645 172.884 230.645 172.736V172.291C230.626 171.79 230.608 171.363 230.589 171.01C230.571 170.899 230.562 170.797 230.562 170.704C230.562 170.481 230.636 170.157 230.784 169.73C230.617 169.711 230.404 169.6 230.144 169.396L228.947 169.424L227.862 169.368L227.027 169.396H226.498C226.424 169.396 226.146 169.248 225.663 168.951L225.051 169.146C224.309 169.146 223.761 169.201 223.409 169.312C223.186 169.405 223 169.452 222.852 169.452C222.815 169.452 222.602 169.396 222.212 169.285C222.193 169.285 222.175 169.285 222.156 169.285C222.063 169.285 221.767 169.452 221.266 169.786C221.191 169.841 220.709 170.027 219.818 170.342C218.631 170.862 217.777 171.354 217.258 171.817C217.202 171.873 216.998 172.151 216.646 172.652C216.534 172.819 216.209 172.977 215.671 173.125C215.597 173.255 215.56 173.357 215.56 173.432C215.56 173.487 215.634 173.599 215.783 173.766L215.978 175.269C216.015 175.398 216.163 175.612 216.423 175.909ZM238.354 189.157C238.8 189.083 239.162 188.878 239.44 188.544C239.83 188.062 240.182 187.747 240.498 187.598C241.648 187.134 242.418 186.8 242.808 186.596C243.012 186.837 243.114 187.051 243.114 187.236C243.114 187.44 243.03 187.626 242.863 187.793C242.826 187.849 242.501 188.099 241.889 188.544C241.778 188.619 241.629 188.804 241.444 189.101C241.11 189.602 240.943 190.084 240.943 190.548C240.943 190.66 240.961 190.836 240.999 191.077C240.535 191.281 240.303 191.513 240.303 191.773C240.303 192.014 240.396 192.172 240.581 192.246C240.618 192.265 240.692 192.274 240.804 192.274C240.952 192.292 241.156 192.348 241.416 192.441C241.546 192.868 241.871 193.267 242.39 193.638C243.095 194.157 243.652 194.482 244.06 194.612L244.505 195.335C245.544 195.595 246.222 195.725 246.537 195.725C246.667 195.725 246.853 195.697 247.094 195.642C247.187 195.623 247.27 195.614 247.344 195.614C247.456 195.614 247.873 196.05 248.597 196.922L248.847 196.393C248.921 196.003 249.005 195.809 249.098 195.809L253.022 195.948C253.078 195.948 253.198 195.911 253.384 195.836C253.569 195.762 253.866 195.688 254.274 195.614C256.111 195.28 257.28 195.02 257.781 194.834C258.932 194.389 259.562 194.148 259.674 194.111C259.859 194.074 260.23 194.046 260.787 194.027C260.936 193.879 261.103 193.647 261.288 193.332C261.344 193.257 261.882 192.914 262.902 192.302C263.292 192.005 263.617 191.792 263.876 191.662C263.951 191.42 264.09 191.207 264.294 191.021C264.609 190.762 264.758 190.567 264.739 190.437L264.6 189.407C264.841 188.813 264.971 188.312 264.99 187.904C265.008 187.682 265.036 187.524 265.073 187.431C265.24 186.986 265.324 186.726 265.324 186.652C265.324 186.466 265.129 186.309 264.739 186.179C264.517 185.27 264.257 184.629 263.96 184.258C263.7 183.943 263.57 183.702 263.57 183.535C263.57 183.368 263.589 183.182 263.626 182.978C262.624 182.31 261.316 181.855 259.702 181.614H259.674C259.433 181.614 259.275 181.614 259.201 181.614C259.108 181.633 259.062 181.642 259.062 181.642C258.969 181.642 258.625 181.568 258.032 181.419C257.846 181.382 257.679 181.364 257.531 181.364C257.271 181.364 256.965 181.392 256.612 181.447C256.334 181.503 256.093 181.531 255.889 181.531C255.777 181.531 255.443 181.364 254.887 181.03C254.85 181.011 254.812 181.002 254.775 181.002C254.664 181.002 254.265 181.169 253.579 181.503L252.911 181.614L251.825 181.809L250.378 180.334L249.459 181.753C249.459 181.753 249.283 181.679 248.931 181.531C248.782 181.457 248.625 181.419 248.458 181.419C248.309 181.419 248.142 181.429 247.957 181.447C247.66 181.874 247.326 182.087 246.955 182.087C246.769 182.087 246.314 181.995 245.591 181.809C244.979 181.661 244.394 181.429 243.837 181.113C242.984 180.594 242.511 180.186 242.418 179.889C242.381 179.777 242.325 179.49 242.251 179.026C242.103 178.432 242.028 178.107 242.028 178.052C242.028 177.644 242.316 177.152 242.891 176.577C243.522 175.946 243.93 175.556 244.116 175.408C244.301 175.259 244.645 175.055 245.146 174.795L245.869 174.35C246.611 174.257 247.047 174.183 247.177 174.127C247.307 174.072 247.567 173.896 247.957 173.599V173.487C247.715 173.376 247.511 173.32 247.344 173.32C247.084 173.32 246.797 173.339 246.481 173.376C246.296 173.413 246.138 173.432 246.008 173.432C245.637 173.432 245.062 173.218 244.283 172.792C244.097 172.68 243.986 172.569 243.949 172.458C243.93 172.439 243.856 172.179 243.726 171.678C243.67 171.456 243.485 171.289 243.169 171.177C242.687 171.047 242.446 170.973 242.446 170.955L242.056 170.314C241.704 169.832 241.527 169.498 241.527 169.312C241.527 169.275 241.583 168.858 241.694 168.06C241.713 167.188 241.75 166.687 241.806 166.557C241.843 166.483 242 166.242 242.279 165.833C242.39 165.685 242.446 165.518 242.446 165.333C242.446 165.147 242.362 164.85 242.195 164.442C242.529 164.145 243.012 163.598 243.643 162.8C243.865 162.54 244.329 162.197 245.034 161.77L246.426 160.434C246.593 160.286 246.797 160.193 247.038 160.156C247.335 160.082 247.511 160.026 247.567 159.989C247.641 159.952 247.725 159.84 247.817 159.655C248.226 159.599 249.265 159.339 250.935 158.875L251.881 158.764C252.512 158.634 252.938 158.569 253.161 158.569C253.347 158.569 254.015 158.653 255.165 158.82C255.981 158.82 256.594 158.838 257.002 158.875C257.392 158.486 257.911 158.17 258.561 157.929C258.895 157.799 259.108 157.734 259.201 157.734C259.423 157.734 259.767 157.781 260.23 157.874C260.564 157.948 260.88 157.985 261.177 157.985C261.641 157.985 262.262 157.938 263.042 157.846H263.069C263.236 157.846 263.561 158.05 264.043 158.458C264.396 158.402 264.572 158.189 264.572 157.818C264.572 157.707 264.563 157.577 264.544 157.428C265.138 157.113 265.741 156.807 266.354 156.51C266.409 156.491 266.567 156.473 266.827 156.454C266.994 156.436 267.226 156.38 267.522 156.287C267.652 156.454 267.717 156.593 267.717 156.705C267.717 157.595 267.021 158.328 265.63 158.903C265.593 159.237 265.528 159.479 265.435 159.627C265.342 159.757 265.11 159.952 264.739 160.211C264.331 160.527 263.969 160.712 263.654 160.768C263.134 160.861 262.754 160.907 262.513 160.907C262.383 160.907 262.309 160.889 262.29 160.852L261.399 159.627C261.344 159.553 261.279 159.516 261.205 159.516C260.852 159.516 260.518 159.961 260.203 160.852C260.462 161.13 260.639 161.306 260.731 161.38C261.214 161.807 261.501 162.076 261.594 162.188C261.668 162.299 261.752 162.531 261.845 162.883L262.318 163.273V164.136L262.401 164.247L261.511 164.692V165.054C261.863 165.295 262.04 165.518 262.04 165.722C262.04 166.205 261.631 166.873 260.815 167.726L260.119 168.533L258.672 169.674L258.254 170.37C258.18 170.463 257.939 170.639 257.531 170.899L257.03 171.233C256.288 171.715 255.555 172.059 254.831 172.263C253.829 172.578 253.208 172.745 252.966 172.764C252.521 172.819 252.094 172.912 251.686 173.042C251.705 173.265 251.714 173.459 251.714 173.626C251.714 173.886 251.603 174.146 251.38 174.406C250.526 174.406 249.96 174.434 249.682 174.489C249.422 174.545 248.838 174.749 247.929 175.102C246.63 175.38 245.86 175.584 245.619 175.714C244.895 176.104 244.422 176.54 244.199 177.022C244.106 177.208 244.06 177.31 244.06 177.328C244.171 177.569 244.858 177.801 246.12 178.024C246.491 178.247 246.76 178.543 246.927 178.915C247.409 178.785 247.79 178.72 248.068 178.72L249.682 178.942H249.71C250.025 178.942 250.285 178.915 250.489 178.859C250.712 178.822 250.833 178.803 250.851 178.803C251.018 178.84 251.417 179.295 252.048 180.167C252.215 180.408 252.391 180.529 252.577 180.529C252.669 180.529 252.753 180.464 252.827 180.334C253.198 179.555 253.439 179.119 253.551 179.026C254.256 178.543 254.896 178.302 255.471 178.302L256.445 178.386H256.473L257.781 178.302C257.985 178.321 258.199 178.571 258.421 179.054H258.811L259.229 178.358C259.525 178.339 259.794 178.33 260.036 178.33C260.184 178.33 260.592 178.395 261.26 178.525L262.067 178.581L262.875 178.97C264.155 179.378 264.971 179.675 265.324 179.861C265.305 180.009 265.296 180.139 265.296 180.25C265.296 180.399 265.481 180.705 265.853 181.169L266.771 180.974C267.291 181.234 267.597 181.484 267.689 181.726C267.708 181.781 267.764 181.995 267.856 182.366L268.246 183.451L268.413 184.62L268.636 185.622C268.636 185.641 268.552 186.077 268.385 186.93C268.274 187.542 268.033 188.257 267.662 189.073C267.513 189.389 267.188 189.815 266.688 190.354L266.131 191.355C265.908 191.727 265.76 191.958 265.686 192.051C265.648 192.163 265.5 192.228 265.24 192.246C265.036 192.543 264.86 192.738 264.711 192.831C264.656 192.886 264.34 193.072 263.765 193.387C263.32 193.907 262.986 194.213 262.763 194.306C262.374 194.473 261.789 194.779 261.01 195.224L259.368 195.892L258.588 196.337L257.531 196.616L256.612 197.033L256.195 197.061L255.36 197.228L253.272 197.395C251.844 197.859 251 198.091 250.74 198.091L249.181 197.979H249.153C248.652 197.979 248.393 197.961 248.374 197.924C248.355 197.905 248.179 197.497 247.845 196.699L247.233 197.896L246.064 196.811L244.979 197.952L244.895 197.896L244.45 197.673C243.967 197.321 243.68 197.126 243.587 197.089C243.476 197.07 243.021 197.042 242.223 197.005C241.889 196.987 241.676 196.931 241.583 196.838L240.943 196.421L240.136 195.92L239.523 195.391C238.874 195.094 238.512 194.918 238.438 194.862C238.271 194.77 238.021 194.38 237.687 193.693C237.371 193.025 237.213 192.404 237.213 191.829C237.213 191.476 237.408 190.882 237.798 190.047C237.983 189.639 238.169 189.342 238.354 189.157ZM246.064 168.032C246.027 168.292 246.008 168.515 246.008 168.7C246.008 169.053 246.12 169.312 246.342 169.479C246.454 169.554 246.769 169.637 247.289 169.73C247.938 170.342 248.318 170.676 248.43 170.732C248.968 171.029 249.877 171.177 251.157 171.177C251.436 171.177 251.89 171.084 252.521 170.899L253.189 170.871L255.193 170.036C255.304 169.999 255.573 169.98 256 169.98C256.334 169.572 256.844 169.136 257.531 168.672C257.679 168.561 257.791 168.45 257.865 168.338C257.883 168.32 257.967 168.051 258.115 167.531C258.356 166.956 258.477 166.594 258.477 166.446C258.477 165.871 258.44 165.23 258.366 164.525C258.31 163.857 257.911 163.254 257.169 162.716C256.872 162.494 256.566 162.132 256.25 161.631C256.121 161.427 255.935 161.278 255.694 161.186C255.601 161.148 255.23 161.056 254.581 160.907L254.135 160.657L253.384 160.406L253.133 160.323L251.825 160.712C251.25 160.62 250.916 160.573 250.823 160.573C250.582 160.573 250.072 160.712 249.292 160.991L248.485 161.13C248.355 161.148 248.142 161.278 247.845 161.52C247.604 161.557 247.418 161.64 247.289 161.77C246.973 162.085 246.658 162.41 246.342 162.744C245.897 163.227 245.628 163.533 245.535 163.663C245.442 163.792 245.359 164.164 245.285 164.776C245.173 165.407 245.118 166.028 245.118 166.641C245.118 166.938 245.155 167.151 245.229 167.281C245.359 167.485 245.637 167.735 246.064 168.032ZM267.856 189.157C268.302 189.083 268.664 188.878 268.942 188.544C269.332 188.062 269.684 187.747 270 187.598C271.15 187.134 271.92 186.8 272.31 186.596C272.514 186.837 272.616 187.051 272.616 187.236C272.616 187.44 272.532 187.626 272.365 187.793C272.328 187.849 272.003 188.099 271.391 188.544C271.28 188.619 271.131 188.804 270.946 189.101C270.612 189.602 270.445 190.084 270.445 190.548C270.445 190.66 270.463 190.836 270.5 191.077C270.037 191.281 269.805 191.513 269.805 191.773C269.805 192.014 269.897 192.172 270.083 192.246C270.12 192.265 270.194 192.274 270.306 192.274C270.454 192.292 270.658 192.348 270.918 192.441C271.048 192.868 271.373 193.267 271.892 193.638C272.597 194.157 273.154 194.482 273.562 194.612L274.007 195.335C275.046 195.595 275.724 195.725 276.039 195.725C276.169 195.725 276.354 195.697 276.596 195.642C276.688 195.623 276.772 195.614 276.846 195.614C276.958 195.614 277.375 196.05 278.099 196.922L278.349 196.393C278.423 196.003 278.507 195.809 278.6 195.809L282.524 195.948C282.58 195.948 282.7 195.911 282.886 195.836C283.071 195.762 283.368 195.688 283.776 195.614C285.613 195.28 286.782 195.02 287.283 194.834C288.434 194.389 289.064 194.148 289.176 194.111C289.361 194.074 289.732 194.046 290.289 194.027C290.438 193.879 290.604 193.647 290.79 193.332C290.846 193.257 291.384 192.914 292.404 192.302C292.794 192.005 293.119 191.792 293.378 191.662C293.453 191.42 293.592 191.207 293.796 191.021C294.111 190.762 294.26 190.567 294.241 190.437L294.102 189.407C294.343 188.813 294.473 188.312 294.492 187.904C294.51 187.682 294.538 187.524 294.575 187.431C294.742 186.986 294.826 186.726 294.826 186.652C294.826 186.466 294.631 186.309 294.241 186.179C294.019 185.27 293.759 184.629 293.462 184.258C293.202 183.943 293.072 183.702 293.072 183.535C293.072 183.368 293.091 183.182 293.128 182.978C292.126 182.31 290.818 181.855 289.204 181.614H289.176C288.935 181.614 288.777 181.614 288.703 181.614C288.61 181.633 288.563 181.642 288.563 181.642C288.471 181.642 288.127 181.568 287.534 181.419C287.348 181.382 287.181 181.364 287.033 181.364C286.773 181.364 286.467 181.392 286.114 181.447C285.836 181.503 285.595 181.531 285.391 181.531C285.279 181.531 284.945 181.364 284.389 181.03C284.352 181.011 284.314 181.002 284.277 181.002C284.166 181.002 283.767 181.169 283.081 181.503L282.413 181.614L281.327 181.809L279.88 180.334L278.961 181.753C278.961 181.753 278.785 181.679 278.433 181.531C278.284 181.457 278.126 181.419 277.959 181.419C277.811 181.419 277.644 181.429 277.458 181.447C277.162 181.874 276.828 182.087 276.457 182.087C276.271 182.087 275.816 181.995 275.093 181.809C274.48 181.661 273.896 181.429 273.339 181.113C272.486 180.594 272.013 180.186 271.92 179.889C271.883 179.777 271.827 179.49 271.753 179.026C271.604 178.432 271.53 178.107 271.53 178.052C271.53 177.644 271.818 177.152 272.393 176.577C273.024 175.946 273.432 175.556 273.618 175.408C273.803 175.259 274.146 175.055 274.647 174.795L275.371 174.35C276.113 174.257 276.549 174.183 276.679 174.127C276.809 174.072 277.069 173.896 277.458 173.599V173.487C277.217 173.376 277.013 173.32 276.846 173.32C276.586 173.32 276.299 173.339 275.983 173.376C275.798 173.413 275.64 173.432 275.51 173.432C275.139 173.432 274.564 173.218 273.785 172.792C273.599 172.68 273.488 172.569 273.451 172.458C273.432 172.439 273.358 172.179 273.228 171.678C273.172 171.456 272.987 171.289 272.671 171.177C272.189 171.047 271.948 170.973 271.948 170.955L271.558 170.314C271.206 169.832 271.029 169.498 271.029 169.312C271.029 169.275 271.085 168.858 271.196 168.06C271.215 167.188 271.252 166.687 271.308 166.557C271.345 166.483 271.502 166.242 271.781 165.833C271.892 165.685 271.948 165.518 271.948 165.333C271.948 165.147 271.864 164.85 271.697 164.442C272.031 164.145 272.514 163.598 273.145 162.8C273.367 162.54 273.831 162.197 274.536 161.77L275.928 160.434C276.095 160.286 276.299 160.193 276.54 160.156C276.837 160.082 277.013 160.026 277.069 159.989C277.143 159.952 277.227 159.84 277.319 159.655C277.728 159.599 278.767 159.339 280.437 158.875L281.383 158.764C282.014 158.634 282.44 158.569 282.663 158.569C282.849 158.569 283.517 158.653 284.667 158.82C285.483 158.82 286.096 158.838 286.504 158.875C286.894 158.486 287.413 158.17 288.062 157.929C288.396 157.799 288.61 157.734 288.703 157.734C288.925 157.734 289.269 157.781 289.732 157.874C290.066 157.948 290.382 157.985 290.679 157.985C291.143 157.985 291.764 157.938 292.543 157.846H292.571C292.738 157.846 293.063 158.05 293.545 158.458C293.898 158.402 294.074 158.189 294.074 157.818C294.074 157.707 294.065 157.577 294.046 157.428C294.64 157.113 295.243 156.807 295.855 156.51C295.911 156.491 296.069 156.473 296.329 156.454C296.496 156.436 296.728 156.38 297.024 156.287C297.154 156.454 297.219 156.593 297.219 156.705C297.219 157.595 296.523 158.328 295.132 158.903C295.095 159.237 295.03 159.479 294.937 159.627C294.844 159.757 294.612 159.952 294.241 160.211C293.833 160.527 293.471 160.712 293.156 160.768C292.636 160.861 292.256 160.907 292.015 160.907C291.885 160.907 291.811 160.889 291.792 160.852L290.901 159.627C290.846 159.553 290.781 159.516 290.707 159.516C290.354 159.516 290.02 159.961 289.705 160.852C289.964 161.13 290.141 161.306 290.233 161.38C290.716 161.807 291.003 162.076 291.096 162.188C291.17 162.299 291.254 162.531 291.347 162.883L291.82 163.273V164.136L291.903 164.247L291.013 164.692V165.054C291.365 165.295 291.542 165.518 291.542 165.722C291.542 166.205 291.133 166.873 290.317 167.726L289.621 168.533L288.174 169.674L287.756 170.37C287.682 170.463 287.441 170.639 287.033 170.899L286.532 171.233C285.79 171.715 285.057 172.059 284.333 172.263C283.331 172.578 282.709 172.745 282.468 172.764C282.023 172.819 281.596 172.912 281.188 173.042C281.207 173.265 281.216 173.459 281.216 173.626C281.216 173.886 281.104 174.146 280.882 174.406C280.028 174.406 279.462 174.434 279.184 174.489C278.924 174.545 278.34 174.749 277.431 175.102C276.132 175.38 275.362 175.584 275.121 175.714C274.397 176.104 273.924 176.54 273.701 177.022C273.608 177.208 273.562 177.31 273.562 177.328C273.673 177.569 274.36 177.801 275.622 178.024C275.993 178.247 276.262 178.543 276.429 178.915C276.911 178.785 277.292 178.72 277.57 178.72L279.184 178.942H279.212C279.527 178.942 279.787 178.915 279.991 178.859C280.214 178.822 280.334 178.803 280.353 178.803C280.52 178.84 280.919 179.295 281.55 180.167C281.717 180.408 281.893 180.529 282.079 180.529C282.171 180.529 282.255 180.464 282.329 180.334C282.7 179.555 282.941 179.119 283.053 179.026C283.758 178.543 284.398 178.302 284.973 178.302L285.947 178.386H285.975L287.283 178.302C287.487 178.321 287.701 178.571 287.923 179.054H288.313L288.73 178.358C289.027 178.339 289.296 178.33 289.538 178.33C289.686 178.33 290.094 178.395 290.762 178.525L291.569 178.581L292.376 178.97C293.657 179.378 294.473 179.675 294.826 179.861C294.807 180.009 294.798 180.139 294.798 180.25C294.798 180.399 294.983 180.705 295.354 181.169L296.273 180.974C296.792 181.234 297.099 181.484 297.191 181.726C297.21 181.781 297.266 181.995 297.358 182.366L297.748 183.451L297.915 184.62L298.138 185.622C298.138 185.641 298.054 186.077 297.887 186.93C297.776 187.542 297.535 188.257 297.164 189.073C297.015 189.389 296.69 189.815 296.189 190.354L295.633 191.355C295.41 191.727 295.262 191.958 295.188 192.051C295.15 192.163 295.002 192.228 294.742 192.246C294.538 192.543 294.362 192.738 294.213 192.831C294.158 192.886 293.842 193.072 293.267 193.387C292.822 193.907 292.488 194.213 292.265 194.306C291.875 194.473 291.291 194.779 290.512 195.224L288.87 195.892L288.09 196.337L287.033 196.616L286.114 197.033L285.697 197.061L284.862 197.228L282.774 197.395C281.346 197.859 280.501 198.091 280.242 198.091L278.683 197.979H278.655C278.154 197.979 277.895 197.961 277.876 197.924C277.857 197.905 277.681 197.497 277.347 196.699L276.735 197.896L275.566 196.811L274.48 197.952L274.397 197.896L273.952 197.673C273.469 197.321 273.182 197.126 273.089 197.089C272.978 197.07 272.523 197.042 271.725 197.005C271.391 196.987 271.178 196.931 271.085 196.838L270.445 196.421L269.638 195.92L269.025 195.391C268.376 195.094 268.014 194.918 267.94 194.862C267.773 194.77 267.522 194.38 267.188 193.693C266.873 193.025 266.715 192.404 266.715 191.829C266.715 191.476 266.91 190.882 267.3 190.047C267.485 189.639 267.671 189.342 267.856 189.157ZM275.566 168.032C275.529 168.292 275.51 168.515 275.51 168.7C275.51 169.053 275.622 169.312 275.844 169.479C275.956 169.554 276.271 169.637 276.791 169.73C277.44 170.342 277.82 170.676 277.932 170.732C278.47 171.029 279.379 171.177 280.659 171.177C280.938 171.177 281.392 171.084 282.023 170.899L282.691 170.871L284.695 170.036C284.806 169.999 285.075 169.98 285.502 169.98C285.836 169.572 286.346 169.136 287.033 168.672C287.181 168.561 287.292 168.45 287.367 168.338C287.385 168.32 287.469 168.051 287.617 167.531C287.858 166.956 287.979 166.594 287.979 166.446C287.979 165.871 287.942 165.23 287.868 164.525C287.812 163.857 287.413 163.254 286.671 162.716C286.374 162.494 286.068 162.132 285.752 161.631C285.623 161.427 285.437 161.278 285.196 161.186C285.103 161.148 284.732 161.056 284.083 160.907L283.637 160.657L282.886 160.406L282.635 160.323L281.327 160.712C280.752 160.62 280.418 160.573 280.325 160.573C280.084 160.573 279.574 160.712 278.794 160.991L277.987 161.13C277.857 161.148 277.644 161.278 277.347 161.52C277.106 161.557 276.92 161.64 276.791 161.77C276.475 162.085 276.16 162.41 275.844 162.744C275.399 163.227 275.13 163.533 275.037 163.663C274.944 163.792 274.861 164.164 274.787 164.776C274.675 165.407 274.62 166.028 274.62 166.641C274.62 166.938 274.657 167.151 274.731 167.281C274.861 167.485 275.139 167.735 275.566 168.032ZM301.088 160.824C301.088 160.564 301.366 160.211 301.923 159.766C303.147 158.82 304.205 158.198 305.096 157.901L305.931 158.764C305.745 159.228 305.597 159.877 305.485 160.712C305.374 161.399 305.318 161.816 305.318 161.965V162.995L304.845 163.663C304.845 164.126 305.049 164.572 305.458 164.999C305.346 165.203 305.291 165.323 305.291 165.36L305.346 166.724C305.346 166.724 305.337 166.826 305.318 167.03C305.3 167.16 305.291 167.374 305.291 167.67L305.151 172.986C305.17 173.265 305.291 173.905 305.513 174.907L305.569 176.076C305.68 176.632 305.736 176.957 305.736 177.05C305.736 177.439 305.569 177.792 305.235 178.107C305.142 178.2 304.79 178.441 304.177 178.831C303.25 179.555 302.721 179.944 302.591 180C302.405 180.074 302.238 180.111 302.09 180.111C301.867 180.111 301.645 180 301.422 179.777C301.496 179.313 301.542 179.007 301.561 178.859C301.58 178.636 301.682 178.228 301.867 177.634L301.895 176.271L302.09 173.543L302.062 173.042C302.081 172.745 302.229 172.597 302.507 172.597C302.582 172.597 302.674 172.606 302.786 172.625C302.878 172.328 302.925 172.124 302.925 172.012C302.925 171.864 302.869 171.576 302.758 171.149C302.702 170.964 302.646 170.704 302.591 170.37L302.118 170.008C302.173 169.6 302.201 169.294 302.201 169.09C302.201 168.997 302.192 168.858 302.173 168.672C302.173 168.524 302.173 168.394 302.173 168.283C302.173 168.042 302.266 167.772 302.452 167.476C302.266 167.253 302.173 167.021 302.173 166.78V166.557V166.362L302.118 165.722C303.324 165.5 303.927 165.305 303.927 165.138C303.927 165.119 303.908 165.091 303.871 165.054C303.593 164.813 303.25 164.692 302.841 164.692C302.544 164.692 302.183 164.711 301.756 164.748C301.812 164.47 301.839 164.284 301.839 164.191C301.839 164.154 301.765 163.236 301.617 161.436C301.598 161.213 301.422 161.009 301.088 160.824ZM301.589 149.607V149.58C301.552 148.93 302.025 148.225 303.008 147.464C303.231 147.297 303.472 147.056 303.732 146.741C303.75 146.722 303.936 146.574 304.289 146.295C304.975 145.275 305.402 144.709 305.569 144.598C305.847 144.394 306.079 144.292 306.265 144.292C306.339 144.292 306.552 144.431 306.905 144.709C307.257 144.969 307.434 145.284 307.434 145.655C307.434 145.952 307.267 146.212 306.933 146.435C306.079 147.047 305.263 147.715 304.483 148.438L303.704 148.939L302.73 149.607C302.21 149.886 301.914 150.025 301.839 150.025C301.672 150.025 301.589 149.886 301.589 149.607ZM329.31 159.293L330.2 158.736C330.479 159.07 330.673 159.284 330.785 159.376C330.822 159.414 331.017 159.506 331.369 159.655C331.555 159.748 332.353 160.527 333.763 161.993C334.208 162.457 334.514 162.893 334.681 163.301C334.83 163.653 334.987 164.08 335.154 164.581C335.266 164.841 335.396 165.175 335.544 165.583L335.349 165.778C335.145 165.741 334.867 165.657 334.514 165.527L333.457 165.917L332.51 165.75L331.675 165.973C330.525 165.156 329.922 164.748 329.866 164.748C329.755 164.748 329.319 165.128 328.558 165.889C327.371 165.667 326.74 165.555 326.666 165.555C326.369 165.555 326.016 165.583 325.608 165.639L325.469 165.527C325.172 165.564 324.365 165.583 323.047 165.583L322.018 165.694L320.737 165.806L319.429 166.028L318.26 166C317.184 166.334 316.451 166.529 316.062 166.585C315.969 167.216 315.876 167.652 315.783 167.893C315.672 168.171 315.449 168.478 315.115 168.812C315.709 169.22 316.024 169.507 316.062 169.674C316.247 170.862 316.423 171.66 316.59 172.068L317.091 172.346L316.952 173.376L317.815 173.599C318 174.359 318.242 174.87 318.539 175.129C318.817 175.371 319.281 175.538 319.93 175.63C320.023 176.206 320.171 176.549 320.375 176.66C320.524 176.771 320.858 176.846 321.377 176.883L321.851 177.606C322.055 177.569 322.231 177.551 322.379 177.551C322.491 177.551 323.047 177.783 324.049 178.247C324.272 178.358 324.513 178.414 324.773 178.414C325.014 178.414 325.487 178.302 326.192 178.08L327.974 177.885L329.337 177.495C329.987 177.458 330.423 177.402 330.646 177.328C330.961 177.198 331.536 176.874 332.371 176.354C333.188 175.853 333.661 175.51 333.791 175.324C334.125 174.935 334.44 174.489 334.737 173.988C334.885 173.766 335.145 173.654 335.516 173.654C335.683 173.654 335.924 173.775 336.24 174.016C336.11 174.684 335.989 175.12 335.878 175.324C335.099 176.642 334.607 177.514 334.403 177.94C334.162 177.829 333.958 177.773 333.791 177.773C333.679 177.773 333.373 177.959 332.872 178.33C332.538 178.553 332.121 178.683 331.62 178.72C330.469 179.035 329.671 179.221 329.226 179.276C328.465 179.351 327.983 179.416 327.779 179.471C327.204 179.657 326.907 179.75 326.888 179.75L325.246 179.499L324.272 179.666L323.799 179.694C323.354 179.75 323.01 179.777 322.769 179.777C322.528 179.777 321.851 179.712 320.737 179.583C320.385 179.545 320.208 179.527 320.208 179.527L319.624 179.165C318.232 178.738 317.462 178.488 317.314 178.414C317.221 178.358 316.906 178.08 316.368 177.579C316.331 177.542 316.006 177.337 315.394 176.966C314.874 176.651 314.596 176.41 314.559 176.243L314.058 175.352C313.983 175.204 313.668 174.851 313.111 174.294C313.297 173.998 313.39 173.775 313.39 173.626C313.39 173.571 313.148 173.051 312.666 172.068C312.536 171.808 312.471 171.02 312.471 169.702C312.471 169.294 312.601 168.626 312.861 167.698C313.083 166.975 313.241 166.557 313.334 166.446L314.28 165.333L314.893 164.024C315.523 163.431 316.247 162.763 317.063 162.021L319.095 160.768L321.155 159.349L321.906 159.209L324.021 158.542L325.385 158.43C326.48 158.022 327.083 157.818 327.194 157.818C328.233 157.818 328.938 158.31 329.31 159.293ZM326.081 163.468L326.554 164.052C326.925 163.978 327.176 163.932 327.306 163.913C327.807 163.839 328.308 163.709 328.809 163.523L330.395 163.663C330.414 163.663 330.46 163.57 330.534 163.384C330.553 163.273 330.562 163.18 330.562 163.106C330.562 162.939 330.451 162.735 330.228 162.494C330.191 162.457 330.098 162.345 329.95 162.16C329.504 161.566 329.226 161.288 329.115 161.325L328.196 160.879C328.085 160.824 327.909 160.61 327.667 160.239C327.129 160.165 326.211 160.128 324.912 160.128L324.355 160.1L323.409 160.657C323.372 160.694 322.862 160.824 321.878 161.046C321.099 161.325 320.413 161.594 319.819 161.854C319.689 161.946 319.327 162.262 318.733 162.8C318.622 162.893 318.409 163.06 318.093 163.301V163.468L318.149 163.523L320.181 164.331L320.793 164.943L321.878 163.635C321.971 163.561 322.073 163.523 322.185 163.523C322.24 163.523 322.695 163.644 323.548 163.885C323.567 163.885 323.585 163.885 323.604 163.885C323.845 163.885 324.374 163.792 325.19 163.607C325.376 163.551 325.673 163.505 326.081 163.468Z" fill="#14FF00"/>
</svg>
