<svg width="45" height="46" viewBox="0 0 45 46" fill="none" xmlns="http://www.w3.org/2000/svg">
<path d="M16.7867 29.2151L28.6485 17.3533M40.1928 16.4471L35.3535 21.2864C32.2773 24.3626 27.2898 24.3626 24.2136 21.2864C21.1374 18.2102 21.1374 13.2227 24.2136 10.1465L29.0529 5.30716C32.1291 2.23095 37.1166 2.23095 40.1928 5.30716C43.2691 8.38337 43.269 13.3709 40.1928 16.4471ZM20.7864 35.8535L15.9471 40.6928C12.8709 43.7691 7.88337 43.7691 4.80716 40.6928C1.73095 37.6166 1.73095 32.6291 4.80716 29.5529L9.64649 24.7136C12.7227 21.6374 17.7102 21.6374 20.7864 24.7136C23.8626 27.7898 23.8626 32.7773 20.7864 35.8535Z" stroke="white" stroke-width="5" stroke-linecap="round"/>
</svg>
