<svg width="35" height="35" viewBox="0 0 35 35" fill="none" xmlns="http://www.w3.org/2000/svg">
<path d="M12.4423 16.4308C12.5786 16.3672 12.7082 16.285 12.8273 16.1844M7.7174 21.0766L11.922 16.8735C12.086 16.7096 12.2601 16.562 12.4423 16.4308C12.5671 16.341 12.6956 16.2589 12.8273 16.1844C13.6053 15.7446 14.493 15.5727 15.3568 15.6687C16.2707 15.7704 17.1578 16.172 17.8596 16.8735C18.3274 17.3411 18.9984 17.4877 19.5936 17.3121C19.8592 17.2337 20.1097 17.0912 20.3203 16.8843C21.0028 16.214 21.0077 15.1224 20.3312 14.4462C19.2747 13.39 17.9863 12.7054 16.6294 12.3925C14.6155 11.9281 12.4505 12.282 10.6672 13.4544C10.2369 13.7373 9.82878 14.0679 9.45041 14.4462L5.24581 18.6492C2.2514 21.6426 2.2514 26.4894 5.24581 29.4827C7.41705 31.6532 9.85851 32.2941 12.1644 31.8825C13.6706 31.6136 15.0235 30.9149 16.1486 30.0718C16.1766 30.0509 16.2044 30.0298 16.2321 30.0087C16.7107 29.6434 17.1469 29.2528 17.5348 28.8595C18.046 28.3411 19.9828 26.32 22.1636 24.0386C20.6265 24.3791 19.0204 24.3324 17.5022 23.8986C16.2924 25.1615 15.3664 26.1245 15.0459 26.4496C14.0358 27.4737 12.7861 28.2679 11.5474 28.489C10.4239 28.6896 9.12255 28.46 7.7174 27.0554C6.06753 25.4061 6.06753 22.7259 7.7174 21.0766Z" fill="white"/>
<path d="M12.4423 16.4308C12.5786 16.3672 12.7082 16.285 12.8273 16.1844M7.7174 21.0766L11.922 16.8735C12.086 16.7096 12.2601 16.562 12.4423 16.4308C12.5671 16.341 12.6956 16.2589 12.8273 16.1844C13.6053 15.7446 14.493 15.5727 15.3568 15.6687C16.2707 15.7704 17.1578 16.172 17.8596 16.8735C18.3274 17.3411 18.9984 17.4877 19.5936 17.3121C19.8592 17.2337 20.1097 17.0912 20.3203 16.8843C21.0028 16.214 21.0077 15.1224 20.3312 14.4462C19.2747 13.39 17.9863 12.7054 16.6294 12.3925C14.6155 11.9281 12.4505 12.282 10.6672 13.4544C10.2369 13.7373 9.82878 14.0679 9.45041 14.4462L5.24581 18.6492C2.2514 21.6426 2.2514 26.4894 5.24581 29.4827C7.41705 31.6532 9.85851 32.2941 12.1644 31.8825C13.6706 31.6136 15.0235 30.9149 16.1486 30.0718C16.1766 30.0509 16.2044 30.0298 16.2321 30.0087C16.7107 29.6434 17.1469 29.2528 17.5348 28.8595C18.046 28.3411 19.9828 26.32 22.1636 24.0386C20.6265 24.3791 19.0204 24.3324 17.5022 23.8986C16.2924 25.1615 15.3664 26.1245 15.0459 26.4496C14.0358 27.4737 12.7861 28.2679 11.5474 28.489C10.4239 28.6896 9.12255 28.46 7.7174 27.0554C6.06753 25.4061 6.06753 22.7259 7.7174 21.0766Z" stroke="white"/>
<path d="M28.0556 17.8669L29.7696 16.0694M23.078 17.8605C21.4366 19.5014 18.7818 19.5013 17.1404 17.8605C16.4639 17.1843 15.3622 17.1795 14.6797 17.8498C13.9971 18.5201 13.9923 19.6117 14.6688 20.2879C15.8606 21.4794 17.3475 22.1979 18.8951 22.4435C21.2466 22.8168 23.7386 22.0983 25.5496 20.2879L29.7542 16.0848L29.7696 16.0694C30.1839 15.6529 30.5405 15.2008 30.8393 14.7231C32.6894 11.7656 32.3277 7.82393 29.7542 5.25133C26.7513 2.24956 21.8762 2.24955 18.8734 5.25133L13.5581 10.5647C15.0509 10.3534 16.5848 10.4991 18.0209 11.0015L21.345 7.67871C22.9864 6.0379 25.6412 6.0379 27.2826 7.67871C28.497 8.89273 28.8175 10.6654 28.2441 12.1743C28.0385 12.7152 27.718 13.2222 27.2826 13.6575L23.078 17.8605Z" fill="#BC6B2C"/>
<path d="M28.0556 17.8669L29.7696 16.0694M23.078 17.8605C21.4366 19.5014 18.7818 19.5013 17.1404 17.8605C16.4639 17.1843 15.3622 17.1795 14.6797 17.8498C13.9971 18.5201 13.9923 19.6117 14.6688 20.2879C15.8606 21.4794 17.3475 22.1979 18.8951 22.4435C21.2466 22.8168 23.7386 22.0983 25.5496 20.2879L29.7542 16.0848L29.7696 16.0694C30.1839 15.6529 30.5405 15.2008 30.8393 14.7231C32.6894 11.7656 32.3277 7.82393 29.7542 5.25133C26.7513 2.24956 21.8762 2.24955 18.8734 5.25133L13.5581 10.5647C15.0509 10.3534 16.5848 10.4991 18.0209 11.0015L21.345 7.67871C22.9864 6.0379 25.6412 6.0379 27.2826 7.67871C28.497 8.89273 28.8175 10.6654 28.2441 12.1743C28.0385 12.7152 27.718 13.2222 27.2826 13.6575L23.078 17.8605Z" stroke="#BC6B2C"/>
</svg>
