<svg width="131" height="95" viewBox="0 0 131 95" fill="none" xmlns="http://www.w3.org/2000/svg">
<path fill-rule="evenodd" clip-rule="evenodd" d="M44.876 49.9997C45.2999 49.2385 45.8317 48.5198 46.4724 47.8652L54.1566 40.0139C55.7 38.4369 57.5784 37.3722 59.5738 36.8294C59.1997 35.4497 59 33.9981 59 32.5C59 26.7266 61.9652 21.6458 66.4558 18.6973C63.1258 10.098 54.775 4 45 4C32.2975 4 22 14.2975 22 27C22 39.6612 32.2305 49.9329 44.876 49.9997ZM44.3934 50.9925C31.4189 50.6706 21 40.052 21 27C21 13.7452 31.7452 3 45 3C55.1354 3 63.8034 9.28269 67.3219 18.166C69.7325 16.7877 72.5243 16 75.5 16C84.6127 16 92 23.3873 92 32.5C92 33.701 91.8717 34.8719 91.628 36L128.887 47.8292C130.017 48.188 130.589 49.4456 130.116 50.5329L126 60L121.5 58.5L122.5 52L119.5 51L118 55L114 54L115.5 49.6602L89.645 41C87.5459 44.4857 84.1948 47.1321 80.2142 48.3167C82.3421 52.0184 81.9317 56.8395 78.8368 60.1408L78.0312 61L103.243 83.9866C104.423 85.0619 103.929 87.0177 102.381 87.4048L96.8984 88.7754C96.3914 88.9021 95.8724 88.6172 95.7072 88.1215L94.7279 85.1838C94.5918 84.7754 94.2097 84.5 93.7792 84.5H91.5C90.9477 84.5 90.5 84.0523 90.5 83.5V82.3673C90.5 81.8696 90.1341 81.4477 89.6414 81.3773L87.8586 81.1227C87.3659 81.0523 87 80.6304 87 80.1327V78.5C87 78.2239 86.7761 78 86.5 78C86.2239 78 86 77.7761 86 77.5C86 77.2239 85.7761 77 85.5 77H82.4142C82.149 77 81.8946 76.8946 81.7071 76.7071L72.2097 67.2097L71.3498 68.1269C66.9591 72.8103 59.66 73.2086 54.7858 69.0307L47.1111 62.4524C43.712 59.5389 42.7689 54.87 44.3934 50.9925Z" fill="black" fill-opacity="0.25"/>
<circle cx="33.5" cy="28.5" r="23.5" stroke="url(#paint0_linear_408_117)" stroke-width="2"/>
<path fill-rule="evenodd" clip-rule="evenodd" d="M92.2434 86.9864L67.0314 63.9998L67.8369 63.1406C71.7384 58.9791 71.3738 52.4023 67.0364 48.6974L59.5266 42.2828C54.727 38.1831 47.5719 38.5026 43.1568 43.0137L35.4725 50.865C31.4279 54.9976 31.7209 61.689 36.1113 65.4522L43.786 72.0305C48.6602 76.2084 55.9592 75.8101 60.3499 71.1267L61.2098 70.2095L70.7073 79.7069C70.8948 79.8944 71.1492 79.9998 71.4144 79.9998H74.5002C74.7763 79.9998 75.0002 80.2237 75.0002 80.4998C75.0002 80.7759 75.224 80.9998 75.5002 80.9998C75.7763 80.9998 76.0002 81.2237 76.0002 81.4998V83.1325C76.0002 83.6302 76.3661 84.0521 76.8587 84.1225L78.6416 84.3772C79.1342 84.4475 79.5002 84.8694 79.5002 85.3671V86.4998C79.5002 87.0521 79.9479 87.4998 80.5002 87.4998H82.7794C83.2098 87.4998 83.592 87.7752 83.7281 88.1836L84.7073 91.1213C84.8726 91.617 85.3916 91.9019 85.8986 91.7752L91.381 90.4046C92.9294 90.0175 93.4229 88.0617 92.2434 86.9864ZM49.3145 45.6759C49.4567 45.8998 49.6032 46.1262 49.7499 46.347C50.3772 47.2912 50.3099 48.641 49.4792 49.4124L45.0158 53.557C44.4048 54.1243 43.5061 54.2531 42.7604 53.8803L41.5583 53.2792C40.3157 52.6579 40.0694 50.9902 41.0794 50.0363L46.1518 45.2458C47.0933 44.3565 48.6202 44.5826 49.3145 45.6759Z" fill="#604424"/>
<path fill-rule="evenodd" clip-rule="evenodd" d="M92.2434 84.9864L67.0314 61.9998L67.8369 61.1406C71.7384 56.9791 71.3738 50.4023 67.0364 46.6974L59.5266 40.2828C54.727 36.1831 47.5719 36.5026 43.1568 41.0137L35.4725 48.865C31.4279 52.9976 31.7209 59.689 36.1113 63.4522L43.786 70.0305C48.6602 74.2084 55.9592 73.8101 60.3499 69.1267L61.2098 68.2095L70.7073 77.7069C70.8948 77.8944 71.1492 77.9998 71.4144 77.9998H74.5002C74.7763 77.9998 75.0002 78.2237 75.0002 78.4998C75.0002 78.7759 75.224 78.9998 75.5002 78.9998C75.7763 78.9998 76.0002 79.2237 76.0002 79.4998V81.1325C76.0002 81.6302 76.3661 82.0521 76.8587 82.1225L78.6416 82.3772C79.1342 82.4475 79.5002 82.8694 79.5002 83.3671V84.4998C79.5002 85.0521 79.9479 85.4998 80.5002 85.4998H82.7794C83.2098 85.4998 83.592 85.7752 83.7281 86.1836L84.7073 89.1213C84.8726 89.617 85.3916 89.9019 85.8986 89.7752L91.381 88.4046C92.9294 88.0175 93.4229 86.0617 92.2434 84.9864ZM48.3145 44.6759C48.4567 44.8998 48.6032 45.1262 48.7499 45.347C49.3772 46.2912 49.3099 47.641 48.4792 48.4124L44.0158 52.557C43.4048 53.1243 42.5061 53.2531 41.7604 52.8803L40.5583 52.2792C39.3157 51.6579 39.0694 49.9902 40.0794 49.0363L45.1518 44.2458C46.0933 43.3565 47.6202 43.5826 48.3145 44.6759Z" fill="#A47035"/>
<path fill-rule="evenodd" clip-rule="evenodd" d="M92.2434 84.9864L67.0314 61.9998L67.8369 61.1406C71.7384 56.9791 71.3738 50.4023 67.0364 46.6974L59.5266 40.2828C54.727 36.1831 47.5719 36.5026 43.1568 41.0137L35.4725 48.865C31.4279 52.9976 31.7209 59.689 36.1113 63.4522L43.786 70.0305C48.6602 74.2084 55.9592 73.8101 60.3499 69.1267L61.2098 68.2095L70.7073 77.7069C70.8948 77.8944 71.1492 77.9998 71.4144 77.9998H74.5002C74.7763 77.9998 75.0002 78.2237 75.0002 78.4998C75.0002 78.7759 75.224 78.9998 75.5002 78.9998C75.7763 78.9998 76.0002 79.2237 76.0002 79.4998V81.1325C76.0002 81.6302 76.3661 82.0521 76.8587 82.1225L78.6416 82.3772C79.1342 82.4475 79.5002 82.8694 79.5002 83.3671V84.4998C79.5002 85.0521 79.9479 85.4998 80.5002 85.4998H82.7794C83.2098 85.4998 83.592 85.7752 83.7281 86.1836L84.7073 89.1213C84.8726 89.617 85.3916 89.9019 85.8986 89.7752L91.381 88.4046C92.9294 88.0175 93.4229 86.0617 92.2434 84.9864ZM48.3145 44.6759C48.4567 44.8998 48.6032 45.1262 48.7499 45.347C49.3772 46.2912 49.3099 47.641 48.4792 48.4124L44.0158 52.557C43.4048 53.1243 42.5061 53.2531 41.7604 52.8803L40.5583 52.2792C39.3157 51.6579 39.0694 49.9902 40.0794 49.0363L45.1518 44.2458C46.0933 43.3565 47.6202 43.5826 48.3145 44.6759Z" fill="#A47035"/>
<path d="M57 28.5C57 31.4141 56.4696 34.2044 55.5 36.7794C53.61 41.7991 50.0513 46.0011 45.5 48.7094" stroke="url(#paint1_linear_408_117)" stroke-width="2"/>
<path fill-rule="evenodd" clip-rule="evenodd" d="M67.0363 46.6974L59.5265 40.2828C55.7079 37.0211 50.3984 36.5567 46.1639 38.7748C46.0559 39.5009 46 40.2439 46 41C46 49.2843 52.7157 56 61 56C64.0668 56 66.9187 55.0796 69.2945 53.5C69.6791 53.2443 70.0513 52.9712 70.4099 52.682C70.0429 50.4353 68.9105 48.2983 67.0363 46.6974Z" fill="black" fill-opacity="0.1"/>
<path fill-rule="evenodd" clip-rule="evenodd" d="M80.3658 37.995C80.6455 36.8514 81 35.4021 81 34.5C81 25.3873 73.6127 18 64.5 18C55.3873 18 48 25.3873 48 34.5C48 43.6127 55.3873 51 64.5 51C69.6385 51 73.8621 49.3837 76.7826 45.9122C77.671 44.8562 79.0713 44.2866 80.3896 44.6945L101.575 51.2497C102.918 51.6651 103.674 53.0851 103.271 54.4311L103.14 54.8672C102.791 56.0287 103.484 57.2459 104.66 57.54V57.54C105.708 57.8021 106.786 57.236 107.166 56.2243L107.408 55.5787C107.738 54.6975 108.707 54.2356 109.6 54.5332V54.5332C110.408 54.8028 110.905 55.6163 110.776 56.4591L110.359 59.1677C110.152 60.5148 110.946 61.8152 112.239 62.2462V62.2462C113.542 62.6806 114.967 62.1044 115.603 60.8867L119.754 52.9294C120.189 52.0951 119.984 51.0703 119.261 50.4678L118.007 49.4227C117.673 49.1442 117.282 48.9418 116.862 48.8293L81.1257 39.267C80.567 39.1175 80.2284 38.5568 80.3658 37.995V37.995ZM59 38C61.2091 38 63 36.2091 63 34C63 31.7909 61.2091 30 59 30C56.7909 30 55 31.7909 55 34C55 36.2091 56.7909 38 59 38Z" fill="#754D20"/>
<path d="M119.278 52.1565C120.175 50.5131 119.364 48.4591 117.586 47.8716L78.645 35C78.2578 36.7924 79.5622 39.4777 78.6447 41.0014L102.408 48.9609C103.56 49.3468 104.176 50.5983 103.779 51.7465L103.741 51.8568C103.342 53.0095 104.018 54.2559 105.201 54.5517V54.5517C106.226 54.8079 107.28 54.2544 107.651 53.2653L107.908 52.58C108.238 51.6989 109.206 51.2369 110.099 51.5345V51.5345C110.908 51.8042 111.405 52.6177 111.275 53.4604L110.885 55.9996C110.662 57.4446 111.514 58.8395 112.901 59.3018L113.412 59.4723C114.331 59.7785 115.337 59.3827 115.801 58.5326L119.278 52.1565Z" fill="#FEB158"/>
<path fill-rule="evenodd" clip-rule="evenodd" d="M82.2287 37.8257C80.7542 37.3576 79.9075 35.8427 79.9811 34.2975C79.9936 34.0332 80 33.7674 80 33.5C80 24.3873 72.6127 17 63.5 17C54.3873 17 47 24.3873 47 33.5C47 42.6127 54.3873 50 63.5 50C68.6406 50 73.2322 47.6491 76.2583 43.9639C77.1505 42.8773 78.5934 42.3177 79.9265 42.7642L101.408 49.9596C102.56 50.3454 103.176 51.5969 102.779 52.7451L102.741 52.8555C102.343 54.0082 103.018 55.2545 104.201 55.5503V55.5503C105.226 55.8065 106.28 55.2531 106.651 54.264L106.908 53.5787C107.238 52.6975 108.207 52.2356 109.1 52.5332V52.5332C109.908 52.8028 110.405 53.6163 110.276 54.4591L109.846 57.2512C109.646 58.5501 110.412 59.8039 111.658 60.2195V60.2195C112.984 60.6613 114.427 60.0177 114.984 58.7365L118.116 51.5329C118.589 50.4456 118.017 49.188 116.887 48.8292L82.2287 37.8257ZM58 36C60.2091 36 62 34.2091 62 32C62 29.7909 60.2091 28 58 28C55.7909 28 54 29.7909 54 32C54 34.2091 55.7909 36 58 36Z" fill="#FD9B2A"/>
<path fill-rule="evenodd" clip-rule="evenodd" d="M53.1108 23.4806C52.3565 22.4476 52.6265 21.024 53.6522 20.2598C56.4009 18.212 59.8089 17 63.5001 17C66.1228 17 68.6026 17.6119 70.8045 18.7008C71.9488 19.2667 72.4706 20.6156 71.9169 21.7658C70.141 25.4543 66.3678 28 62.0001 28C58.3479 28 55.1115 26.2202 53.1108 23.4806Z" fill="#F8B262"/>
<path d="M56.762 31.8571C56.9188 30.7607 57 29.6398 57 28.5C57 23.4758 55.4233 18.8199 52.7378 15" stroke="url(#paint2_linear_408_117)" stroke-width="2"/>
<defs>
<linearGradient id="paint0_linear_408_117" x1="30.6224" y1="21.3061" x2="38.7755" y2="52" gradientUnits="userSpaceOnUse">
<stop stop-color="white"/>
<stop offset="1" stop-color="#A78E71"/>
</linearGradient>
<linearGradient id="paint1_linear_408_117" x1="30.6224" y1="21.3061" x2="38.7755" y2="52" gradientUnits="userSpaceOnUse">
<stop stop-color="white"/>
<stop offset="1" stop-color="#A78E71"/>
</linearGradient>
<linearGradient id="paint2_linear_408_117" x1="30.6224" y1="21.3061" x2="38.7755" y2="52" gradientUnits="userSpaceOnUse">
<stop stop-color="white"/>
<stop offset="1" stop-color="#A78E71"/>
</linearGradient>
</defs>
</svg>
