<svg width="131" height="131" viewBox="0 0 131 131" fill="none" xmlns="http://www.w3.org/2000/svg">
<path fill-rule="evenodd" clip-rule="evenodd" d="M44.876 67.9997C45.2999 67.2385 45.8317 66.5198 46.4724 65.8652L54.1566 58.0139C55.7 56.4369 57.5784 55.3722 59.5738 54.8294C59.1997 53.4497 59 51.9981 59 50.5C59 44.7266 61.9652 39.6458 66.4558 36.6973C63.1258 28.098 54.775 22 45 22C32.2975 22 22 32.2975 22 45C22 57.6612 32.2305 67.9329 44.876 67.9997ZM44.3934 68.9925C31.4189 68.6706 21 58.052 21 45C21 31.7452 31.7452 21 45 21C55.1354 21 63.8034 27.2827 67.3219 36.166C69.7325 34.7877 72.5243 34 75.5 34C84.6127 34 92 41.3873 92 50.5C92 51.701 91.8717 52.8719 91.628 54L128.887 65.8292C130.017 66.188 130.589 67.4456 130.116 68.5329L126 78L121.5 76.5L122.5 70L119.5 69L118 73L114 72L115.5 67.6602L89.645 59C87.5459 62.4857 84.1948 65.1321 80.2142 66.3167C82.3421 70.0184 81.9317 74.8395 78.8368 78.1408L78.0312 79L103.243 101.987C104.423 103.062 103.929 105.018 102.381 105.405L96.8984 106.775C96.3914 106.902 95.8724 106.617 95.7072 106.121L94.7279 103.184C94.5918 102.775 94.2097 102.5 93.7792 102.5H91.5C90.9477 102.5 90.5 102.052 90.5 101.5V100.367C90.5 99.8696 90.1341 99.4477 89.6414 99.3773L87.8586 99.1227C87.3659 99.0523 87 98.6304 87 98.1327V96.5C87 96.2239 86.7761 96 86.5 96C86.2239 96 86 95.7761 86 95.5C86 95.2239 85.7761 95 85.5 95H82.4142C82.149 95 81.8946 94.8946 81.7071 94.7071L72.2097 85.2097L71.3498 86.1269C66.9591 90.8103 59.66 91.2086 54.7858 87.0307L47.1111 80.4524C43.712 77.5389 42.7689 72.87 44.3934 68.9925Z" fill="black" fill-opacity="0.25"/>
<circle cx="33.5" cy="46.5" r="23.5" stroke="url(#paint0_linear_408_117)" stroke-width="2"/>
<path fill-rule="evenodd" clip-rule="evenodd" d="M92.2434 104.986L67.0314 81.9998L67.8369 81.1406C71.7384 76.9791 71.3738 70.4023 67.0364 66.6974L59.5266 60.2828C54.727 56.1831 47.5719 56.5026 43.1568 61.0137L35.4725 68.865C31.4279 72.9976 31.7209 79.689 36.1113 83.4522L43.786 90.0305C48.6602 94.2084 55.9592 93.8101 60.3499 89.1267L61.2098 88.2095L70.7073 97.7069C70.8948 97.8944 71.1492 97.9998 71.4144 97.9998H74.5002C74.7763 97.9998 75.0002 98.2237 75.0002 98.4998C75.0002 98.7759 75.224 98.9998 75.5002 98.9998C75.7763 98.9998 76.0002 99.2237 76.0002 99.4998V101.133C76.0002 101.63 76.3661 102.052 76.8587 102.122L78.6416 102.377C79.1342 102.448 79.5002 102.869 79.5002 103.367V104.5C79.5002 105.052 79.9479 105.5 80.5002 105.5H82.7794C83.2098 105.5 83.592 105.775 83.7281 106.184L84.7073 109.121C84.8726 109.617 85.3916 109.902 85.8985 109.775L91.381 108.405C92.9294 108.017 93.4229 106.062 92.2434 104.986ZM49.3145 63.6759C49.4567 63.8998 49.6032 64.1262 49.7499 64.347C50.3772 65.2912 50.3099 66.641 49.4792 67.4124L45.0158 71.557C44.4048 72.1243 43.5061 72.2531 42.7604 71.8803L41.5583 71.2792C40.3157 70.6579 40.0694 68.9902 41.0794 68.0363L46.1518 63.2458C47.0933 62.3565 48.6202 62.5826 49.3145 63.6759Z" fill="#604424"/>
<path fill-rule="evenodd" clip-rule="evenodd" d="M92.2434 102.986L67.0314 79.9998L67.8369 79.1406C71.7384 74.9791 71.3738 68.4023 67.0364 64.6974L59.5266 58.2828C54.727 54.1831 47.5719 54.5026 43.1568 59.0137L35.4725 66.865C31.4279 70.9976 31.7209 77.689 36.1113 81.4522L43.786 88.0305C48.6602 92.2084 55.9592 91.8101 60.3499 87.1267L61.2098 86.2095L70.7073 95.7069C70.8948 95.8944 71.1492 95.9998 71.4144 95.9998H74.5002C74.7763 95.9998 75.0002 96.2237 75.0002 96.4998C75.0002 96.7759 75.224 96.9998 75.5002 96.9998C75.7763 96.9998 76.0002 97.2237 76.0002 97.4998V99.1325C76.0002 99.6302 76.3661 100.052 76.8587 100.122L78.6416 100.377C79.1342 100.448 79.5002 100.869 79.5002 101.367V102.5C79.5002 103.052 79.9479 103.5 80.5002 103.5H82.7794C83.2098 103.5 83.592 103.775 83.7281 104.184L84.7073 107.121C84.8726 107.617 85.3916 107.902 85.8985 107.775L91.381 106.405C92.9294 106.017 93.4229 104.062 92.2434 102.986ZM48.3145 62.6759C48.4567 62.8998 48.6032 63.1262 48.7499 63.347C49.3772 64.2912 49.3099 65.641 48.4792 66.4124L44.0158 70.557C43.4048 71.1243 42.5061 71.2531 41.7604 70.8803L40.5583 70.2792C39.3157 69.6579 39.0694 67.9902 40.0794 67.0363L45.1518 62.2458C46.0933 61.3565 47.6202 61.5826 48.3145 62.6759Z" fill="#A47035"/>
<path fill-rule="evenodd" clip-rule="evenodd" d="M92.2434 102.986L67.0314 79.9998L67.8369 79.1406C71.7384 74.9791 71.3738 68.4023 67.0364 64.6974L59.5266 58.2828C54.727 54.1831 47.5719 54.5026 43.1568 59.0137L35.4725 66.865C31.4279 70.9976 31.7209 77.689 36.1113 81.4522L43.786 88.0305C48.6602 92.2084 55.9592 91.8101 60.3499 87.1267L61.2098 86.2095L70.7073 95.7069C70.8948 95.8944 71.1492 95.9998 71.4144 95.9998H74.5002C74.7763 95.9998 75.0002 96.2237 75.0002 96.4998C75.0002 96.7759 75.224 96.9998 75.5002 96.9998C75.7763 96.9998 76.0002 97.2237 76.0002 97.4998V99.1325C76.0002 99.6302 76.3661 100.052 76.8587 100.122L78.6416 100.377C79.1342 100.448 79.5002 100.869 79.5002 101.367V102.5C79.5002 103.052 79.9479 103.5 80.5002 103.5H82.7794C83.2098 103.5 83.592 103.775 83.7281 104.184L84.7073 107.121C84.8726 107.617 85.3916 107.902 85.8985 107.775L91.381 106.405C92.9294 106.017 93.4229 104.062 92.2434 102.986ZM48.3145 62.6759C48.4567 62.8998 48.6032 63.1262 48.7499 63.347C49.3772 64.2912 49.3099 65.641 48.4792 66.4124L44.0158 70.557C43.4048 71.1243 42.5061 71.2531 41.7604 70.8803L40.5583 70.2792C39.3157 69.6579 39.0694 67.9902 40.0794 67.0363L45.1518 62.2458C46.0933 61.3565 47.6202 61.5826 48.3145 62.6759Z" fill="#A47035"/>
<path d="M57 46.5C57 49.4141 56.4696 52.2044 55.5 54.7794C53.61 59.7991 50.0513 64.0011 45.5 66.7094" stroke="url(#paint1_linear_408_117)" stroke-width="2"/>
<path fill-rule="evenodd" clip-rule="evenodd" d="M67.0363 64.6974L59.5265 58.2828C55.7079 55.0211 50.3984 54.5567 46.1639 56.7748C46.0559 57.5009 46 58.2439 46 59C46 67.2843 52.7157 74 61 74C64.0668 74 66.9187 73.0796 69.2945 71.5C69.6791 71.2443 70.0513 70.9712 70.4099 70.682C70.0429 68.4353 68.9105 66.2983 67.0363 64.6974Z" fill="black" fill-opacity="0.1"/>
<path fill-rule="evenodd" clip-rule="evenodd" d="M80.3658 55.995C80.6455 54.8514 81 53.4021 81 52.5C81 43.3873 73.6127 36 64.5 36C55.3873 36 48 43.3873 48 52.5C48 61.6127 55.3873 69 64.5 69C69.6385 69 73.8621 67.3837 76.7826 63.9122C77.671 62.8562 79.0713 62.2866 80.3896 62.6945L101.575 69.2497C102.918 69.6651 103.674 71.0851 103.271 72.4311L103.14 72.8672C102.791 74.0287 103.484 75.2459 104.66 75.54V75.54C105.708 75.8021 106.786 75.236 107.166 74.2243L107.408 73.5787C107.738 72.6975 108.707 72.2356 109.6 72.5332V72.5332C110.408 72.8028 110.905 73.6163 110.776 74.4591L110.359 77.1677C110.152 78.5148 110.946 79.8152 112.239 80.2462V80.2462C113.542 80.6806 114.967 80.1044 115.603 78.8867L119.754 70.9294C120.189 70.0951 119.984 69.0703 119.261 68.4678L118.007 67.4227C117.673 67.1442 117.282 66.9418 116.862 66.8293L81.1257 57.267C80.567 57.1175 80.2284 56.5568 80.3658 55.995V55.995ZM59 56C61.2091 56 63 54.2091 63 52C63 49.7909 61.2091 48 59 48C56.7909 48 55 49.7909 55 52C55 54.2091 56.7909 56 59 56Z" fill="#754D20"/>
<path d="M119.278 70.1565C120.175 68.5131 119.364 66.4591 117.586 65.8716L78.645 53C78.2578 54.7924 79.5622 57.4777 78.6447 59.0014L102.408 66.9609C103.56 67.3468 104.176 68.5983 103.779 69.7465L103.741 69.8568C103.342 71.0095 104.018 72.2559 105.201 72.5517V72.5517C106.226 72.8079 107.28 72.2544 107.651 71.2653L107.908 70.58C108.238 69.6989 109.206 69.2369 110.099 69.5345V69.5345C110.908 69.8042 111.405 70.6177 111.275 71.4604L110.885 73.9996C110.662 75.4446 111.514 76.8395 112.901 77.3018L113.412 77.4723C114.331 77.7785 115.337 77.3827 115.801 76.5326L119.278 70.1565Z" fill="#FEB158"/>
<path fill-rule="evenodd" clip-rule="evenodd" d="M82.2287 55.8257C80.7542 55.3576 79.9075 53.8427 79.9811 52.2975C79.9936 52.0332 80 51.7674 80 51.5C80 42.3873 72.6127 35 63.5 35C54.3873 35 47 42.3873 47 51.5C47 60.6127 54.3873 68 63.5 68C68.6406 68 73.2322 65.6491 76.2583 61.9639C77.1505 60.8773 78.5934 60.3177 79.9265 60.7642L101.408 67.9596C102.56 68.3454 103.176 69.5969 102.779 70.7451L102.741 70.8555C102.343 72.0082 103.018 73.2545 104.201 73.5503V73.5503C105.226 73.8065 106.28 73.2531 106.651 72.264L106.908 71.5787C107.238 70.6975 108.207 70.2356 109.1 70.5332V70.5332C109.908 70.8028 110.405 71.6163 110.276 72.4591L109.846 75.2512C109.646 76.5501 110.412 77.8039 111.658 78.2195V78.2195C112.984 78.6613 114.427 78.0177 114.984 76.7365L118.116 69.5329C118.589 68.4456 118.017 67.188 116.887 66.8292L82.2287 55.8257ZM58 54C60.2091 54 62 52.2091 62 50C62 47.7909 60.2091 46 58 46C55.7909 46 54 47.7909 54 50C54 52.2091 55.7909 54 58 54Z" fill="#FD9B2A"/>
<path fill-rule="evenodd" clip-rule="evenodd" d="M53.1108 41.4806C52.3565 40.4476 52.6265 39.024 53.6522 38.2598C56.4009 36.212 59.8089 35 63.5001 35C66.1228 35 68.6026 35.6119 70.8045 36.7008C71.9488 37.2667 72.4706 38.6156 71.9169 39.7658C70.141 43.4543 66.3678 46 62.0001 46C58.3479 46 55.1115 44.2202 53.1108 41.4806Z" fill="#F8B262"/>
<path d="M56.762 49.8571C56.9188 48.7607 57 47.6398 57 46.5C57 41.4758 55.4233 36.8199 52.7378 33" stroke="url(#paint2_linear_408_117)" stroke-width="2"/>
<defs>
<linearGradient id="paint0_linear_408_117" x1="30.6224" y1="39.3061" x2="38.7755" y2="70" gradientUnits="userSpaceOnUse">
<stop stop-color="white"/>
<stop offset="1" stop-color="#A78E71"/>
</linearGradient>
<linearGradient id="paint1_linear_408_117" x1="30.6224" y1="39.3061" x2="38.7755" y2="70" gradientUnits="userSpaceOnUse">
<stop stop-color="white"/>
<stop offset="1" stop-color="#A78E71"/>
</linearGradient>
<linearGradient id="paint2_linear_408_117" x1="30.6224" y1="39.3061" x2="38.7755" y2="70" gradientUnits="userSpaceOnUse">
<stop stop-color="white"/>
<stop offset="1" stop-color="#A78E71"/>
</linearGradient>
</defs>
</svg>
