<svg width="131" height="95" viewBox="0 0 131 95" fill="none" xmlns="http://www.w3.org/2000/svg">
<path d="M39.934 35.4242L54.807 51.5455L68.9717 66.899L92.6604 58.9663L111 52.3131L39.934 35.4242Z" fill="black" fill-opacity="0.25"/>
<path d="M111 52.3131L82.7264 17L39.934 35.4242L111 52.3131Z" fill="black" fill-opacity="0.25"/>
<path d="M109.472 60.7576L111 52.3131L92.6604 58.9663L94.2075 67.3704L109.472 60.7576Z" fill="black" fill-opacity="0.25"/>
<path d="M101.929 93L109.472 60.7576L94.2075 67.3704L98.7736 92.1743L101.929 93Z" fill="black" fill-opacity="0.25"/>
<path d="M59.0377 81.7751L98.7736 92.1743L94.2075 67.3704L59.0377 81.7751Z" fill="black" fill-opacity="0.25"/>
<path d="M68.9717 66.899L54.807 51.5455L30 74.5758L59.0377 81.7751L94.2075 67.3704L92.6604 58.9663L68.9717 66.899Z" fill="black" fill-opacity="0.25"/>
<path d="M39.934 35.4242L30 74.5758L54.807 51.5455L39.934 35.4242Z" fill="black" fill-opacity="0.25"/>
<path d="M33.934 27.4242L24 66.5758L48.807 43.5455L33.934 27.4242Z" fill="#FB9520"/>
<path d="M62.9717 58.899L48.807 43.5455L24 66.5758L53.0377 73.7751L88.2075 59.3704L86.6604 50.9663L62.9717 58.899Z" fill="#FDA744"/>
<path d="M53.0377 73.7751L92.7736 84.1743L88.2075 59.3704L53.0377 73.7751Z" fill="#DC9544"/>
<path d="M103.472 52.7576L105 44.3131L86.6604 50.9663L88.2075 59.3704L103.472 52.7576Z" fill="#FB9521"/>
<path d="M95.9288 85L103.472 52.7576L88.2075 59.3704L92.7736 84.1743L95.9288 85Z" fill="#DA8627"/>
<path d="M33.934 27.4242L48.807 43.5455L62.9717 58.899L86.6604 50.9663L105 44.3131L33.934 27.4242Z" fill="#F28101"/>
<path d="M105 44.3131L76.7264 9L33.934 27.4242L105 44.3131Z" fill="#E57A00"/>
<path d="M39.6413 13.0835L101.959 17.2182L98.4416 68.279L36.1242 64.1444L39.6413 13.0835Z" fill="#DCDCDB"/>
<path d="M33.934 27.4242L24 66.5758L48.807 43.5455L33.934 27.4242Z" fill="#FB9520"/>
<path d="M62.9717 58.899L48.807 43.5455L24 66.5758L53.0377 73.7751L88.2075 59.3704L86.6604 50.9663L62.9717 58.899Z" fill="#FDA744"/>
<path d="M53.0377 73.7751L92.7736 84.1743L88.2075 59.3704L53.0377 73.7751Z" fill="#DC9544"/>
<path d="M103.472 52.7576L105 44.3131L86.6604 50.9663L88.2075 59.3704L103.472 52.7576Z" fill="#FB9521"/>
<path d="M95.9288 85L103.472 52.7576L88.2075 59.3704L92.7736 84.1743L95.9288 85Z" fill="#DA8627"/>
<path d="M61.2141 36.9508C61.0875 38.8796 59.4213 40.3407 57.4924 40.2141C55.5636 40.0876 54.1025 38.4213 54.2291 36.4925C54.3557 34.5636 56.0219 33.1026 57.9507 33.2291C59.8796 33.3557 61.3406 35.0219 61.2141 36.9508Z" fill="#D9D9D9"/>
<path d="M61.2141 36.9508C61.0875 38.8796 59.4213 40.3407 57.4924 40.2141C55.5636 40.0876 54.1025 38.4213 54.2291 36.4925C54.3557 34.5636 56.0219 33.1026 57.9507 33.2291C59.8796 33.3557 61.3406 35.0219 61.2141 36.9508Z" fill="url(#paint0_linear_419_510)"/>
<path d="M72.1905 37.671C72.0639 39.5998 70.3977 41.0609 68.4688 40.9343C66.54 40.8078 65.0789 39.1415 65.2055 37.2127C65.3321 35.2838 66.9983 33.8228 68.9271 33.9493C70.856 34.0759 72.317 35.7421 72.1905 37.671Z" fill="#D9D9D9"/>
<path d="M72.1905 37.671C72.0639 39.5998 70.3977 41.0609 68.4688 40.9343C66.54 40.8078 65.0789 39.1415 65.2055 37.2127C65.3321 35.2838 66.9983 33.8228 68.9271 33.9493C70.856 34.0759 72.317 35.7421 72.1905 37.671Z" fill="url(#paint1_linear_419_510)"/>
<path d="M83.1669 38.3912C83.0403 40.32 81.3741 41.7811 79.4452 41.6545C77.5164 41.5279 76.0553 39.8617 76.1819 37.9329C76.3085 36.004 77.9747 34.543 79.9035 34.6695C81.8324 34.7961 83.2934 36.4623 83.1669 38.3912Z" fill="#D9D9D9"/>
<path d="M83.1669 38.3912C83.0403 40.32 81.3741 41.7811 79.4452 41.6545C77.5164 41.5279 76.0553 39.8617 76.1819 37.9329C76.3085 36.004 77.9747 34.543 79.9035 34.6695C81.8324 34.7961 83.2934 36.4623 83.1669 38.3912Z" fill="url(#paint2_linear_419_510)"/>
<defs>
<linearGradient id="paint0_linear_419_510" x1="54.9048" y1="35.9054" x2="83.8648" y2="37.4456" gradientUnits="userSpaceOnUse">
<stop stop-color="#BEA588"/>
<stop offset="1" stop-color="#C7BCAF"/>
</linearGradient>
<linearGradient id="paint1_linear_419_510" x1="54.9048" y1="35.9054" x2="83.8648" y2="37.4456" gradientUnits="userSpaceOnUse">
<stop stop-color="#BEA588"/>
<stop offset="1" stop-color="#C7BCAF"/>
</linearGradient>
<linearGradient id="paint2_linear_419_510" x1="54.9048" y1="35.9054" x2="83.8648" y2="37.4456" gradientUnits="userSpaceOnUse">
<stop stop-color="#BEA588"/>
<stop offset="1" stop-color="#C7BCAF"/>
</linearGradient>
</defs>
</svg>
