<svg width="131" height="95" viewBox="0 0 131 95" fill="none" xmlns="http://www.w3.org/2000/svg">
<path d="M33.934 27.4242L24 66.5758L48.807 43.5455L33.934 27.4242Z" fill="#FB9520"/>
<path d="M62.9717 58.899L48.807 43.5455L24 66.5758L53.0377 73.7751L88.2075 59.3704L86.6604 50.9663L62.9717 58.899Z" fill="#FDA744"/>
<path d="M53.0377 73.7751L92.7736 84.1743L88.2075 59.3704L53.0377 73.7751Z" fill="#DC9544"/>
<path d="M103.472 52.7576L105 44.3131L86.6604 50.9663L88.2075 59.3704L103.472 52.7576Z" fill="#FB9521"/>
<path d="M95.9288 85L103.472 52.7576L88.2075 59.3704L92.7736 84.1743L95.9288 85Z" fill="#DA8627"/>
<path d="M33.934 27.4242L48.807 43.5455L62.9717 58.899L86.6604 50.9663L105 44.3131L33.934 27.4242Z" fill="#F28101"/>
<path d="M105 44.3131L76.7264 9L33.934 27.4242L105 44.3131Z" fill="#E57A00"/>
<path d="M39.6413 13.0835L101.959 17.2182L98.4416 68.279L36.1242 64.1444L39.6413 13.0835Z" fill="#DCDCDB"/>
<path d="M33.934 27.4242L24 66.5758L48.807 43.5455L33.934 27.4242Z" fill="#FB9520"/>
<path d="M62.9717 58.899L48.807 43.5455L24 66.5758L53.0377 73.7751L88.2075 59.3704L86.6604 50.9663L62.9717 58.899Z" fill="#FDA744"/>
<path d="M53.0377 73.7751L92.7736 84.1743L88.2075 59.3704L53.0377 73.7751Z" fill="#DC9544"/>
<path d="M103.472 52.7576L105 44.3131L86.6604 50.9663L88.2075 59.3704L103.472 52.7576Z" fill="#FB9521"/>
<path d="M95.9288 85L103.472 52.7576L88.2075 59.3704L92.7736 84.1743L95.9288 85Z" fill="#DA8627"/>
<path d="M81 40C81 46.6274 75.6274 52 69 52C62.3726 52 57 46.6274 57 40C57 33.3726 62.3726 28 69 28C75.6274 28 81 33.3726 81 40Z" fill="url(#paint0_linear_419_509)"/>
<path fill-rule="evenodd" clip-rule="evenodd" d="M75.0051 36.5549C75.5176 37.1426 75.4567 38.0344 74.8691 38.5468L68.3736 44.2121C68.0892 44.4602 67.7174 44.584 67.3411 44.5561C66.9648 44.5282 66.6154 44.3508 66.3708 44.0635L63.6898 40.9152C63.1843 40.3216 63.2558 39.4306 63.8494 38.9251C64.443 38.4196 65.3341 38.491 65.8396 39.0847L67.5943 41.1452L73.0132 36.419C73.6008 35.9065 74.4926 35.9673 75.0051 36.5549Z" fill="#DCDCDB"/>
<defs>
<linearGradient id="paint0_linear_419_509" x1="57.5262" y1="37.8396" x2="81.5286" y2="37.7679" gradientUnits="userSpaceOnUse">
<stop stop-color="#BEA588"/>
<stop offset="1" stop-color="#C7BCAF"/>
</linearGradient>
</defs>
</svg>
