<svg width="131" height="131" viewBox="0 0 131 131" fill="none" xmlns="http://www.w3.org/2000/svg">
<path d="M43.5 81L18 65L118 43L95 108L67.5 94L48 108.5L43.5 81Z" fill="black" fill-opacity="0.25"/>
<path d="M51.5 79L118 43L39 72L46.5 100L51.5 79Z" fill="url(#paint0_linear_408_221)"/>
<path d="M14.5 63.5L39 72L118 43L14.5 63.5Z" fill="#A57136"/>
<path fill-rule="evenodd" clip-rule="evenodd" d="M118 43L51.5 79L63.817 85.3638L81.5 94.5L118 43Z" fill="#9C6B33"/>
<path d="M51.5 79L46.5 100L63.817 85.3638L51.5 79Z" fill="#50391F"/>
<path d="M43.5 38.5L38 64L53.2317 49L43.5 38.5Z" fill="#FB9520"/>
<path d="M62.5 59L53.2317 49L38 64L56 68.6891L79.0123 59.307L78 53.8333L62.5 59Z" fill="#FDA744"/>
<path d="M56 68.6891L82 75.4622L79.0123 59.307L56 68.6891Z" fill="#DC9544"/>
<path d="M88.3502 55.5L89.5 50L78 53.8333L79.0123 59.307L88.3502 55.5Z" fill="#FB9521"/>
<path d="M84.0645 76L88.3502 55.5L79.0123 59.307L82 75.4622L84.0645 76Z" fill="#DA8627"/>
<path fill-rule="evenodd" clip-rule="evenodd" d="M71.5 26.5L89.5 50L43.5 38.5L71.5 26.5Z" fill="#E57A00"/>
<path d="M43.5 38.5L53.2317 49L62.5 59L78 53.8333L89.5 50L43.5 38.5Z" fill="#F28201"/>
<rect width="40.8644" height="33.3363" transform="matrix(0.997826 0.0658998 -0.0690341 0.997614 47.2344 29.1597)" fill="#DCDCDB"/>
<rect width="35.8792" height="10.0578" transform="matrix(0.997826 0.0658998 -0.0690341 0.997614 48.7725 40.998)" fill="url(#paint1_linear_408_221)"/>
<path d="M63.0785 45.1272C63.3892 44.4177 64.3203 44.4909 64.5379 45.2418C64.6305 45.5616 64.8799 45.7943 65.1796 45.8406C65.8834 45.9494 66.1084 46.9551 65.5323 47.4169C65.287 47.6135 65.1647 47.9487 65.2177 48.2794C65.3419 49.0561 64.5499 49.6045 63.9763 49.1389C63.732 48.9407 63.4071 48.9152 63.1401 49.0732C62.5131 49.4445 61.7986 48.7777 62.0201 48.0282C62.1145 47.709 62.0359 47.3581 61.818 47.125C61.3062 46.5778 61.6567 45.6173 62.3672 45.6197C62.6698 45.6207 62.9462 45.4293 63.0785 45.1272Z" fill="white"/>
<path d="M63.0785 45.1272C63.3892 44.4177 64.3203 44.4909 64.5379 45.2418C64.6305 45.5616 64.8799 45.7943 65.1796 45.8406C65.8834 45.9494 66.1084 46.9551 65.5323 47.4169C65.287 47.6135 65.1647 47.9487 65.2177 48.2794C65.3419 49.0561 64.5499 49.6045 63.9763 49.1389C63.732 48.9407 63.4071 48.9152 63.1401 49.0732C62.5131 49.4445 61.7986 48.7777 62.0201 48.0282C62.1145 47.709 62.0359 47.3581 61.818 47.125C61.3062 46.5778 61.6567 45.6173 62.3672 45.6197C62.6698 45.6207 62.9462 45.4293 63.0785 45.1272Z" fill="white"/>
<path d="M70.1438 45.6823C70.4545 44.9728 71.3856 45.046 71.6032 45.7969C71.6959 46.1167 71.9452 46.3494 72.2449 46.3957C72.9487 46.5045 73.1738 47.5102 72.5977 47.9719C72.3523 48.1686 72.2301 48.5038 72.283 48.8345C72.4073 49.6112 71.6152 50.1596 71.0416 49.694C70.7973 49.4958 70.4724 49.4702 70.2054 49.6283C69.5785 49.9995 68.8639 49.3328 69.0855 48.5833C69.1798 48.2641 69.1013 47.9132 68.8834 47.6801C68.3716 47.1329 68.722 46.1724 69.4326 46.1747C69.7351 46.1757 70.0115 45.9844 70.1438 45.6823Z" fill="white"/>
<path d="M70.1438 45.6823C70.4545 44.9728 71.3856 45.046 71.6032 45.7969C71.6959 46.1167 71.9452 46.3494 72.2449 46.3957C72.9487 46.5045 73.1738 47.5102 72.5977 47.9719C72.3523 48.1686 72.2301 48.5038 72.283 48.8345C72.4073 49.6112 71.6152 50.1596 71.0416 49.694C70.7973 49.4958 70.4724 49.4702 70.2054 49.6283C69.5785 49.9995 68.8639 49.3328 69.0855 48.5833C69.1798 48.2641 69.1013 47.9132 68.8834 47.6801C68.3716 47.1329 68.722 46.1724 69.4326 46.1747C69.7351 46.1757 70.0115 45.9844 70.1438 45.6823Z" fill="white"/>
<path d="M78.2186 46.3169C78.5293 45.6074 79.4604 45.6806 79.678 46.4315C79.7706 46.7513 80.02 46.984 80.3197 47.0303C81.0234 47.1391 81.2485 48.1448 80.6724 48.6066C80.4271 48.8032 80.3048 49.1384 80.3577 49.4691C80.482 50.2458 79.69 50.7942 79.1164 50.3286C78.8721 50.1304 78.5472 50.1049 78.2802 50.2629C77.6532 50.6341 76.5 50.2629 77.1602 49.2179C77.2546 48.8987 76.7179 48.733 76.5 48.5C75.9882 47.9528 76.7967 46.807 77.5073 46.8093C77.8099 46.8103 78.0863 46.619 78.2186 46.3169Z" fill="white"/>
<path d="M78.2186 46.3169C78.5293 45.6074 79.4604 45.6806 79.678 46.4315C79.7706 46.7513 80.02 46.984 80.3197 47.0303C81.0234 47.1391 81.2485 48.1448 80.6724 48.6066C80.4271 48.8032 80.3048 49.1384 80.3577 49.4691C80.482 50.2458 79.69 50.7942 79.1164 50.3286C78.8721 50.1304 78.5472 50.1049 78.2802 50.2629C77.6532 50.6341 76.5 50.2629 77.1602 49.2179C77.2546 48.8987 76.7179 48.733 76.5 48.5C75.9882 47.9528 76.7967 46.807 77.5073 46.8093C77.8099 46.8103 78.0863 46.619 78.2186 46.3169Z" fill="white"/>
<path d="M55.0035 44.4926C55.3142 43.7831 56.2453 43.8563 56.4629 44.6072C56.5555 44.927 56.8049 45.1597 57.1046 45.206C57.8084 45.3148 58.0334 46.3205 57.4573 46.7823C57.212 46.9789 57.0897 47.3141 57.1427 47.6448C57.2669 48.4215 56.4749 48.9699 55.9013 48.5043C55.657 48.3061 55.3321 48.2806 55.0651 48.4386C54.4381 48.8098 53.7236 48.1431 53.9451 47.3936C54.0395 47.0744 53.961 46.7235 53.743 46.4904C53.2313 45.9432 53.5817 44.9827 54.2922 44.9851C54.5948 44.986 54.8712 44.7947 55.0035 44.4926Z" fill="white"/>
<path d="M55.0035 44.4926C55.3142 43.7831 56.2453 43.8563 56.4629 44.6072C56.5555 44.927 56.8049 45.1597 57.1046 45.206C57.8084 45.3148 58.0334 46.3205 57.4573 46.7823C57.212 46.9789 57.0897 47.3141 57.1427 47.6448C57.2669 48.4215 56.4749 48.9699 55.9013 48.5043C55.657 48.3061 55.3321 48.2806 55.0651 48.4386C54.4381 48.8098 53.7236 48.1431 53.9451 47.3936C54.0395 47.0744 53.961 46.7235 53.743 46.4904C53.2313 45.9432 53.5817 44.9827 54.2922 44.9851C54.5948 44.986 54.8712 44.7947 55.0035 44.4926Z" fill="white"/>
<path d="M43.5 38.5L37 64L53.2317 49L43.5 38.5Z" fill="#FB9520"/>
<path d="M62.5 59L53.2317 49L37 64L56 68.6891L79.0123 59.307L78 53.8333L62.5 59Z" fill="#FDA744"/>
<path d="M56 68.6891L82 75.4622L79.0123 59.307L56 68.6891Z" fill="#DC9544"/>
<path d="M89 55L90 49.5L78 53.8333L79.0123 59.307L89 55Z" fill="#FB9521"/>
<path d="M84.0645 76L89 55L79.0123 59.307L82 75.4622L84.0645 76Z" fill="#DA8627"/>
<path fill-rule="evenodd" clip-rule="evenodd" d="M118 43L51.5 79L63.817 85.3638L81.5 94.5L118 43Z" fill="#9C6B33"/>
<path d="M51.5 79L46.5 100L63.817 85.3638L51.5 79Z" fill="#50391F"/>
<defs>
<linearGradient id="paint0_linear_408_221" x1="40.375" y1="72.7611" x2="60.5739" y2="89.5219" gradientUnits="userSpaceOnUse">
<stop stop-color="#5D4122"/>
<stop offset="0.996681" stop-color="#2D1F10"/>
</linearGradient>
<linearGradient id="paint1_linear_408_221" x1="0.786685" y1="4.12352" x2="36.6657" y2="3.74092" gradientUnits="userSpaceOnUse">
<stop stop-color="#BEA588"/>
<stop offset="1" stop-color="#C7BCAF"/>
</linearGradient>
</defs>
</svg>
