<svg width="131" height="95" viewBox="0 0 131 95" fill="none" xmlns="http://www.w3.org/2000/svg">
<path d="M71 67.6331L75 68.6328C77.0002 60.0493 80 45.6334 80 45.6334C83 34.6333 76.5 23.5 67 22.6333C67 22.6333 59.5391 20.9331 53 21.6336C39 23.1334 37 32.1334 35 49.6339L34 60.6339L37.5 61.1328L38.5 51.1339C40.5 34.6334 41.5 26.7369 55 25.1334C58.71 24.6928 65.9998 25.7652 65.9998 25.7652C82 30.6339 75.0002 49.6331 71 67.6331Z" fill="black" fill-opacity="0.25"/>
<path d="M71 67.6331C75.0002 49.6331 82 30.6339 65.9998 25.7652C65.9998 25.7652 58.71 24.6928 55 25.1334C41.5 26.7369 40.5 34.6334 38.5 51.1339L37.5 61.1328L71 67.6331Z" fill="black" fill-opacity="0.25"/>
<path d="M74.4998 71.7164L75 68.6328L65.9998 67.2161L65.4998 70.2161L74.4998 71.7164Z" fill="black" fill-opacity="0.25"/>
<path d="M75 68.6328L74.4998 71.7164L98.5002 76.6334C99.2635 72.4645 100.064 68.6185 100.804 65.0638C103.229 53.4195 104.855 45.2589 102.474 38.9455C101.938 37.5233 101.784 35.7534 100.804 34.5C98.1836 31.1463 96.5 27.5 86.5 26.1334L67 22.6333C76.5 23.5 83 34.6333 80 45.6334C80 45.6334 77.0002 60.0493 75 68.6328Z" fill="black" fill-opacity="0.25"/>
<path d="M65.4998 70.2161L65.9998 67.2161L29 60.2607V63.274L65.4998 70.2161Z" fill="black" fill-opacity="0.25"/>
<path d="M75 68.6328L71 67.6331L37.5 61.1328L34 60.6339L31.2656 60.2607H29L65.9998 67.2161L75 68.6328Z" fill="black" fill-opacity="0.25"/>
<path d="M49.9978 78.3869L52.7188 62L66 64.0833L62.5263 80.733C61.8051 84.1898 58.4111 86.4016 54.9574 85.6655C51.6243 84.9552 49.4395 81.7488 49.9978 78.3869Z" fill="url(#paint0_linear_416_467)"/>
<path d="M63 62.0002L67 63C69.0002 54.4165 72 40.0006 72 40.0006C75 29.0005 68.5 18 59 17.0005C59 17.0005 51.5391 15.3003 45 16.0008C31 17.5006 29 26.5006 27 44.0011L26 55.001L29.5 55.5L30.5 45.5011C32.5 29.0006 33.5 21.1041 47 19.5006C50.71 19.06 57.9998 20.1324 57.9998 20.1324C74 25.0011 67.0002 44.0002 63 62.0002Z" fill="url(#paint1_linear_416_467)"/>
<path d="M63 62.0002C67.0002 44.0002 74 25.0011 57.9998 20.1324C57.9998 20.1324 50.71 19.06 47 19.5006C33.5 21.1041 32.5 29.0006 30.5 45.5011L29.5 55.5L63 62.0002Z" fill="url(#paint2_radial_416_467)"/>
<path d="M123.5 27.0005C123.5 27.0005 109.787 21.2105 101 17.5005C98.5825 23.3584 94.8095 32.5005 94.8095 32.5005L116 42.0005L114 31.0005L123.5 27.0005Z" fill="#A26E33"/>
<path d="M92.219 29.3087C93.1986 30.5621 93.9381 31.8905 94.4743 33.3127L94.8095 32.5005C94.8095 32.5005 98.5825 23.3584 101 17.5005C101.5 16.5002 101.627 14.8759 100.5 14.5002C99 14.0001 98 15.0002 97.5 16.0008L92.219 29.3087Z" fill="#634522"/>
<path fill-rule="evenodd" clip-rule="evenodd" d="M66.4998 66.0835L67 63C69.0002 54.4165 72 40.0006 72 40.0006C75 29.0005 68.5 18 59 17.0005L78.5 20.5006C85.2593 23.1384 89.5982 25.955 92.219 29.3087L84.5 47.5002L88 49.0005L94.4743 33.3127C96.8548 39.6261 95.2289 47.7867 92.8044 59.431C92.0643 62.9857 91.2635 66.8317 90.5002 71.0005L66.4998 66.0835Z" fill="#A67134"/>
<path d="M84.5 47.5002L88 49.0005L94.4743 33.3127C93.9381 31.8905 93.1986 30.5621 92.219 29.3087L84.5 47.5002Z" fill="#634522"/>
<path d="M67 63L63 62.0002L29.5 55.5L26 55.001L15 53.5L57.9998 61.5833L67 63Z" fill="#6A4924"/>
<path d="M66.4998 66.0835L67 63L57.9998 61.5833L57.4998 64.5833L66.4998 66.0835Z" fill="#6A4924"/>
<path d="M15 53.5V54.8445C15 55.805 15.6828 56.6299 16.6263 56.8093L57.4998 64.5833L57.9998 61.5833L15 53.5Z" fill="#6A4924"/>
<path d="M20.5 17L10 38.5L26.3537 27L20.5 17Z" fill="#F9921D"/>
<path d="M46.25 36.5L32.5 37.5L26.3537 27L10 38.5L49 56.5L46.25 36.5Z" fill="#FEB158"/>
<path d="M50 57L60 35.5L46.25 36.5L49 56.5L50 57Z" fill="#FC9A2A"/>
<path d="M60 35.5L47.5 11.5L20.5 17L26.3537 27L32.5 37.5L46.25 36.5L60 35.5Z" fill="#E47A01"/>
<ellipse cx="81.5" cy="51" rx="7.5" ry="9" fill="url(#paint3_linear_416_467)"/>
<ellipse cx="84" cy="51.75" rx="7" ry="8.25" fill="url(#paint4_radial_416_467)"/>
<path d="M123.5 27.0005C123.5 27.0005 109.787 21.2105 101 17.5005C98.5825 23.3584 94.8095 32.5005 94.8095 32.5005L116 42.0005L114 31.0005L123.5 27.0005Z" fill="#A26E33"/>
<path d="M92.219 29.3087C93.1986 30.5621 93.9381 31.8905 94.4743 33.3127L94.8095 32.5005C94.8095 32.5005 98.5825 23.3584 101 17.5005C101.5 16.5002 101.627 14.8759 100.5 14.5002C99 14.0001 98 15.0002 97.5 16.0008L92.219 29.3087Z" fill="url(#paint5_linear_416_467)"/>
<path d="M84.5 47.5002L88 49.0005L94.4743 33.3127C93.9381 31.8905 93.1986 30.5621 92.219 29.3087L84.5 47.5002Z" fill="url(#paint6_linear_416_467)"/>
<circle cx="85.5" cy="50.5" r="3.5" fill="url(#paint7_linear_416_467)"/>
<rect width="34.0029" height="25.5028" transform="matrix(0.96076 0.277381 -0.291364 0.956612 26.8811 11.4189)" fill="#DCDCDB"/>
<path d="M20.5 17L10 38.5L26.3537 27L20.5 17Z" fill="#F9921D"/>
<path d="M46.25 36.5L32.5 37.5L26.3537 27L10 38.5L49 56.5L46.25 36.5Z" fill="#FEB158"/>
<path d="M50 57L60 35.5L46.25 36.5L49 56.5L50 57Z" fill="#FC9A2A"/>
<path fill-rule="evenodd" clip-rule="evenodd" d="M37.364 35.9175C41.431 37.1268 45.7083 34.8101 46.9175 30.7431C48.1268 26.6761 45.8101 22.3988 41.7431 21.1896C37.6761 19.9803 33.3989 22.297 32.1896 26.364C30.9803 30.431 33.297 34.7082 37.364 35.9175ZM43.4202 28.7327C43.8743 28.5254 44.0744 27.9892 43.8671 27.5351C43.6598 27.081 43.1237 26.8809 42.6696 27.0882L38.4818 28.9998L37.7809 27.4151C37.579 26.9586 37.0453 26.7522 36.5888 26.9541C36.1322 27.156 35.9258 27.6897 36.1277 28.1463L37.1985 30.5674C37.2962 30.7883 37.4782 30.9609 37.7041 31.0467C37.9299 31.1325 38.1806 31.1244 38.4004 31.024L43.4202 28.7327Z" fill="url(#paint8_linear_416_467)"/>
<defs>
<linearGradient id="paint0_linear_416_467" x1="63.5" y1="76" x2="52" y2="73.5" gradientUnits="userSpaceOnUse">
<stop offset="0.484375" stop-color="#A57033"/>
<stop offset="0.630208" stop-color="#745027"/>
<stop offset="1" stop-color="#4B341A"/>
</linearGradient>
<linearGradient id="paint1_linear_416_467" x1="23.5539" y1="20.7457" x2="53.2845" y2="58.9526" gradientUnits="userSpaceOnUse">
<stop stop-color="#755128"/>
<stop offset="1" stop-color="#442F17"/>
</linearGradient>
<radialGradient id="paint2_radial_416_467" cx="0" cy="0" r="1" gradientUnits="userSpaceOnUse" gradientTransform="translate(12 68) rotate(-28.6476) scale(61.5325 56.2218)">
<stop offset="0.425343" stop-color="#6C4A24"/>
<stop offset="1" stop-color="#080400"/>
</radialGradient>
<linearGradient id="paint3_linear_416_467" x1="77.5" y1="58.5" x2="80.617" y2="42.0221" gradientUnits="userSpaceOnUse">
<stop offset="0.229167" stop-color="#5A3E1F"/>
<stop offset="1" stop-color="#2C1E0E"/>
</linearGradient>
<radialGradient id="paint4_radial_416_467" cx="0" cy="0" r="1" gradientUnits="userSpaceOnUse" gradientTransform="translate(85 57.0882) rotate(-108.954) scale(12.3148 18.1346)">
<stop offset="0.15625" stop-color="#7B562B"/>
<stop offset="1" stop-color="#BA8243"/>
</radialGradient>
<linearGradient id="paint5_linear_416_467" x1="88" y1="38.5" x2="91.5" y2="40" gradientUnits="userSpaceOnUse">
<stop stop-color="#634522"/>
<stop offset="1" stop-color="#4A3319"/>
</linearGradient>
<linearGradient id="paint6_linear_416_467" x1="88" y1="38.5" x2="91.5" y2="40" gradientUnits="userSpaceOnUse">
<stop stop-color="#634522"/>
<stop offset="1" stop-color="#4A3319"/>
</linearGradient>
<linearGradient id="paint7_linear_416_467" x1="82.5" y1="48.5" x2="85.7773" y2="51.7175" gradientUnits="userSpaceOnUse">
<stop offset="0.458336" stop-color="#634522"/>
<stop offset="1" stop-color="#4A3319"/>
</linearGradient>
<linearGradient id="paint8_linear_416_467" x1="32.9067" y1="25.1342" x2="47.6492" y2="29.4697" gradientUnits="userSpaceOnUse">
<stop stop-color="#BEA588"/>
<stop offset="1" stop-color="#C7BCAF"/>
</linearGradient>
</defs>
</svg>
