<svg width="131" height="131" viewBox="0 0 131 131" fill="none" xmlns="http://www.w3.org/2000/svg">
<path d="M71 85.6331L75 86.6328C77.0002 78.0493 80 63.6334 80 63.6334C83 52.6333 76.5 41.5 67 40.6333C67 40.6333 59.5391 38.9331 53 39.6336C39 41.1334 37 50.1334 35 67.6339L34 78.6339L37.5 79.1328L38.5 69.1339C40.5 52.6334 41.5 44.7369 55 43.1334C58.71 42.6928 65.9998 43.7652 65.9998 43.7652C82 48.6339 75.0002 67.6331 71 85.6331Z" fill="black" fill-opacity="0.25"/>
<path d="M71 85.6331C75.0002 67.6331 82 48.6339 65.9998 43.7652C65.9998 43.7652 58.71 42.6928 55 43.1334C41.5 44.7369 40.5 52.6334 38.5 69.1339L37.5 79.1328L71 85.6331Z" fill="black" fill-opacity="0.25"/>
<path d="M74.4998 89.7164L75 86.6328L65.9998 85.2161L65.4998 88.2161L74.4998 89.7164Z" fill="black" fill-opacity="0.25"/>
<path d="M75 86.6328L74.4998 89.7164L98.5002 94.6334C99.2635 90.4645 100.064 86.6185 100.804 83.0638C103.229 71.4195 104.855 63.2589 102.474 56.9455C101.938 55.5233 101.784 53.7534 100.804 52.5C98.1836 49.1463 96.5 45.5 86.5 44.1334L67 40.6333C76.5 41.5 83 52.6333 80 63.6334C80 63.6334 77.0002 78.0493 75 86.6328Z" fill="black" fill-opacity="0.25"/>
<path d="M65.4998 88.2161L65.9998 85.2161L29 78.2607V81.274L65.4998 88.2161Z" fill="black" fill-opacity="0.25"/>
<path d="M75 86.6328L71 85.6331L37.5 79.1328L34 78.6339L31.2656 78.2607H29L65.9998 85.2161L75 86.6328Z" fill="black" fill-opacity="0.25"/>
<path d="M49.9978 96.3869L52.7188 80L66 82.0833L62.5263 98.733C61.8051 102.19 58.4111 104.402 54.9574 103.666C51.6243 102.955 49.4395 99.7488 49.9978 96.3869Z" fill="url(#paint0_linear_410_326)"/>
<path d="M63 80.0002L67 81C69.0002 72.4165 72 58.0006 72 58.0006C75 47.0005 68.5 36 59 35.0005C59 35.0005 51.5391 33.3003 45 34.0008C31 35.5006 29 44.5006 27 62.0011L26 73.001L29.5 73.5L30.5 63.5011C32.5 47.0006 33.5 39.1041 47 37.5006C50.71 37.06 57.9998 38.1324 57.9998 38.1324C74 43.0011 67.0002 62.0002 63 80.0002Z" fill="url(#paint1_linear_410_326)"/>
<path d="M63 80.0002C67.0002 62.0002 74 43.0011 57.9998 38.1324C57.9998 38.1324 50.71 37.06 47 37.5006C33.5 39.1041 32.5 47.0006 30.5 63.5011L29.5 73.5L63 80.0002Z" fill="url(#paint2_radial_410_326)"/>
<path d="M123.5 45.0005C123.5 45.0005 109.787 39.2105 101 35.5005C98.5825 41.3584 94.8095 50.5005 94.8095 50.5005L116 60.0005L114 49.0005L123.5 45.0005Z" fill="#A26E33"/>
<path d="M92.219 47.3087C93.1986 48.5621 93.9381 49.8905 94.4743 51.3127L94.8095 50.5005C94.8095 50.5005 98.5825 41.3584 101 35.5005C101.5 34.5002 101.627 32.8759 100.5 32.5002C99 32.0001 98 33.0002 97.5 34.0008L92.219 47.3087Z" fill="#634522"/>
<path fill-rule="evenodd" clip-rule="evenodd" d="M66.4998 84.0835L67 81C69.0002 72.4165 72 58.0006 72 58.0006C75 47.0005 68.5 36 59 35.0005L78.5 38.5006C85.2593 41.1384 89.5982 43.955 92.219 47.3087L84.5 65.5002L88 67.0005L94.4743 51.3127C96.8548 57.6261 95.2289 65.7867 92.8044 77.431C92.0643 80.9857 91.2635 84.8317 90.5002 89.0005L66.4998 84.0835Z" fill="#A67134"/>
<path d="M84.5 65.5002L88 67.0005L94.4743 51.3127C93.9381 49.8905 93.1986 48.5621 92.219 47.3087L84.5 65.5002Z" fill="#634522"/>
<path d="M67 81L63 80.0002L29.5 73.5L26 73.001L15 71.5L57.9998 79.5833L67 81Z" fill="#6A4924"/>
<path d="M66.4998 84.0835L67 81L57.9998 79.5833L57.4998 82.5833L66.4998 84.0835Z" fill="#6A4924"/>
<path d="M15 71.5V72.8445C15 73.805 15.6828 74.6299 16.6263 74.8093L57.4998 82.5833L57.9998 79.5833L15 71.5Z" fill="#6A4924"/>
<path d="M20.5 35L10 56.5L26.3537 45L20.5 35Z" fill="#F9921D"/>
<path d="M46.25 54.5L32.5 55.5L26.3537 45L10 56.5L49 74.5L46.25 54.5Z" fill="#FEB158"/>
<path d="M50 75L60 53.5L46.25 54.5L49 74.5L50 75Z" fill="#FC9A2A"/>
<path d="M60 53.5L47.5 29.5L20.5 35L26.3537 45L32.5 55.5L46.25 54.5L60 53.5Z" fill="#E47A01"/>
<path fill-rule="evenodd" clip-rule="evenodd" d="M45.9068 40.8999L46.5749 44.9088L28.105 48.0751L27.2556 43.828C27.0656 42.878 27.6817 41.9538 28.6317 41.7638C29.6034 41.5695 30.5431 42.2181 30.7061 43.1956L30.8969 44.3407L31.4025 44.1721L31.2648 43.6213C31.0598 42.8012 31.5585 41.97 32.3786 41.765C33.1988 41.56 34.0299 42.0586 34.235 42.8788L34.3674 43.4085L45.9068 40.8999Z" fill="#FEEDD9"/>
<path fill-rule="evenodd" clip-rule="evenodd" d="M52 49C55.866 49 59 45.866 59 42C59 38.134 55.866 35 52 35C48.2908 35 45.2555 37.8849 45.0153 41.5333C45.0052 41.6876 45 41.8432 45 42C45 42.5687 45.0678 43.1215 45.1958 43.6509C45.9379 46.7202 48.7027 49 52 49ZM54.25 43C55.2165 43 56 42.2165 56 41.25C56 40.2835 55.2165 39.5 54.25 39.5C53.2835 39.5 52.5 40.2835 52.5 41.25C52.5 42.2165 53.2835 43 54.25 43Z" fill="#FEEDD9"/>
<ellipse cx="81.5" cy="69" rx="7.5" ry="9" fill="url(#paint3_linear_410_326)"/>
<ellipse cx="84" cy="69.75" rx="7" ry="8.25" fill="url(#paint4_radial_410_326)"/>
<circle cx="85.5" cy="68.5" r="3.5" fill="url(#paint5_linear_410_326)"/>
<path d="M123.5 45.0005C123.5 45.0005 109.787 39.2105 101 35.5005C98.5825 41.3584 94.8095 50.5005 94.8095 50.5005L116 60.0005L114 49.0005L123.5 45.0005Z" fill="#A26E33"/>
<path d="M92.219 47.3087C93.1986 48.5621 93.9381 49.8905 94.4743 51.3127L94.8095 50.5005C94.8095 50.5005 98.5825 41.3584 101 35.5005C101.5 34.5002 101.627 32.8759 100.5 32.5002C99 32.0001 98 33.0002 97.5 34.0008L92.219 47.3087Z" fill="url(#paint6_linear_410_326)"/>
<path d="M84.5 65.5002L88 67.0005L94.4743 51.3127C93.9381 49.8905 93.1986 48.5621 92.219 47.3087L84.5 65.5002Z" fill="url(#paint7_linear_410_326)"/>
<defs>
<linearGradient id="paint0_linear_410_326" x1="63.5" y1="94" x2="52" y2="91.5" gradientUnits="userSpaceOnUse">
<stop offset="0.484375" stop-color="#A57033"/>
<stop offset="0.630208" stop-color="#745027"/>
<stop offset="1" stop-color="#4B341A"/>
</linearGradient>
<linearGradient id="paint1_linear_410_326" x1="23.5539" y1="38.7457" x2="53.2845" y2="76.9526" gradientUnits="userSpaceOnUse">
<stop stop-color="#755128"/>
<stop offset="1" stop-color="#442F17"/>
</linearGradient>
<radialGradient id="paint2_radial_410_326" cx="0" cy="0" r="1" gradientUnits="userSpaceOnUse" gradientTransform="translate(12 86) rotate(-28.6476) scale(61.5325 56.2218)">
<stop offset="0.425343" stop-color="#6C4A24"/>
<stop offset="1" stop-color="#080400"/>
</radialGradient>
<linearGradient id="paint3_linear_410_326" x1="77.5" y1="76.5" x2="80.617" y2="60.0221" gradientUnits="userSpaceOnUse">
<stop offset="0.229167" stop-color="#5A3E1F"/>
<stop offset="1" stop-color="#2C1E0E"/>
</linearGradient>
<radialGradient id="paint4_radial_410_326" cx="0" cy="0" r="1" gradientUnits="userSpaceOnUse" gradientTransform="translate(85 75.0882) rotate(-108.954) scale(12.3148 18.1346)">
<stop offset="0.15625" stop-color="#7B562B"/>
<stop offset="1" stop-color="#BA8243"/>
</radialGradient>
<linearGradient id="paint5_linear_410_326" x1="82.5" y1="66.5" x2="85.7773" y2="69.7175" gradientUnits="userSpaceOnUse">
<stop offset="0.458336" stop-color="#634522"/>
<stop offset="1" stop-color="#4A3319"/>
</linearGradient>
<linearGradient id="paint6_linear_410_326" x1="88" y1="56.5" x2="91.5" y2="58" gradientUnits="userSpaceOnUse">
<stop stop-color="#634522"/>
<stop offset="1" stop-color="#4A3319"/>
</linearGradient>
<linearGradient id="paint7_linear_410_326" x1="88" y1="56.5" x2="91.5" y2="58" gradientUnits="userSpaceOnUse">
<stop stop-color="#634522"/>
<stop offset="1" stop-color="#4A3319"/>
</linearGradient>
</defs>
</svg>
