<svg width="131" height="95" viewBox="0 0 131 95" fill="none" xmlns="http://www.w3.org/2000/svg">
<path d="M43.5 62L18 46L118 24L95 89L67.5 75L48 89.5L43.5 62Z" fill="black" fill-opacity="0.25"/>
<path d="M51.5 60L118 24L39 53L46.5 81L51.5 60Z" fill="url(#paint0_linear_408_221)"/>
<path d="M14.5 44.5L39 53L118 24L14.5 44.5Z" fill="#A57136"/>
<path fill-rule="evenodd" clip-rule="evenodd" d="M118 24L51.5 60L63.817 66.3638L81.5 75.5L118 24Z" fill="#9C6B33"/>
<path d="M51.5 60L46.5 81L63.817 66.3638L51.5 60Z" fill="#50391F"/>
<path d="M43.5 19.5L38 45L53.2317 30L43.5 19.5Z" fill="#FB9520"/>
<path d="M62.5 40L53.2317 30L38 45L56 49.6891L79.0123 40.307L78 34.8333L62.5 40Z" fill="#FDA744"/>
<path d="M56 49.6891L82 56.4622L79.0123 40.307L56 49.6891Z" fill="#DC9544"/>
<path d="M88.3502 36.5L89.5 31L78 34.8333L79.0123 40.307L88.3502 36.5Z" fill="#FB9521"/>
<path d="M84.0645 57L88.3502 36.5L79.0123 40.307L82 56.4622L84.0645 57Z" fill="#DA8627"/>
<path fill-rule="evenodd" clip-rule="evenodd" d="M71.5 7.5L89.5 31L43.5 19.5L71.5 7.5Z" fill="#E57A00"/>
<path d="M43.5 19.5L53.2317 30L62.5 40L78 34.8333L89.5 31L43.5 19.5Z" fill="#F28201"/>
<rect width="40.8644" height="33.3363" transform="matrix(0.997826 0.0658998 -0.0690341 0.997614 47.2344 10.1597)" fill="#DCDCDB"/>
<rect width="35.8792" height="10.0578" transform="matrix(0.997826 0.0658998 -0.0690341 0.997614 48.7725 21.998)" fill="url(#paint1_linear_408_221)"/>
<path d="M63.0785 26.1272C63.3892 25.4177 64.3203 25.4909 64.5379 26.2418C64.6305 26.5616 64.8799 26.7943 65.1796 26.8406C65.8834 26.9494 66.1084 27.9551 65.5323 28.4169C65.287 28.6135 65.1647 28.9487 65.2177 29.2794C65.3419 30.0561 64.5499 30.6045 63.9763 30.1389C63.732 29.9407 63.4071 29.9152 63.1401 30.0732C62.5131 30.4445 61.7986 29.7777 62.0201 29.0282C62.1145 28.709 62.0359 28.3581 61.818 28.125C61.3062 27.5778 61.6567 26.6173 62.3672 26.6197C62.6698 26.6207 62.9462 26.4293 63.0785 26.1272Z" fill="white"/>
<path d="M63.0785 26.1272C63.3892 25.4177 64.3203 25.4909 64.5379 26.2418C64.6305 26.5616 64.8799 26.7943 65.1796 26.8406C65.8834 26.9494 66.1084 27.9551 65.5323 28.4169C65.287 28.6135 65.1647 28.9487 65.2177 29.2794C65.3419 30.0561 64.5499 30.6045 63.9763 30.1389C63.732 29.9407 63.4071 29.9152 63.1401 30.0732C62.5131 30.4445 61.7986 29.7777 62.0201 29.0282C62.1145 28.709 62.0359 28.3581 61.818 28.125C61.3062 27.5778 61.6567 26.6173 62.3672 26.6197C62.6698 26.6207 62.9462 26.4293 63.0785 26.1272Z" fill="white"/>
<path d="M70.1438 26.6823C70.4545 25.9728 71.3856 26.046 71.6032 26.7969C71.6959 27.1167 71.9452 27.3494 72.2449 27.3957C72.9487 27.5045 73.1738 28.5102 72.5977 28.9719C72.3523 29.1686 72.2301 29.5038 72.283 29.8345C72.4073 30.6112 71.6152 31.1596 71.0416 30.694C70.7973 30.4958 70.4724 30.4702 70.2054 30.6283C69.5785 30.9995 68.8639 30.3328 69.0855 29.5833C69.1798 29.2641 69.1013 28.9132 68.8834 28.6801C68.3716 28.1329 68.722 27.1724 69.4326 27.1747C69.7351 27.1757 70.0115 26.9844 70.1438 26.6823Z" fill="white"/>
<path d="M70.1438 26.6823C70.4545 25.9728 71.3856 26.046 71.6032 26.7969C71.6959 27.1167 71.9452 27.3494 72.2449 27.3957C72.9487 27.5045 73.1738 28.5102 72.5977 28.9719C72.3523 29.1686 72.2301 29.5038 72.283 29.8345C72.4073 30.6112 71.6152 31.1596 71.0416 30.694C70.7973 30.4958 70.4724 30.4702 70.2054 30.6283C69.5785 30.9995 68.8639 30.3328 69.0855 29.5833C69.1798 29.2641 69.1013 28.9132 68.8834 28.6801C68.3716 28.1329 68.722 27.1724 69.4326 27.1747C69.7351 27.1757 70.0115 26.9844 70.1438 26.6823Z" fill="white"/>
<path d="M78.2186 27.3169C78.5293 26.6074 79.4604 26.6806 79.678 27.4315C79.7706 27.7513 80.02 27.984 80.3197 28.0303C81.0234 28.1391 81.2485 29.1448 80.6724 29.6066C80.4271 29.8032 80.3048 30.1384 80.3577 30.4691C80.482 31.2458 79.69 31.7942 79.1164 31.3286C78.8721 31.1304 78.5472 31.1049 78.2802 31.2629C77.6532 31.6341 76.5 31.2629 77.1602 30.2179C77.2546 29.8987 76.7179 29.733 76.5 29.5C75.9882 28.9528 76.7967 27.807 77.5073 27.8093C77.8099 27.8103 78.0863 27.619 78.2186 27.3169Z" fill="white"/>
<path d="M78.2186 27.3169C78.5293 26.6074 79.4604 26.6806 79.678 27.4315C79.7706 27.7513 80.02 27.984 80.3197 28.0303C81.0234 28.1391 81.2485 29.1448 80.6724 29.6066C80.4271 29.8032 80.3048 30.1384 80.3577 30.4691C80.482 31.2458 79.69 31.7942 79.1164 31.3286C78.8721 31.1304 78.5472 31.1049 78.2802 31.2629C77.6532 31.6341 76.5 31.2629 77.1602 30.2179C77.2546 29.8987 76.7179 29.733 76.5 29.5C75.9882 28.9528 76.7967 27.807 77.5073 27.8093C77.8099 27.8103 78.0863 27.619 78.2186 27.3169Z" fill="white"/>
<path d="M55.0035 25.4926C55.3142 24.7831 56.2453 24.8563 56.4629 25.6072C56.5555 25.927 56.8049 26.1597 57.1046 26.206C57.8084 26.3148 58.0334 27.3205 57.4573 27.7823C57.212 27.9789 57.0897 28.3141 57.1427 28.6448C57.2669 29.4215 56.4749 29.9699 55.9013 29.5043C55.657 29.3061 55.3321 29.2806 55.0651 29.4386C54.4381 29.8098 53.7236 29.1431 53.9451 28.3936C54.0395 28.0744 53.961 27.7235 53.743 27.4904C53.2313 26.9432 53.5817 25.9827 54.2922 25.9851C54.5948 25.986 54.8712 25.7947 55.0035 25.4926Z" fill="white"/>
<path d="M55.0035 25.4926C55.3142 24.7831 56.2453 24.8563 56.4629 25.6072C56.5555 25.927 56.8049 26.1597 57.1046 26.206C57.8084 26.3148 58.0334 27.3205 57.4573 27.7823C57.212 27.9789 57.0897 28.3141 57.1427 28.6448C57.2669 29.4215 56.4749 29.9699 55.9013 29.5043C55.657 29.3061 55.3321 29.2806 55.0651 29.4386C54.4381 29.8098 53.7236 29.1431 53.9451 28.3936C54.0395 28.0744 53.961 27.7235 53.743 27.4904C53.2313 26.9432 53.5817 25.9827 54.2922 25.9851C54.5948 25.986 54.8712 25.7947 55.0035 25.4926Z" fill="white"/>
<path d="M43.5 19.5L37 45L53.2317 30L43.5 19.5Z" fill="#FB9520"/>
<path d="M62.5 40L53.2317 30L37 45L56 49.6891L79.0123 40.307L78 34.8333L62.5 40Z" fill="#FDA744"/>
<path d="M56 49.6891L82 56.4622L79.0123 40.307L56 49.6891Z" fill="#DC9544"/>
<path d="M89 36L90 30.5L78 34.8333L79.0123 40.307L89 36Z" fill="#FB9521"/>
<path d="M84.0645 57L89 36L79.0123 40.307L82 56.4622L84.0645 57Z" fill="#DA8627"/>
<path fill-rule="evenodd" clip-rule="evenodd" d="M118 24L51.5 60L63.817 66.3638L81.5 75.5L118 24Z" fill="#9C6B33"/>
<path d="M51.5 60L46.5 81L63.817 66.3638L51.5 60Z" fill="#50391F"/>
<defs>
<linearGradient id="paint0_linear_408_221" x1="40.375" y1="53.7611" x2="60.5739" y2="70.5219" gradientUnits="userSpaceOnUse">
<stop stop-color="#5D4122"/>
<stop offset="0.996681" stop-color="#2D1F10"/>
</linearGradient>
<linearGradient id="paint1_linear_408_221" x1="0.786685" y1="4.12352" x2="36.6657" y2="3.74092" gradientUnits="userSpaceOnUse">
<stop stop-color="#BEA588"/>
<stop offset="1" stop-color="#C7BCAF"/>
</linearGradient>
</defs>
</svg>
