<svg width="25" height="25" viewBox="0 0 25 25" fill="none" xmlns="http://www.w3.org/2000/svg">
<path fill-rule="evenodd" clip-rule="evenodd" d="M0 1.27551C0 0.571065 0.571039 0 1.27545 0H2.24672C3.45795 0 4.51839 0.854108 4.7445 2.06145L5.05913 3.7415H22.4577C24.0696 3.7415 25.308 5.23076 24.9323 6.83535L22.5967 16.8127C22.3265 17.9668 21.2918 18.7642 20.1221 18.7642H6.33603C5.72217 18.7642 5.19538 18.3269 5.08238 17.7235L2.24093 2.55102H1.27545C0.571039 2.55102 0 1.97995 0 1.27551ZM5.53688 6.29252L7.39479 16.2132H20.1172L22.4395 6.29252H5.53688ZM5.06058 22.4773C5.06058 21.0669 6.21537 19.9546 7.60118 19.9546C8.98698 19.9546 10.1418 21.0669 10.1418 22.4773C10.1418 23.8878 8.98698 25 7.60118 25C6.21537 25 5.06058 23.8878 5.06058 22.4773ZM7.61056 22.4852C7.6113 22.4817 7.61148 22.4773 7.61148 22.4773C7.61148 22.4773 7.6113 22.473 7.61056 22.4694C7.60984 22.4659 7.60878 22.4627 7.60756 22.4598C7.60518 22.4543 7.60197 22.4508 7.60197 22.4508L7.60118 22.4501L7.60039 22.4508C7.60039 22.4508 7.59718 22.4543 7.59479 22.4598C7.59357 22.4627 7.59251 22.4659 7.59179 22.4694C7.59105 22.473 7.59087 22.4773 7.59087 22.4773C7.59087 22.4773 7.59105 22.4817 7.59179 22.4852C7.59251 22.4887 7.59357 22.492 7.59479 22.4948C7.59718 22.5004 7.60039 22.5038 7.60039 22.5038L7.60118 22.5045L7.60197 22.5038C7.60197 22.5038 7.60518 22.5004 7.60756 22.4948C7.60878 22.492 7.60984 22.4887 7.61056 22.4852ZM17.712 22.4773C17.712 21.0669 18.8668 19.9546 20.2526 19.9546C21.6384 19.9546 22.7932 21.0669 22.7932 22.4773C22.7932 23.8878 21.6384 25 20.2526 25C18.8668 25 17.712 23.8878 17.712 22.4773ZM20.262 22.4852C20.2628 22.4817 20.2629 22.4773 20.2629 22.4773C20.2629 22.4773 20.2628 22.473 20.262 22.4694C20.2615 22.467 20.2608 22.4646 20.2601 22.4625L20.259 22.4598C20.2566 22.4543 20.2534 22.4508 20.2534 22.4508L20.2526 22.4501L20.2518 22.4508C20.2518 22.4508 20.2486 22.4543 20.2462 22.4598L20.2445 22.4645L20.2432 22.4694C20.2428 22.4716 20.2424 22.4751 20.2424 22.4751L20.2423 22.4773C20.2423 22.4773 20.2425 22.4817 20.2432 22.4852C20.244 22.4887 20.245 22.492 20.2462 22.4948C20.2486 22.5004 20.2518 22.5038 20.2518 22.5038L20.2526 22.5045L20.2534 22.5038C20.2534 22.5038 20.2566 22.5004 20.259 22.4948C20.2599 22.4929 20.2606 22.4907 20.2612 22.4884L20.262 22.4852Z" fill="white"/>
</svg>
