<svg width="25" height="25" viewBox="0 0 25 25" fill="none" xmlns="http://www.w3.org/2000/svg">
<path fill-rule="evenodd" clip-rule="evenodd" d="M8.7237 20.2035C7.79295 20.7554 7.5 21.3457 7.5 21.7647C7.5 22.4469 6.94036 23 6.25 23C5.55964 23 5 22.4469 5 21.7647C5 20.137 6.10616 18.8744 7.43746 18.085C8.79365 17.2809 10.5865 16.8235 12.5 16.8235C14.4135 16.8235 16.2064 17.2809 17.5625 18.085C18.8938 18.8744 20 20.137 20 21.7647C20 22.4469 19.4404 23 18.75 23C18.0596 23 17.5 22.4469 17.5 21.7647C17.5 21.3457 17.2071 20.7554 16.2763 20.2035C15.3704 19.6664 14.0383 19.2941 12.5 19.2941C10.9617 19.2941 9.62957 19.6664 8.7237 20.2035Z" fill="white"/>
<path fill-rule="evenodd" clip-rule="evenodd" d="M18.7909 14.3479C18.9659 13.688 19.6492 13.2932 20.317 13.4662C21.565 13.7896 22.6956 14.3368 23.5386 15.086C24.385 15.8382 25 16.8559 25 18.0587C25 18.7409 24.4404 19.294 23.75 19.294C23.0596 19.294 22.5 18.7409 22.5 18.0587C22.5 17.7418 22.3437 17.3467 21.8669 16.923C21.3868 16.4963 20.6424 16.1046 19.683 15.8561C19.0152 15.6831 18.6158 15.0078 18.7909 14.3479Z" fill="white"/>
<path fill-rule="evenodd" clip-rule="evenodd" d="M6.20914 14.3479C6.3842 15.0078 5.98477 15.6831 5.31698 15.8561C4.35763 16.1046 3.61324 16.4963 3.13307 16.923C2.65629 17.3467 2.5 17.7418 2.5 18.0587C2.5 18.7409 1.94036 19.294 1.25 19.294C0.559644 19.294 0 18.7409 0 18.0587C0 16.8559 0.615022 15.8382 1.4614 15.086C2.30437 14.3368 3.43499 13.7896 4.68302 13.4662C5.35081 13.2932 6.03408 13.688 6.20914 14.3479Z" fill="white"/>
<path fill-rule="evenodd" clip-rule="evenodd" d="M12.5 8.17647C11.1193 8.17647 10 9.28259 10 10.6471C10 12.0115 11.1193 13.1176 12.5 13.1176C13.8807 13.1176 15 12.0115 15 10.6471C15 9.28259 13.8807 8.17647 12.5 8.17647ZM7.5 10.6471C7.5 7.91812 9.73858 5.70588 12.5 5.70588C15.2614 5.70588 17.5 7.91812 17.5 10.6471C17.5 13.376 15.2614 15.5882 12.5 15.5882C9.73858 15.5882 7.5 13.376 7.5 10.6471Z" fill="white"/>
<path fill-rule="evenodd" clip-rule="evenodd" d="M17.5 4.47059C16.8589 4.47059 16.2768 4.70744 15.8336 5.09939C15.3192 5.55438 14.529 5.51112 14.0686 5.00276C13.6082 4.49441 13.6519 3.71346 14.1664 3.25847C15.0501 2.47678 16.2202 2 17.5 2C20.2614 2 22.5 4.21224 22.5 6.94118C22.5 8.4047 21.8546 9.72089 20.8336 10.6239C20.3192 11.0789 19.529 11.0356 19.0686 10.5273C18.6082 10.0189 18.6519 9.23796 19.1664 8.78296C19.6798 8.32882 20 7.67277 20 6.94118C20 5.57671 18.8807 4.47059 17.5 4.47059Z" fill="white"/>
<path fill-rule="evenodd" clip-rule="evenodd" d="M2.5 6.94118C2.5 4.21224 4.73858 2 7.5 2C8.77979 2 9.94988 2.47678 10.8336 3.25847C11.3481 3.71346 11.3918 4.49441 10.9314 5.00276C10.471 5.51112 9.68077 5.55438 9.16636 5.09939C8.72323 4.70744 8.1411 4.47059 7.5 4.47059C6.11929 4.47059 5 5.57671 5 6.94118C5 7.67277 5.32019 8.32882 5.83364 8.78296C6.34805 9.23796 6.39183 10.0189 5.93142 10.5273C5.47101 11.0356 4.68077 11.0789 4.16636 10.6239C3.14544 9.72089 2.5 8.4047 2.5 6.94118Z" fill="white"/>
</svg>
