<svg width="25" height="25" viewBox="0 0 25 25" fill="none" xmlns="http://www.w3.org/2000/svg">
<path d="M10.6282 0.761227L1.53374 9.69058C0.871848 10.3405 0.5 11.2219 0.5 12.1409V23.2673C0.5 24.2243 1.29009 25 2.26471 25H7.73529C8.70991 25 9.5 24.2243 9.5 23.2673V17.4629C9.5 16.506 10.2901 15.7303 11.2647 15.7303H13.7353C14.7099 15.7303 15.5 16.506 15.5 17.4629V23.2673C15.5 24.2243 16.2901 25 17.2647 25H22.7353C23.7099 25 24.5 24.2243 24.5 23.2673V12.1409C24.5 11.2219 24.1282 10.3405 23.4663 9.69058L14.3718 0.761226C13.338 -0.253742 11.662 -0.253742 10.6282 0.761227Z" fill="white"/>
<path d="M10.6282 0.761227L1.53374 9.69058C0.871848 10.3405 0.5 11.2219 0.5 12.1409V23.2673C0.5 24.2243 1.29009 25 2.26471 25H7.73529C8.70991 25 9.5 24.2243 9.5 23.2673V17.4629C9.5 16.506 10.2901 15.7303 11.2647 15.7303H13.7353C14.7099 15.7303 15.5 16.506 15.5 17.4629V23.2673C15.5 24.2243 16.2901 25 17.2647 25H22.7353C23.7099 25 24.5 24.2243 24.5 23.2673V12.1409C24.5 11.2219 24.1282 10.3405 23.4663 9.69058L14.3718 0.761226C13.338 -0.253742 11.662 -0.253742 10.6282 0.761227Z" fill="white"/>
</svg>
