<svg width="25" height="25" viewBox="0 0 25 25" fill="none" xmlns="http://www.w3.org/2000/svg">
<path fill-rule="evenodd" clip-rule="evenodd" d="M1 12.5C1 5.87258 6.37258 0.5 13 0.5C19.6274 0.5 25 5.87258 25 12.5C25 19.1274 19.6274 24.5 13 24.5C6.37258 24.5 1 19.1274 1 12.5ZM13 2.5C7.47715 2.5 3 6.97715 3 12.5C3 15.558 4.3726 18.2954 6.5353 20.1297C8.23591 18.5668 10.5068 17.6111 12.9998 17.6111C15.493 17.6111 17.7639 18.5669 19.4645 20.1298C21.6273 18.2955 23 15.5581 23 12.5C23 6.97715 18.5228 2.5 13 2.5ZM12.9998 19.6111C14.8035 19.6111 16.4589 20.2423 17.7585 21.2975C16.3434 22.0645 14.7226 22.5 13 22.5C11.2773 22.5 9.65641 22.0644 8.24136 21.2974C9.5409 20.2422 11.1962 19.6111 12.9998 19.6111Z" fill="white"/>
<path fill-rule="evenodd" clip-rule="evenodd" d="M13 6.61107C10.4227 6.61107 8.33333 8.70041 8.33333 11.2777C8.33333 13.8551 10.4227 15.9444 13 15.9444C15.5773 15.9444 17.6667 13.8551 17.6667 11.2777C17.6667 8.70041 15.5773 6.61107 13 6.61107ZM13 8.61107C11.5272 8.61107 10.3333 9.80498 10.3333 11.2777C10.3333 12.7505 11.5272 13.9444 13 13.9444C14.4728 13.9444 15.6667 12.7505 15.6667 11.2777C15.6667 9.80498 14.4728 8.61107 13 8.61107Z" fill="white"/>
</svg>
