<svg width="25" height="25" viewBox="0 0 25 25" fill="none" xmlns="http://www.w3.org/2000/svg">
<path fill-rule="evenodd" clip-rule="evenodd" d="M14.18 4.52C10.9094 4.52 8.19526 7.56236 8.19526 11.0838C8.19526 12.692 8.8113 14.1533 9.82243 15.2492C9.87817 15.3096 9.93511 15.3689 9.99321 15.4271C11.1063 16.541 12.6406 17.2277 14.3376 17.2277C17.7297 17.2277 20.48 14.4772 20.48 11.0838C20.48 7.63464 17.5176 4.52 14.18 4.52ZM5.67525 11.0838C5.67525 6.42727 9.27418 2 14.18 2C19.0189 2 23 6.35499 23 11.0838C23 15.8685 19.122 19.7477 14.3376 19.7477C12.2923 19.7477 10.4112 19.0375 8.92971 17.8522L4.15096 22.631C3.6589 23.123 2.86111 23.123 2.36905 22.631C1.87698 22.1389 1.87698 21.3411 2.36905 20.849L7.20981 16.0083C6.24266 14.6101 5.67525 12.9123 5.67525 11.0838Z" fill="white"/>
</svg>
