<svg width="32" height="32" viewBox="0 0 32 32" fill="none" xmlns="http://www.w3.org/2000/svg">
<path fill-rule="evenodd" clip-rule="evenodd" d="M0 16C0 7.16344 7.16344 0 16 0C24.8366 0 32 7.16344 32 16C32 24.8366 24.8366 32 16 32C7.16344 32 0 24.8366 0 16Z" fill="url(#paint0_linear_235_114)"/>
<g filter="url(#filter0_ii_235_114)">
<path d="M10.25 9.82143C10.25 10.461 10.798 11 11.5 11H20.5C21.202 11 21.75 10.461 21.75 9.82143C21.75 9.61568 21.6933 9.42034 21.593 9.25H10.407C10.3067 9.42034 10.25 9.61568 10.25 9.82143Z" fill="white"/>
<path d="M16 6.5C15.0703 6.5 14.4122 6.62487 13.9672 6.7641C13.4941 6.91209 13.25 7.37439 13.25 7.92769C13.25 8.33402 12.9078 8.64286 12.5116 8.64286H11.5C11.0238 8.64286 10.6185 8.89085 10.407 9.25H21.593C21.3815 8.89085 20.9762 8.64286 20.5 8.64286H19.4884C19.0922 8.64286 18.75 8.33402 18.75 7.92769C18.75 7.37439 18.5059 6.91209 18.0328 6.7641C17.5878 6.62487 16.9297 6.5 16 6.5Z" fill="white"/>
<path fill-rule="evenodd" clip-rule="evenodd" d="M24 11.25C24 10.1954 23.1837 9.33138 22.1484 9.25543C22.2141 9.43168 22.25 9.62208 22.25 9.82143C22.25 10.7598 21.4549 11.5 20.5 11.5H11.5C10.5451 11.5 9.75 10.7598 9.75 9.82143C9.75 9.62208 9.78588 9.43168 9.85155 9.25543C8.81631 9.33138 8 10.1954 8 11.25V23.25C8 24.3546 8.89543 25.25 10 25.25H22C23.1046 25.25 24 24.3546 24 23.25V11.25ZM11.5 19.25H20.5C20.7761 19.25 21 19.4739 21 19.75C21 20.0261 20.7761 20.25 20.5 20.25H11.5C11.2239 20.25 11 20.0261 11 19.75C11 19.4739 11.2239 19.25 11.5 19.25ZM20.5 22.25H11.5C11.2239 22.25 11 22.4739 11 22.75C11 23.0261 11.2239 23.25 11.5 23.25H20.5C20.7761 23.25 21 23.0261 21 22.75C21 22.4739 20.7761 22.25 20.5 22.25ZM10.5 16.25H21.5C21.7761 16.25 22 16.4739 22 16.75C22 17.0261 21.7761 17.25 21.5 17.25H10.5C10.2239 17.25 10 17.0261 10 16.75C10 16.4739 10.2239 16.25 10.5 16.25ZM21 13.25H11C10.7239 13.25 10.5 13.4739 10.5 13.75C10.5 14.0261 10.7239 14.25 11 14.25H21C21.2761 14.25 21.5 14.0261 21.5 13.75C21.5 13.4739 21.2761 13.25 21 13.25Z" fill="white"/>
</g>
<defs>
<filter id="filter0_ii_235_114" x="6" y="4" width="20" height="23.25" filterUnits="userSpaceOnUse" color-interpolation-filters="sRGB">
<feFlood flood-opacity="0" result="BackgroundImageFix"/>
<feBlend mode="normal" in="SourceGraphic" in2="BackgroundImageFix" result="shape"/>
<feColorMatrix in="SourceAlpha" type="matrix" values="0 0 0 0 0 0 0 0 0 0 0 0 0 0 0 0 0 0 127 0" result="hardAlpha"/>
<feOffset dx="-2" dy="-2"/>
<feGaussianBlur stdDeviation="2.5"/>
<feComposite in2="hardAlpha" operator="arithmetic" k2="-1" k3="1"/>
<feColorMatrix type="matrix" values="0 0 0 0 1 0 0 0 0 1 0 0 0 0 1 0 0 0 0.5 0"/>
<feBlend mode="normal" in2="shape" result="effect1_innerShadow_235_114"/>
<feColorMatrix in="SourceAlpha" type="matrix" values="0 0 0 0 0 0 0 0 0 0 0 0 0 0 0 0 0 0 127 0" result="hardAlpha"/>
<feOffset dx="2" dy="2"/>
<feGaussianBlur stdDeviation="2.5"/>
<feComposite in2="hardAlpha" operator="arithmetic" k2="-1" k3="1"/>
<feColorMatrix type="matrix" values="0 0 0 0 0 0 0 0 0 0 0 0 0 0 0 0 0 0 0.25 0"/>
<feBlend mode="normal" in2="effect1_innerShadow_235_114" result="effect2_innerShadow_235_114"/>
</filter>
<linearGradient id="paint0_linear_235_114" x1="4.11765" y1="3.94477" x2="30.6635" y2="6.1695" gradientUnits="userSpaceOnUse">
<stop stop-color="#384CFF"/>
<stop offset="1" stop-color="#B557FF"/>
</linearGradient>
</defs>
</svg>
