<svg width="32" height="32" viewBox="0 0 32 32" fill="none" xmlns="http://www.w3.org/2000/svg">
<path fill-rule="evenodd" clip-rule="evenodd" d="M0 16C0 7.16344 7.16344 0 16 0C24.8366 0 32 7.16344 32 16C32 24.8366 24.8366 32 16 32C7.16344 32 0 24.8366 0 16Z" fill="url(#paint0_linear_235_111)"/>
<g filter="url(#filter0_ii_235_111)">
<path fill-rule="evenodd" clip-rule="evenodd" d="M8.77778 11.6C8.77778 9.58806 10.4434 8 12.4444 8C13.3755 8 14.2306 8.3421 14.8797 8.90859C15.2958 9.27171 15.3388 9.90342 14.9757 10.3195C14.6125 10.7357 13.9808 10.7786 13.5647 10.4155C13.2703 10.1586 12.8794 10 12.4444 10C11.5 10 10.7778 10.7401 10.7778 11.6C10.7778 12.0645 10.9833 12.4871 11.3242 12.7845C11.7403 13.1476 11.7832 13.7793 11.4201 14.1955C11.057 14.6116 10.4253 14.6545 10.0092 14.2914C9.25888 13.6367 8.77778 12.6755 8.77778 11.6ZM19.5556 10C19.1206 10 18.7297 10.1586 18.4353 10.4155C18.0192 10.7786 17.3875 10.7357 17.0243 10.3195C16.6612 9.90342 16.7042 9.27171 17.1203 8.90859C17.7694 8.3421 18.6245 8 19.5556 8C21.5566 8 23.2222 9.58806 23.2222 11.6C23.2222 12.6755 22.7411 13.6367 21.9908 14.2914C21.5747 14.6545 20.943 14.6116 20.5799 14.1955C20.2168 13.7793 20.2597 13.1476 20.6758 12.7845C21.0167 12.4871 21.2222 12.0645 21.2222 11.6C21.2222 10.7401 20.5 10 19.5556 10ZM16 12.6C15.0555 12.6 14.3333 13.3401 14.3333 14.2C14.3333 15.0599 15.0555 15.8 16 15.8C16.9445 15.8 17.6667 15.0599 17.6667 14.2C17.6667 13.3401 16.9445 12.6 16 12.6ZM12.3333 14.2C12.3333 12.1881 13.999 10.6 16 10.6C18.001 10.6 19.6667 12.1881 19.6667 14.2C19.6667 16.2119 18.001 17.8 16 17.8C13.999 17.8 12.3333 16.2119 12.3333 14.2ZM11.6355 16.7686C11.7723 17.3037 11.4494 17.8483 10.9143 17.9851C10.2419 18.157 9.72868 18.4259 9.40397 18.7106C9.08115 18.9937 9 19.2353 9 19.3999C9 19.9522 8.55228 20.3999 8 20.3999C7.44772 20.3999 7 19.9522 7 19.3999C7 18.4983 7.46734 17.7487 8.08543 17.2068C8.70163 16.6665 9.52173 16.2767 10.419 16.0474C10.9541 15.9106 11.4988 16.2335 11.6355 16.7686ZM20.3645 16.7686C20.5012 16.2335 21.0459 15.9106 21.581 16.0474C22.4783 16.2767 23.2984 16.6665 23.9146 17.2068C24.5327 17.7487 25 18.4983 25 19.3999C25 19.9522 24.5523 20.3999 24 20.3999C23.4477 20.3999 23 19.9522 23 19.3999C23 19.2353 22.9188 18.9937 22.596 18.7106C22.2713 18.4259 21.7581 18.157 21.0857 17.9851C20.5506 17.8483 20.2277 17.3037 20.3645 16.7686ZM13.3622 21.0247C12.7124 21.4049 12.5556 21.7839 12.5556 22C12.5556 22.5523 12.1078 23 11.5556 23C11.0033 23 10.5556 22.5523 10.5556 22C10.5556 20.7801 11.3937 19.8592 12.3524 19.2984C13.3351 18.7235 14.627 18.4 16 18.4C17.373 18.4 18.6649 18.7235 19.6476 19.2984C20.6063 19.8592 21.4444 20.7801 21.4444 22C21.4444 22.5523 20.9967 23 20.4444 23C19.8922 23 19.4444 22.5523 19.4444 22C19.4444 21.7839 19.2876 21.4049 18.6378 21.0247C18.0119 20.6586 17.0816 20.4 16 20.4C14.9184 20.4 13.9881 20.6586 13.3622 21.0247Z" fill="white"/>
</g>
<defs>
<filter id="filter0_ii_235_111" x="5" y="6" width="22" height="19" filterUnits="userSpaceOnUse" color-interpolation-filters="sRGB">
<feFlood flood-opacity="0" result="BackgroundImageFix"/>
<feBlend mode="normal" in="SourceGraphic" in2="BackgroundImageFix" result="shape"/>
<feColorMatrix in="SourceAlpha" type="matrix" values="0 0 0 0 0 0 0 0 0 0 0 0 0 0 0 0 0 0 127 0" result="hardAlpha"/>
<feOffset dx="-2" dy="-2"/>
<feGaussianBlur stdDeviation="2.5"/>
<feComposite in2="hardAlpha" operator="arithmetic" k2="-1" k3="1"/>
<feColorMatrix type="matrix" values="0 0 0 0 1 0 0 0 0 1 0 0 0 0 1 0 0 0 0.5 0"/>
<feBlend mode="normal" in2="shape" result="effect1_innerShadow_235_111"/>
<feColorMatrix in="SourceAlpha" type="matrix" values="0 0 0 0 0 0 0 0 0 0 0 0 0 0 0 0 0 0 127 0" result="hardAlpha"/>
<feOffset dx="2" dy="2"/>
<feGaussianBlur stdDeviation="2.5"/>
<feComposite in2="hardAlpha" operator="arithmetic" k2="-1" k3="1"/>
<feColorMatrix type="matrix" values="0 0 0 0 0 0 0 0 0 0 0 0 0 0 0 0 0 0 0.25 0"/>
<feBlend mode="normal" in2="effect1_innerShadow_235_111" result="effect2_innerShadow_235_111"/>
</filter>
<linearGradient id="paint0_linear_235_111" x1="4.11765" y1="3.94477" x2="30.6635" y2="6.1695" gradientUnits="userSpaceOnUse">
<stop stop-color="#384CFF"/>
<stop offset="1" stop-color="#B557FF"/>
</linearGradient>
</defs>
</svg>
