<svg width="32" height="32" viewBox="0 0 32 32" fill="none" xmlns="http://www.w3.org/2000/svg">
<path fill-rule="evenodd" clip-rule="evenodd" d="M0 16C0 7.16344 7.16344 0 16 0C24.8366 0 32 7.16344 32 16C32 24.8366 24.8366 32 16 32C7.16344 32 0 24.8366 0 16Z" fill="url(#paint0_linear_235_117)"/>
<g filter="url(#filter0_ii_235_117)">
<path d="M12.5 10.5C12.5 9.67157 13.1716 9 14 9H18C18.8284 9 19.5 9.67157 19.5 10.5C19.5 11.3284 20.1716 12 21 12C21.8284 12 22.5 11.3284 22.5 10.5C22.5 8.01472 20.4853 6 18 6H14C11.5147 6 9.5 8.01472 9.5 10.5V14.5415C9.6626 14.5142 9.82964 14.5 10 14.5H12.5V10.5Z" fill="white"/>
<path d="M25 22.5V17.5C25 15.8431 23.6569 14.5 22 14.5H12.5H10C9.82964 14.5 9.6626 14.5142 9.5 14.5415C8.08114 14.7795 7 16.0135 7 17.5V22.5C7 24.1569 8.34315 25.5 10 25.5H22C23.6569 25.5 25 24.1569 25 22.5Z" fill="white"/>
</g>
<defs>
<filter id="filter0_ii_235_117" x="5" y="4" width="22" height="23.5" filterUnits="userSpaceOnUse" color-interpolation-filters="sRGB">
<feFlood flood-opacity="0" result="BackgroundImageFix"/>
<feBlend mode="normal" in="SourceGraphic" in2="BackgroundImageFix" result="shape"/>
<feColorMatrix in="SourceAlpha" type="matrix" values="0 0 0 0 0 0 0 0 0 0 0 0 0 0 0 0 0 0 127 0" result="hardAlpha"/>
<feOffset dx="-2" dy="-2"/>
<feGaussianBlur stdDeviation="2.5"/>
<feComposite in2="hardAlpha" operator="arithmetic" k2="-1" k3="1"/>
<feColorMatrix type="matrix" values="0 0 0 0 1 0 0 0 0 1 0 0 0 0 1 0 0 0 0.5 0"/>
<feBlend mode="normal" in2="shape" result="effect1_innerShadow_235_117"/>
<feColorMatrix in="SourceAlpha" type="matrix" values="0 0 0 0 0 0 0 0 0 0 0 0 0 0 0 0 0 0 127 0" result="hardAlpha"/>
<feOffset dx="2" dy="2"/>
<feGaussianBlur stdDeviation="2.5"/>
<feComposite in2="hardAlpha" operator="arithmetic" k2="-1" k3="1"/>
<feColorMatrix type="matrix" values="0 0 0 0 0 0 0 0 0 0 0 0 0 0 0 0 0 0 0.25 0"/>
<feBlend mode="normal" in2="effect1_innerShadow_235_117" result="effect2_innerShadow_235_117"/>
</filter>
<linearGradient id="paint0_linear_235_117" x1="4.11765" y1="3.94477" x2="30.6635" y2="6.1695" gradientUnits="userSpaceOnUse">
<stop stop-color="#384CFF"/>
<stop offset="1" stop-color="#B557FF"/>
</linearGradient>
</defs>
</svg>
