<svg width="32" height="32" viewBox="0 0 32 32" fill="none" xmlns="http://www.w3.org/2000/svg">
<path d="M0 16C0 7.16344 7.16344 0 16 0C24.8366 0 32 7.16344 32 16C32 24.8366 24.8366 32 16 32C7.16344 32 0 24.8366 0 16Z" fill="url(#paint0_linear_235_97)"/>
<g filter="url(#filter0_ii_235_97)">
<path fill-rule="evenodd" clip-rule="evenodd" d="M22 15H10C8.89543 15 8 15.8954 8 17V20C8 21.1046 8.89543 22 10 22H22C23.1046 22 24 21.1046 24 20V17C24 15.8954 23.1046 15 22 15ZM10 12C7.23858 12 5 14.2386 5 17V20C5 22.7614 7.23858 25 10 25H22C24.7614 25 27 22.7614 27 20V17C27 14.2386 24.7614 12 22 12H10Z" fill="white"/>
<path fill-rule="evenodd" clip-rule="evenodd" d="M18 9H14C12.8954 9 12 9.89543 12 11V12H20V11C20 9.89543 19.1046 9 18 9ZM14 6C11.2386 6 9 8.23858 9 11V15H23V11C23 8.23858 20.7614 6 18 6H14Z" fill="white"/>
</g>
<defs>
<filter id="filter0_ii_235_97" x="3" y="4" width="26" height="23" filterUnits="userSpaceOnUse" color-interpolation-filters="sRGB">
<feFlood flood-opacity="0" result="BackgroundImageFix"/>
<feBlend mode="normal" in="SourceGraphic" in2="BackgroundImageFix" result="shape"/>
<feColorMatrix in="SourceAlpha" type="matrix" values="0 0 0 0 0 0 0 0 0 0 0 0 0 0 0 0 0 0 127 0" result="hardAlpha"/>
<feOffset dx="-2" dy="-2"/>
<feGaussianBlur stdDeviation="2.5"/>
<feComposite in2="hardAlpha" operator="arithmetic" k2="-1" k3="1"/>
<feColorMatrix type="matrix" values="0 0 0 0 1 0 0 0 0 1 0 0 0 0 1 0 0 0 0.5 0"/>
<feBlend mode="normal" in2="shape" result="effect1_innerShadow_235_97"/>
<feColorMatrix in="SourceAlpha" type="matrix" values="0 0 0 0 0 0 0 0 0 0 0 0 0 0 0 0 0 0 127 0" result="hardAlpha"/>
<feOffset dx="2" dy="2"/>
<feGaussianBlur stdDeviation="2.5"/>
<feComposite in2="hardAlpha" operator="arithmetic" k2="-1" k3="1"/>
<feColorMatrix type="matrix" values="0 0 0 0 0 0 0 0 0 0 0 0 0 0 0 0 0 0 0.25 0"/>
<feBlend mode="normal" in2="effect1_innerShadow_235_97" result="effect2_innerShadow_235_97"/>
</filter>
<linearGradient id="paint0_linear_235_97" x1="4.11765" y1="3.94477" x2="30.6635" y2="6.1695" gradientUnits="userSpaceOnUse">
<stop stop-color="#384CFF"/>
<stop offset="1" stop-color="#B557FF"/>
</linearGradient>
</defs>
</svg>
