<svg width="32" height="32" viewBox="0 0 32 32" fill="none" xmlns="http://www.w3.org/2000/svg">
<path d="M0 16C0 7.16344 7.16344 0 16 0C24.8366 0 32 7.16344 32 16C32 24.8366 24.8366 32 16 32C7.16344 32 0 24.8366 0 16Z" fill="url(#paint0_linear_235_103)"/>
<g filter="url(#filter0_ii_235_103)">
<path fill-rule="evenodd" clip-rule="evenodd" d="M25.6404 7.61352C26.6823 8.51952 26.7925 10.0986 25.8865 11.1405L15.8865 22.6405C15.4316 23.1636 14.7799 23.4744 14.0871 23.4985C13.3942 23.5227 12.7224 23.258 12.2322 22.7678L7.23223 17.7678C6.25592 16.7915 6.25592 15.2086 7.23223 14.2323C8.20854 13.256 9.79146 13.256 10.7678 14.2323L13.8724 17.3369L22.1135 7.85959C23.0195 6.8177 24.5986 6.70753 25.6404 7.61352Z" fill="white"/>
</g>
<defs>
<filter id="filter0_ii_235_103" x="4.5" y="5" width="24" height="20.5" filterUnits="userSpaceOnUse" color-interpolation-filters="sRGB">
<feFlood flood-opacity="0" result="BackgroundImageFix"/>
<feBlend mode="normal" in="SourceGraphic" in2="BackgroundImageFix" result="shape"/>
<feColorMatrix in="SourceAlpha" type="matrix" values="0 0 0 0 0 0 0 0 0 0 0 0 0 0 0 0 0 0 127 0" result="hardAlpha"/>
<feOffset dx="-2" dy="-2"/>
<feGaussianBlur stdDeviation="2.5"/>
<feComposite in2="hardAlpha" operator="arithmetic" k2="-1" k3="1"/>
<feColorMatrix type="matrix" values="0 0 0 0 1 0 0 0 0 1 0 0 0 0 1 0 0 0 0.5 0"/>
<feBlend mode="normal" in2="shape" result="effect1_innerShadow_235_103"/>
<feColorMatrix in="SourceAlpha" type="matrix" values="0 0 0 0 0 0 0 0 0 0 0 0 0 0 0 0 0 0 127 0" result="hardAlpha"/>
<feOffset dx="2" dy="2"/>
<feGaussianBlur stdDeviation="2.5"/>
<feComposite in2="hardAlpha" operator="arithmetic" k2="-1" k3="1"/>
<feColorMatrix type="matrix" values="0 0 0 0 0 0 0 0 0 0 0 0 0 0 0 0 0 0 0.25 0"/>
<feBlend mode="normal" in2="effect1_innerShadow_235_103" result="effect2_innerShadow_235_103"/>
</filter>
<linearGradient id="paint0_linear_235_103" x1="4.11765" y1="3.94477" x2="30.6635" y2="6.1695" gradientUnits="userSpaceOnUse">
<stop stop-color="#3DDB7D"/>
<stop offset="1" stop-color="#4A9DD9"/>
</linearGradient>
</defs>
</svg>
