<svg width="32" height="32" viewBox="0 0 32 32" fill="none" xmlns="http://www.w3.org/2000/svg">
<path fill-rule="evenodd" clip-rule="evenodd" d="M0 16C0 7.16344 7.16344 0 16 0C24.8366 0 32 7.16344 32 16C32 24.8366 24.8366 32 16 32C7.16344 32 0 24.8366 0 16Z" fill="url(#paint0_linear_261_76)"/>
<path fill-rule="evenodd" clip-rule="evenodd" d="M0 16C0 7.16344 7.16344 0 16 0C24.8366 0 32 7.16344 32 16C32 24.8366 24.8366 32 16 32C7.16344 32 0 24.8366 0 16Z" fill="url(#paint1_linear_261_76)"/>
<g filter="url(#filter0_ii_261_76)">
<path fill-rule="evenodd" clip-rule="evenodd" d="M14 9C13.1716 9 12.5 9.67157 12.5 10.5V14.5H19.5V15C19.5 15.8284 20.1716 16.5 21 16.5C21.8284 16.5 22.5 15.8284 22.5 15V14.5415C23.9189 14.7795 25 16.0135 25 17.5V22.5C25 24.1569 23.6569 25.5 22 25.5H10C8.34315 25.5 7 24.1569 7 22.5V17.5C7 16.0135 8.08114 14.7795 9.5 14.5415V10.5C9.5 8.01472 11.5147 6 14 6H18C20.4853 6 22.5 8.01472 22.5 10.5V14.5415C22.3374 14.5142 22.1704 14.5 22 14.5H19.5V10.5C19.5 9.67157 18.8284 9 18 9H14Z" fill="white"/>
<path d="M21 16.5C21.8284 16.5 22.5 15.8284 22.5 15V14.5415C22.3374 14.5142 22.1704 14.5 22 14.5H19.5V15C19.5 15.8284 20.1716 16.5 21 16.5Z" fill="white"/>
</g>
<defs>
<filter id="filter0_ii_261_76" x="5" y="4" width="22" height="23.5" filterUnits="userSpaceOnUse" color-interpolation-filters="sRGB">
<feFlood flood-opacity="0" result="BackgroundImageFix"/>
<feBlend mode="normal" in="SourceGraphic" in2="BackgroundImageFix" result="shape"/>
<feColorMatrix in="SourceAlpha" type="matrix" values="0 0 0 0 0 0 0 0 0 0 0 0 0 0 0 0 0 0 127 0" result="hardAlpha"/>
<feOffset dx="-2" dy="-2"/>
<feGaussianBlur stdDeviation="2.5"/>
<feComposite in2="hardAlpha" operator="arithmetic" k2="-1" k3="1"/>
<feColorMatrix type="matrix" values="0 0 0 0 1 0 0 0 0 1 0 0 0 0 1 0 0 0 0.5 0"/>
<feBlend mode="normal" in2="shape" result="effect1_innerShadow_261_76"/>
<feColorMatrix in="SourceAlpha" type="matrix" values="0 0 0 0 0 0 0 0 0 0 0 0 0 0 0 0 0 0 127 0" result="hardAlpha"/>
<feOffset dx="2" dy="2"/>
<feGaussianBlur stdDeviation="2.5"/>
<feComposite in2="hardAlpha" operator="arithmetic" k2="-1" k3="1"/>
<feColorMatrix type="matrix" values="0 0 0 0 0 0 0 0 0 0 0 0 0 0 0 0 0 0 0.25 0"/>
<feBlend mode="normal" in2="effect1_innerShadow_261_76" result="effect2_innerShadow_261_76"/>
</filter>
<linearGradient id="paint0_linear_261_76" x1="4.11765" y1="3.94477" x2="30.6635" y2="6.1695" gradientUnits="userSpaceOnUse">
<stop stop-color="#384CFF"/>
<stop offset="1" stop-color="#B557FF"/>
</linearGradient>
<linearGradient id="paint1_linear_261_76" x1="4.11765" y1="3.94477" x2="30.6635" y2="6.1695" gradientUnits="userSpaceOnUse">
<stop stop-color="#D6C52F"/>
<stop offset="1" stop-color="#E37C32"/>
</linearGradient>
</defs>
</svg>
