<svg width="32" height="32" viewBox="0 0 32 32" fill="none" xmlns="http://www.w3.org/2000/svg">
<path d="M0 16C0 7.16344 7.16344 0 16 0C24.8366 0 32 7.16344 32 16C32 24.8366 24.8366 32 16 32C7.16344 32 0 24.8366 0 16Z" fill="url(#paint0_linear_235_107)"/>
<g filter="url(#filter0_ii_235_107)">
<path fill-rule="evenodd" clip-rule="evenodd" d="M16 6C17.3807 6 18.5 7.11929 18.5 8.5V17.25C18.5 18.6307 17.3807 19.75 16 19.75C14.6193 19.75 13.5 18.6307 13.5 17.25V8.5C13.5 7.11929 14.6193 6 16 6ZM16 21C17.3807 21 18.5 22.1193 18.5 23.5C18.5 24.8807 17.3807 26 16 26C14.6193 26 13.5 24.8807 13.5 23.5C13.5 22.1193 14.6193 21 16 21Z" fill="white"/>
</g>
<defs>
<filter id="filter0_ii_235_107" x="11.5" y="4" width="9" height="24" filterUnits="userSpaceOnUse" color-interpolation-filters="sRGB">
<feFlood flood-opacity="0" result="BackgroundImageFix"/>
<feBlend mode="normal" in="SourceGraphic" in2="BackgroundImageFix" result="shape"/>
<feColorMatrix in="SourceAlpha" type="matrix" values="0 0 0 0 0 0 0 0 0 0 0 0 0 0 0 0 0 0 127 0" result="hardAlpha"/>
<feOffset dx="-2" dy="-2"/>
<feGaussianBlur stdDeviation="1.5"/>
<feComposite in2="hardAlpha" operator="arithmetic" k2="-1" k3="1"/>
<feColorMatrix type="matrix" values="0 0 0 0 1 0 0 0 0 1 0 0 0 0 1 0 0 0 0.25 0"/>
<feBlend mode="normal" in2="shape" result="effect1_innerShadow_235_107"/>
<feColorMatrix in="SourceAlpha" type="matrix" values="0 0 0 0 0 0 0 0 0 0 0 0 0 0 0 0 0 0 127 0" result="hardAlpha"/>
<feOffset dx="2" dy="2"/>
<feGaussianBlur stdDeviation="1.5"/>
<feComposite in2="hardAlpha" operator="arithmetic" k2="-1" k3="1"/>
<feColorMatrix type="matrix" values="0 0 0 0 0 0 0 0 0 0 0 0 0 0 0 0 0 0 0.15 0"/>
<feBlend mode="normal" in2="effect1_innerShadow_235_107" result="effect2_innerShadow_235_107"/>
</filter>
<linearGradient id="paint0_linear_235_107" x1="4.11765" y1="3.94477" x2="30.6635" y2="6.1695" gradientUnits="userSpaceOnUse">
<stop stop-color="#D6C52F"/>
<stop offset="1" stop-color="#E37C32"/>
</linearGradient>
</defs>
</svg>
