<svg width="1512" height="1122" viewBox="0 0 1512 1122" fill="none" xmlns="http://www.w3.org/2000/svg">
<g clip-path="url(#clip0_240_142)">
<g opacity="0.75">
<g filter="url(#filter0_f_240_142)">
<path d="M103.083 1027.13C-38.1711 901.408 -174.128 605.974 -174.128 605.974L-529.414 667.799L-300.399 1114.52L212.1 1516.85L565.155 1207.52C565.155 1207.52 238.052 1147.25 103.083 1027.13Z" fill="#FFA538" fill-opacity="0.5"/>
</g>
<g opacity="0.82" filter="url(#filter1_f_240_142)">
<path d="M155.175 1493.06L424.841 1205.66C424.841 1205.66 217.37 1101.5 107.731 1003.92C-7.0129 901.795 -138.155 696.906 -138.155 696.906L-475.771 726.148L-244.169 1218.26L155.175 1493.06Z" fill="#FFA538" fill-opacity="0.5"/>
</g>
<g filter="url(#filter2_f_240_142)">
<path d="M1162.8 1041.05C826.098 1360.67 99.7274 1507.49 99.7274 1507.49L1792.27 1319.02L1669.54 216.831C1669.54 216.831 1430.56 786.875 1162.8 1041.05Z" fill="url(#paint0_linear_240_142)" fill-opacity="0.75"/>
<path d="M1162.8 1041.05C826.098 1360.67 99.7274 1507.49 99.7274 1507.49L1792.27 1319.02L1669.54 216.831C1669.54 216.831 1430.56 786.875 1162.8 1041.05Z" stroke="black"/>
</g>
<g opacity="0.4" filter="url(#filter3_f_240_142)">
<path d="M1244.62 651.318C994.476 1114.89 323.55 1383.73 323.55 1383.73L1380.52 1851.74L2309.08 1677.96L2520.41 -45.6346L1538.04 -508.742C1538.04 -508.742 1443.54 282.678 1244.62 651.318Z" fill="url(#paint1_diamond_240_142)"/>
<path d="M1244.62 651.318C994.476 1114.89 323.55 1383.73 323.55 1383.73L1380.52 1851.74L2309.08 1677.96L2520.41 -45.6346L1538.04 -508.742C1538.04 -508.742 1443.54 282.678 1244.62 651.318Z" stroke="black"/>
</g>
</g>
</g>
<defs>
<filter id="filter0_f_240_142" x="-829.414" y="305.974" width="1694.57" height="1510.87" filterUnits="userSpaceOnUse" color-interpolation-filters="sRGB">
<feFlood flood-opacity="0" result="BackgroundImageFix"/>
<feBlend mode="normal" in="SourceGraphic" in2="BackgroundImageFix" result="shape"/>
<feGaussianBlur stdDeviation="150" result="effect1_foregroundBlur_240_142"/>
</filter>
<filter id="filter1_f_240_142" x="-1175.77" y="-3.09399" width="2300.61" height="2196.15" filterUnits="userSpaceOnUse" color-interpolation-filters="sRGB">
<feFlood flood-opacity="0" result="BackgroundImageFix"/>
<feBlend mode="normal" in="SourceGraphic" in2="BackgroundImageFix" result="shape"/>
<feGaussianBlur stdDeviation="350" result="effect1_foregroundBlur_240_142"/>
</filter>
<filter id="filter2_f_240_142" x="-150.372" y="-35.1392" width="2193.19" height="1793.12" filterUnits="userSpaceOnUse" color-interpolation-filters="sRGB">
<feFlood flood-opacity="0" result="BackgroundImageFix"/>
<feBlend mode="normal" in="SourceGraphic" in2="BackgroundImageFix" result="shape"/>
<feGaussianBlur stdDeviation="125" result="effect1_foregroundBlur_240_142"/>
</filter>
<filter id="filter3_f_240_142" x="-677.737" y="-1509.49" width="4198.69" height="4361.75" filterUnits="userSpaceOnUse" color-interpolation-filters="sRGB">
<feFlood flood-opacity="0" result="BackgroundImageFix"/>
<feBlend mode="normal" in="SourceGraphic" in2="BackgroundImageFix" result="shape"/>
<feGaussianBlur stdDeviation="500" result="effect1_foregroundBlur_240_142"/>
</filter>
<linearGradient id="paint0_linear_240_142" x1="889.22" y1="1350.65" x2="1393.7" y2="482.73" gradientUnits="userSpaceOnUse">
<stop offset="0.239583" stop-color="#FFC738"/>
<stop offset="1" stop-color="#FFA538" stop-opacity="0.4"/>
</linearGradient>
<radialGradient id="paint1_diamond_240_142" cx="0" cy="0" r="1" gradientUnits="userSpaceOnUse" gradientTransform="translate(1553.71 1106.15) rotate(-58.2109) scale(1404.75 472.973)">
<stop offset="0.171875" stop-color="#FFC738"/>
<stop offset="1" stop-color="#FFA538" stop-opacity="0.4"/>
</radialGradient>
<clipPath id="clip0_240_142">
<rect width="1512" height="1122" fill="white"/>
</clipPath>
</defs>
</svg>
